<svg version="1.1" id="awwwards" xmlns="http://www.w3.org/2000/svg" xmlns:xlink="http://www.w3.org/1999/xlink" x="0px" y="0px"
	 viewBox="0 0 270 180" enable-background="new 0 0 270 180" xml:space="preserve">
<g>
	<g>
		<polygon fill-rule="evenodd" clip-rule="evenodd" points="106.8,8.5 106.8,35.4 132.1,21.9 		"/>
		<path fill-rule="evenodd" clip-rule="evenodd" d="M185.6,50.4l-7.1-3.8l-40.5,21.5l19.5,10.4l-63,33.5l12.3,6.5v30l78.8-41.9
			c0,0,5.7-3.3,5.7-7.7c0-3.6,0-37.1,0-40.8C191.3,53.7,185.6,50.4,185.6,50.4z"/>
		<polygon fill-rule="evenodd" clip-rule="evenodd" points="163.2,148.5 163.2,121.6 137.9,135.1 		"/>
		<path fill-rule="evenodd" clip-rule="evenodd" d="M112.6,78.5l63-33.5l-12.3-6.5v-30L84.4,50.4c0,0-5.7,3.3-5.7,7.7
			c0,3.6,0,37.1,0,40.8c0,4.4,5.7,7.7,5.7,7.7l7.1,3.8l40.5-21.5L112.6,78.5z"/>
	</g>
	<g>
		<path d="M69.3,167.3C70,167.7,71,168,72,168c1.1,0,1.7-0.5,1.7-1.2c0-0.7-0.5-1.1-1.8-1.5c-1.8-0.6-3-1.6-3-3.2
			c0-1.8,1.5-3.2,4.1-3.2c1.2,0,2.1,0.3,2.8,0.5l-0.5,2c-0.4-0.2-1.2-0.5-2.3-0.5c-1.1,0-1.6,0.5-1.6,1c0,0.7,0.6,1,2,1.5
			c1.9,0.7,2.8,1.7,2.8,3.2c0,1.8-1.4,3.3-4.4,3.3c-1.2,0-2.4-0.3-3.1-0.7L69.3,167.3z"/>
		<path d="M78,159.2c0.8-0.1,1.8-0.2,3.3-0.2c1.5,0,2.6,0.3,3.3,0.9c0.7,0.5,1.2,1.4,1.2,2.5s-0.4,2-1,2.6c-0.8,0.8-2.1,1.1-3.5,1.1
			c-0.3,0-0.6,0-0.8,0v3.9H78V159.2z M80.4,164.1c0.2,0,0.5,0.1,0.8,0.1c1.3,0,2.1-0.7,2.1-1.8c0-1-0.7-1.6-1.9-1.6
			c-0.5,0-0.8,0-1,0.1V164.1z"/>
		<path d="M93.9,165.3h-4v2.6h4.4v2h-6.9v-10.8h6.7v2h-4.2v2.2h4V165.3z"/>
		<path d="M104.1,169.6c-0.4,0.2-1.5,0.5-2.8,0.5c-3.7,0-5.7-2.3-5.7-5.4c0-3.7,2.6-5.7,5.9-5.7c1.3,0,2.2,0.3,2.7,0.5l-0.5,1.9
			c-0.5-0.2-1.2-0.4-2-0.4c-1.9,0-3.4,1.2-3.4,3.6c0,2.2,1.3,3.5,3.5,3.5c0.7,0,1.6-0.2,2-0.4L104.1,169.6z"/>
		<path d="M108.3,159.1v10.8h-2.4v-10.8H108.3z"/>
		<path d="M113.1,167.1l-0.8,2.8h-2.5l3.3-10.8h3.2l3.3,10.8H117l-0.8-2.8H113.1z M115.8,165.3l-0.7-2.3c-0.2-0.6-0.4-1.4-0.5-2.1h0
			c-0.2,0.6-0.3,1.5-0.5,2.1l-0.6,2.3H115.8z"/>
		<path d="M121.2,159.1h2.4v8.7h4.3v2h-6.7V159.1z"/>
		<path d="M142.1,165.7c0-1.3-0.1-2.9-0.1-4.4h0c-0.3,1.4-0.8,2.9-1.2,4.2l-1.3,4.2h-1.9l-1.2-4.2c-0.4-1.3-0.7-2.8-1-4.2h0
			c-0.1,1.5-0.1,3.1-0.2,4.5l-0.2,4.1h-2.3l0.7-10.8h3.2l1.1,3.6c0.3,1.2,0.7,2.6,0.9,3.9h0c0.3-1.2,0.7-2.7,1-3.9l1.2-3.6h3.2
			l0.6,10.8h-2.4L142.1,165.7z"/>
		<path d="M153.1,165.3h-4v2.6h4.4v2h-6.9v-10.8h6.7v2h-4.2v2.2h4V165.3z"/>
		<path d="M155.4,169.9v-10.8h2.8l2.2,4c0.6,1.1,1.3,2.5,1.8,3.7h0c-0.2-1.4-0.2-2.9-0.2-4.5v-3.2h2.2v10.8h-2.6l-2.3-4.2
			c-0.6-1.2-1.3-2.5-1.9-3.8l0,0c0.1,1.4,0.1,2.9,0.1,4.7v3.2H155.4z"/>
		<path d="M168.6,161.1h-2.9v-2h8.3v2h-2.9v8.7h-2.4V161.1z"/>
		<path d="M177.9,159.1v10.8h-2.4v-10.8H177.9z"/>
		<path d="M190.1,164.4c0,3.5-2.1,5.7-5.3,5.7c-3.2,0-5.1-2.4-5.1-5.5c0-3.2,2.1-5.7,5.2-5.7C188.3,158.9,190.1,161.4,190.1,164.4z
			 M182.3,164.5c0,2.1,1,3.6,2.6,3.6c1.6,0,2.6-1.6,2.6-3.7c0-1.9-0.9-3.6-2.6-3.6C183.3,160.8,182.3,162.4,182.3,164.5z"/>
		<path d="M191.8,169.9v-10.8h2.8l2.2,4c0.6,1.1,1.3,2.5,1.8,3.7h0c-0.2-1.4-0.2-2.9-0.2-4.5v-3.2h2.2v10.8h-2.6l-2.3-4.2
			c-0.6-1.2-1.3-2.5-1.9-3.8l0,0c0.1,1.4,0.1,2.9,0.1,4.7v3.2H191.8z"/>
	</g>
</g>
</svg>
