<svg version="1.1" id="Layer_2" xmlns="http://www.w3.org/2000/svg" xmlns:xlink="http://www.w3.org/1999/xlink" x="0px" y="0px"
	 viewBox="0 0 600 300" enable-background="new 0 0 600 300" xml:space="preserve">
<path id="cup" fill="none" stroke="#000000" stroke-width="8" stroke-miterlimit="10" d="M412.2,161.7c-8.1,0-15.7,2.1-22.3,5.7v-5.7
	c0-6.4-5.2-11.7-11.7-11.7l-166.4,0v0c-6.4,0-11.7,5.2-11.7,11.7l0,33.4c0,0,0,0,0,0c0,52.4,42.5,94.9,94.9,94.9
	c36,0,67.3-20,83.3-49.5c8.5,8.9,20.5,14.5,33.8,14.5c25.8,0,46.7-20.9,46.7-46.7C458.9,182.6,438,161.7,412.2,161.7z M412.2,231.7
	c-12.7,0-23-10.1-23.3-22.7c0.3-2.1,0.5-4.1,0.7-6.2c2.5-10.2,11.7-17.7,22.6-17.7c12.9,0,23.3,10.4,23.3,23.3
	C435.6,221.2,425.1,231.7,412.2,231.7z"/>
<g>
	<defs>
        <rect id="steamMask" x="250" y="0" width="100" height="140"/>
	</defs>
	<clipPath id="steam">
		<use xlink:href="#steamMask"  overflow="visible"/>
	</clipPath>
	
    <path clip-path="url(#steam)" fill="none" stroke="#000000" stroke-width="8" stroke-linecap="round" stroke-miterlimit="10" d="M300,126.7c0,0-27.8-30.5,0-58.3s0-58.3,0-58.3">
    </path>
</g>
</svg>
