<svg version="1.1" id="creative" xmlns="http://www.w3.org/2000/svg" xmlns:xlink="http://www.w3.org/1999/xlink" x="0px" y="0px"
	 viewBox="0 0 600 300" enable-background="new 0 0 600 300" xml:space="preserve" style="overflow:visible">
    <g id="pencilflip">
        <line fill="none" stroke="#000000" stroke-width="7.8956" stroke-miterlimit="10" x1="112.5" y1="66.8" x2="187.5" y2="66.8"/>
        <path fill="none" stroke="#000000" stroke-width="7.8956" stroke-linejoin="round" stroke-miterlimit="10" d="M187.5,48.5
            c0-21.3-16.8-38.5-37.5-38.5c-20.7,0-37.5,17.2-37.5,38.5l0,164.5l37.5,77l37.5-77L187.5,48.5C187.5,48.5,187.5,48.5,187.5,48.5z"
            />
        <line fill="none" stroke="#000000" stroke-width="7.8956" stroke-miterlimit="10" x1="112.5" y1="48.5" x2="187.5" y2="48.5"/>
        <line fill="none" stroke="#000000" stroke-width="7.8956" stroke-miterlimit="10" x1="137.4" y1="264.2" x2="162.6" y2="264.2"/>
        <polyline fill="none" stroke="#000000" stroke-width="7.8956" stroke-miterlimit="10" points="112.5,213 130.3,192.8 150,213 
            169.7,192.8 187.5,213 		"/>
        <line fill="none" stroke="#000000" stroke-width="7.8956" stroke-miterlimit="10" x1="130.3" y1="192.8" x2="130.3" y2="66.8"/>
        <line fill="none" stroke="#000000" stroke-width="7.8956" stroke-miterlimit="10" x1="169.7" y1="192.8" x2="169.7" y2="66.8"/>
    </g>
    <line id="pencilline" fill="none" stroke="#000000" stroke-width="8" stroke-miterlimit="10" x1="150" y1="290" x2="450" y2="290"/>
</svg>
