<svg version="1.1" id="Layer_1" xmlns="http://www.w3.org/2000/svg" xmlns:xlink="http://www.w3.org/1999/xlink" x="0px" y="0px"
	 viewBox="0 0 270 180" enable-background="new 0 0 270 180" xml:space="preserve">
<g>
	<g>
		<g>
			<g>
				<polygon points="119.3,141.6 111.7,141.6 111.7,122.5 104,122.5 104,141.6 96.4,141.6 96.4,122.5 88.7,122.5 88.7,141.6 
					92.6,141.6 92.6,145.4 123.1,145.4 123.1,141.6 127,141.6 127,122.5 119.3,122.5 				"/>
				<path d="M81.1,122.5H65.8v3.8H62v19.1h7.7v-7.6h7.6v7.6h7.6v-19.1h-3.8V122.5z M77.3,133.9h-7.6v-7.6h7.6V133.9z"/>
				<path d="M176.6,122.5h-11.5h-7.6v22.9h7.6v-7.6h7.6v7.6h7.6v-7.6h-3.8v-3.8h3.8v-7.6h-3.8V122.5z M172.8,133.9h-7.6v-7.6h7.6
					V133.9z"/>
				<path d="M203.4,126.3v-3.8h-11.5h-7.6v22.9h7.6h11.5v-3.8h3.8v-15.3H203.4z M191.9,141.6v-15.3h7.6v15.3H191.9z"/>
				<path d="M149.9,122.5h-15.3v3.8h-3.8v19.1h7.6v-7.6h7.7v7.6h7.6v-19.1h-3.8V122.5z M146.1,133.9h-7.7v-7.6h7.7V133.9z"/>
			</g>
			<g>
				<path d="M201.5,86c-5.1,1.4-10.3-0.4-13.5-4.2l34.7-9.3c-0.1-1.9-0.3-3.8-0.8-5.7c0,0,0,0,0,0c-0.3-0.9-0.6-1.8-0.9-2.7
					c0,0,0-0.1,0-0.1c-0.4-0.8-0.7-1.7-1.2-2.5l0,0c-5.3-9.8-16.8-15.1-28-12.1c-6.2,1.7-11.1,5.5-14.3,10.5
					c-4.4-6.8-12-11.3-20.7-11.3c-10.1,0-18.8,6.1-22.6,14.8c-3.8-8.7-12.5-14.8-22.6-14.8c-8.6,0-16.2,4.4-20.6,11.1v-25H79.6v17.8
					c-3.8-2.5-8.4-3.9-13.3-3.9c-13.6,0-24.6,11-24.6,24.6c0,13.6,11,24.6,24.6,24.6c10.1,0,18.8-6.1,22.6-14.9
					c3.8,8.7,12.5,14.9,22.6,14.9c8.6,0,16.1-4.4,20.5-11v25.4h11.4V93.9c3.8,2.5,8.4,3.9,13.3,3.9c8.7,0,16.3-4.5,20.7-11.3
					c5.6,8.8,16.5,13.3,27.1,10.5c3.6-1,6.9-2.8,9.6-5l-8.1-8C204.6,84.8,203.1,85.5,201.5,86z M66.3,86.4C59,86.4,53,80.5,53,73.1
					c0-7.3,6-13.3,13.3-13.3c7.3,0,13.3,6,13.3,13.3C79.6,80.5,73.6,86.4,66.3,86.4z M111.5,86.4c-7.3,0-13.3-5.9-13.3-13.3
					c0-7.3,5.9-13.3,13.3-13.3c7.3,0,13.3,6,13.3,13.3C124.8,80.5,118.8,86.4,111.5,86.4z M156.7,86.4c-7.3,0-13.3-5.9-13.3-13.3
					c0-7.3,5.9-13.3,13.3-13.3c7.3,0,13.3,6,13.3,13.3C169.9,80.5,164,86.4,156.7,86.4z M194.6,60.3c5.1-1.4,10.3,0.5,13.5,4.2
					L185,70.8C185.9,65.9,189.5,61.7,194.6,60.3z"/>
				<path d="M222.1,83.5c-3.5,0-6.3,2.8-6.3,6.3c0,3.5,2.8,6.3,6.3,6.3c3.5,0,6.3-2.8,6.3-6.3C228.3,86.4,225.5,83.5,222.1,83.5z
					 M222.1,94.5c-2.6,0-4.7-2.1-4.7-4.7c0-2.6,2.1-4.7,4.7-4.7c2.6,0,4.7,2.1,4.7,4.7C226.8,92.4,224.7,94.5,222.1,94.5z"/>
				<path d="M222.1,87.5c0.9,0,1.6,0.5,2,1.2h0.9c-0.5-1.2-1.6-2-2.9-2c-1.7,0-3.1,1.4-3.1,3.1c0,1.7,1.4,3.1,3.1,3.1
					c1.3,0,2.4-0.8,2.9-2h-0.9c-0.4,0.7-1.2,1.2-2,1.2c-1.3,0-2.4-1.1-2.4-2.4C219.7,88.5,220.8,87.5,222.1,87.5z"/>
			</g>
		</g>
	</g>
</g>
</svg>
