<svg version="1.1" id="Layer_1" xmlns="http://www.w3.org/2000/svg" xmlns:xlink="http://www.w3.org/1999/xlink" x="0px" y="0px"
	 viewBox="0 0 270 180" enable-background="new 0 0 270 180" xml:space="preserve">
<g>
	<g>
		<g>
			<path d="M46.6,81.8c-0.5-0.3-1.5-0.5-2.9-0.5c-1.4,0-2.5,0.2-3.3,0.7c-0.9,0.5-1.6,1.4-2.3,2.6l-5.5,10.8h-0.1l0.2-10.8v-0.1
				c0-1.2-0.3-2.1-0.9-2.5c-0.6-0.5-1.6-0.7-2.9-0.7c-1.7,0-3,0.3-3.7,0.8c-0.7,0.5-1.2,1.3-1.5,2.3l-4.8,18.1c0,0.1,0,0.2-0.1,0.3
				c0,0.1,0,0.2,0,0.2c0,0.5,0.2,0.9,0.6,1.2c0.4,0.3,0.9,0.4,1.6,0.4c0.7,0,1.4-0.2,2-0.6c0.6-0.4,1-0.9,1.2-1.6l4.3-16.2h0.1
				l-0.1,16.9c0,0.4,0.1,0.7,0.3,0.9c0.2,0.3,0.6,0.4,1.3,0.4c0.7,0,1.2-0.1,1.5-0.4c0.3-0.3,0.6-0.6,0.8-0.9l8.9-16.9h0.1L37,102.5
				c0,0.1,0,0.2-0.1,0.3c0,0.1,0,0.2,0,0.2c0,0.5,0.2,0.9,0.6,1.2c0.4,0.3,0.9,0.4,1.6,0.4c0.7,0,1.4-0.2,2-0.6
				c0.6-0.4,1-0.9,1.2-1.6l4.8-18.1c0.1-0.5,0.2-0.9,0.2-1.2C47.4,82.6,47.1,82.1,46.6,81.8z"/>
			<rect x="200.1" y="94.6" width="27.4" height="9.1"/>
			<path d="M250.3,75.3h-3.5v-3.6c0-8.1-6.6-14.7-14.7-14.7h-45.6c-5.8,0-10.8,3.4-13.2,8.2l-5.1,10.2l-5.1-10.2
				c-2.4-4.8-7.4-8.1-13.1-8.1c-5.8,0-10.8,3.4-13.2,8.2l-5.1,10.2l-5.1-10.2c-2.4-4.8-7.4-8.1-13.1-8.1H77
				c-8.1,0-14.7,6.6-14.7,14.7v3.6v11.9c-0.1,0.1-0.2,0.2-0.4,0.3c-0.1,0-0.1,0-0.2,0c-3-12.7-14.4-22.2-28-22.2
				C17.9,65.2,5,78.1,5,94c0,15.9,12.9,28.8,28.8,28.8c9.5,0,18-4.6,23.2-11.8c0.3,0,0.6,0,0.9,0c1.6,0,3.2-0.4,4.6-1.1
				c0.8,7.3,7.1,13,14.6,13c8.1,0,14.7-6.6,14.7-14.7v-3.5h12.7c2.9,0,5.7-0.9,8-2.4l6.2,12.5c2.4,4.8,7.4,8.1,13.1,8.1
				c5.8,0,10.7-3.3,13.1-8.1l5.1-10.2l5.1,10.2c2.4,4.8,7.4,8.1,13.1,8.1c5.8,0,10.7-3.3,13.1-8.1l0.6-1.1c2.2,5.4,7.5,9.3,13.7,9.3
				h36.5c8.1,0,14.7-6.6,14.7-14.7v-3.5h3.5c8.1,0,14.7-6.6,14.7-14.7C265,81.9,258.4,75.3,250.3,75.3z M51.3,108.7
				c-4.2,5-10.5,8.1-17.5,8.1c-12.6,0-22.8-10.2-22.8-22.8c0-12.6,10.2-22.8,22.8-22.8c11.3,0,20.7,8.2,22.5,19
				c-5.1,0.8-8.9,5.1-8.9,10.4C47.4,103.8,48.9,106.8,51.3,108.7z M57.9,104.6c-2.2,0-4.1-1.8-4.1-4.1c0-2.2,1.8-4.1,4.1-4.1
				c2.2,0,4.1,1.8,4.1,4.1C61.9,102.8,60.1,104.6,57.9,104.6z M250.3,94.6h-13.7v13.7c0,2.5-2,4.6-4.6,4.6h-36.5
				c-2.5,0-4.6-2-4.6-4.6V90c0-2.5,2-4.6,4.6-4.6h31.9v-9.1h-38.2l-17,34c-0.7,1.5-2.3,2.5-4.1,2.5c-1.8,0-3.3-1-4.1-2.5L150,82
				l-14.2,28.3c-0.7,1.5-2.3,2.5-4.1,2.5c-1.8,0-3.3-1-4.1-2.5l-17-34H81.6v9.1h22.8c2.5,0,4.6,2,4.6,4.6c0,2.5-2,4.6-4.6,4.6H81.6
				v13.7c0,2.5-2,4.6-4.6,4.6c-2.5,0-4.6-2-4.6-4.6V94.6v-9.1V71.8c0-2.5,2-4.6,4.6-4.6h36.5c1.8,0,3.3,1,4.1,2.5L131.7,98
				l14.1-28.3c0.8-1.5,2.3-2.6,4.1-2.6c1.8,0,3.3,1,4.1,2.5L168.2,98l14.1-28.3c0.8-1.5,2.3-2.6,4.1-2.6h45.6c2.5,0,4.6,2,4.6,4.6
				v13.7h13.7c2.5,0,4.6,2,4.6,4.6C254.9,92.5,252.8,94.6,250.3,94.6z"/>
		</g>
	</g>
</g>
</svg>
