<svg width="30px" height="30px" viewBox="0 0 30 30" version="1.1" xmlns="http://www.w3.org/2000/svg" xmlns:xlink="http://www.w3.org/1999/xlink">
    <g id="Page-1" stroke="none" stroke-width="1" fill="none" fill-rule="evenodd">
        <g id="medium" transform="translate(0.000000, 0.000000)" fill="#FFFFFF">
            <path d="M29.9082692,6.64588071 C29.9518413,6.68027978 29.9661743,6.74105146 29.9360751,6.79035679 L20.841535,21.5687695 L14.3031322,10.9440442 L19.5131576,2.47728706 C19.7000592,2.17400195 20.0449099,2 20.3914805,2 C20.4751849,2 20.5586026,2.01289965 20.6403004,2.03382575 C20.705372,2.05045197 20.7695836,2.07109141 20.8306419,2.10176391 L29.8804632,6.62667457 L29.890783,6.63183443 C29.8979494,6.63527433 29.902536,6.64129417 29.9082692,6.64588071 Z M11.43339,9.01540314 L19.9999044,22.9364191 L11.43339,18.6531618 L11.43339,9.01540314 Z M21.2870029,23.5799683 L30,9.42131213 L30,26.3883655 C30,27.2431823 29.2561202,27.5645269 28.338525,27.105586 L21.2870029,23.5799683 Z M9.94620368,6.65964034 C9.97916945,6.6759799 10.0000956,6.70980565 10.0000956,6.74649798 L10.0000956,26.3883655 C10.0000956,27.0167218 9.66069142,27.3910983 9.17681121,27.3910983 C9.00510253,27.3910983 8.81504768,27.3437996 8.61553309,27.2440423 L0.830737478,23.3517878 C0.373803199,23.1233207 0,22.5184704 0,22.0076442 L0,2.9247616 C0,2.42224855 0.271465974,2.12269001 0.658455482,2.12269001 C0.796051751,2.12269001 0.947980966,2.16052898 1.10764997,2.24022015 L9.94620368,6.65964034 Z"></path>
        </g>
    </g>
</svg>
