<svg width="58" height="12" viewBox="0 0 58 12" fill="none" xmlns="http://www.w3.org/2000/svg">
<path fill-rule="evenodd" clip-rule="evenodd" d="M44.9342 9.17824V10.5541H50.7514V9.17824H48.6997V3.91624H45.2359V5.28001H47.2514V9.17824H44.9342ZM47.1307 2.5766C47.3077 2.72947 47.5491 2.80591 47.8549 2.80591C48.1606 2.80591 48.402 2.72947 48.579 2.5766C48.756 2.41568 48.8445 2.20247 48.8445 1.93695C48.8445 1.67144 48.756 1.46225 48.579 1.30938C48.402 1.14846 48.1606 1.068 47.8549 1.068C47.5491 1.068 47.3077 1.14846 47.1307 1.30938C46.9537 1.46225 46.8652 1.67144 46.8652 1.93695C46.8652 2.20247 46.9537 2.41568 47.1307 2.5766ZM54.7414 10.2886C55.0713 10.4656 55.4535 10.5541 55.888 10.5541H58V9.1903H55.9966C55.7552 9.1903 55.5621 9.12191 55.4173 8.98513C55.2805 8.84031 55.2121 8.64721 55.2121 8.40583V1.74385H51.5794V3.10763H53.7035V8.40583C53.7035 8.83226 53.796 9.21042 53.9811 9.5403C54.1661 9.86213 54.4196 10.1116 54.7414 10.2886ZM40.4373 10.6748C39.874 10.6748 39.3792 10.5702 38.9528 10.361C38.5344 10.1437 38.2085 9.84202 37.9752 9.45582C37.7419 9.06157 37.6252 8.59893 37.6252 8.0679V6.40241C37.6252 5.86334 37.7419 5.4007 37.9752 5.0145C38.2085 4.62829 38.5344 4.3306 38.9528 4.1214C39.3792 3.90417 39.874 3.79555 40.4373 3.79555C41.274 3.79555 41.9418 4.01279 42.4407 4.44726C42.9395 4.87369 43.201 5.45702 43.2251 6.19724H41.7165C41.6924 5.85127 41.5677 5.58575 41.3424 5.4007C41.1252 5.2076 40.8235 5.11105 40.4373 5.11105C40.035 5.11105 39.7171 5.22369 39.4838 5.44897C39.2505 5.66621 39.1338 5.98 39.1338 6.39034V8.0679C39.1338 8.47824 39.2505 8.79605 39.4838 9.02134C39.7171 9.24662 40.035 9.35927 40.4373 9.35927C40.8235 9.35927 41.1252 9.26674 41.3424 9.08168C41.5677 8.88858 41.6924 8.61905 41.7165 8.27307H43.2251C43.201 9.01329 42.9395 9.60064 42.4407 10.0351C41.9418 10.4615 41.274 10.6748 40.4373 10.6748ZM32.2955 7.12654L29.9783 10.5541H31.68L32.8507 8.73169C32.9151 8.62709 32.9754 8.51445 33.0317 8.39376C33.088 8.27307 33.1323 8.17652 33.1645 8.10411C33.2047 8.17652 33.253 8.27307 33.3093 8.39376C33.3656 8.51445 33.426 8.62709 33.4903 8.73169L34.6369 10.5541H36.3506L34.0455 7.12654L36.2058 3.91624H34.5041L33.4662 5.54553C33.4099 5.64208 33.3536 5.75069 33.2972 5.87138C33.2409 5.99207 33.1967 6.08862 33.1645 6.16103C33.1323 6.08862 33.088 5.99207 33.0317 5.87138C32.9834 5.75069 32.9271 5.64208 32.8628 5.54553L31.8369 3.91624H30.1352L32.2955 7.12654ZM25.94 10.6748C25.3768 10.6748 24.886 10.5661 24.4676 10.3489C24.0492 10.1317 23.7233 9.82995 23.49 9.44375C23.2647 9.0495 23.1521 8.59088 23.1521 8.0679V6.40241C23.1521 5.87943 23.2647 5.42484 23.49 5.03863C23.7233 4.64439 24.0492 4.33864 24.4676 4.1214C24.886 3.90417 25.3768 3.79555 25.94 3.79555C26.4951 3.79555 26.9779 3.90417 27.3882 4.1214C27.8066 4.33864 28.1285 4.64439 28.3537 5.03863C28.5871 5.42484 28.7037 5.87943 28.7037 6.40241V7.59722H24.6124V8.0679C24.6124 8.53456 24.7251 8.88858 24.9503 9.12996C25.1756 9.36329 25.5095 9.47995 25.952 9.47995C26.29 9.47995 26.5635 9.42363 26.7727 9.31099C26.9819 9.1903 27.1147 9.01732 27.171 8.79203H28.6555C28.5428 9.36329 28.2371 9.8219 27.7382 10.1679C27.2474 10.5058 26.648 10.6748 25.94 10.6748ZM27.2434 6.39034V6.63267L24.6124 6.65585V6.40241C24.6124 5.94379 24.7251 5.58978 24.9503 5.34035C25.1756 5.09093 25.5055 4.96622 25.94 4.96622C26.3745 4.96622 26.7003 5.09093 26.9176 5.34035C27.1348 5.58173 27.2434 5.93173 27.2434 6.39034ZM16 1.74385V10.5541H17.5086V7.17481H18.9327C19.5201 7.17481 20.031 7.06217 20.4655 6.83689C20.8999 6.6116 21.2379 6.29379 21.4792 5.88345C21.7287 5.47311 21.8534 4.9984 21.8534 4.45933C21.8534 3.91221 21.7327 3.43751 21.4913 3.03521C21.2499 2.62487 20.908 2.30706 20.4655 2.08178C20.031 1.85649 19.5201 1.74385 18.9327 1.74385H16ZM18.9327 5.81104H17.5086V3.10763H18.9327C19.3511 3.10763 19.685 3.22831 19.9344 3.46969C20.1919 3.71107 20.3206 4.04095 20.3206 4.45933C20.3206 4.86967 20.1919 5.19955 19.9344 5.44897C19.685 5.69035 19.3511 5.81104 18.9327 5.81104Z" fill="black"/>
<path fill-rule="evenodd" clip-rule="evenodd" d="M7.71429 0V4.28571H12V12H0V0H7.71429ZM3.42857 8.57143H5.14286V10.2857H10.2857V6H6V1.71429H1.71429V6.85714H3.42857V8.57143Z" fill="black"/>
</svg>
