<svg version="1.1" id="Layer_1" xmlns="http://www.w3.org/2000/svg" xmlns:xlink="http://www.w3.org/1999/xlink" x="0px" y="0px"
	 viewBox="0 0 270 180" enable-background="new 0 0 270 180" xml:space="preserve">
<g>
	<g>
		<g>
			<path d="M121.3,85.7c-1.7,0-3.1,1.4-3.1,3.1c0,1.7,1.4,3.1,3.1,3.1c1.7,0,3.1-1.4,3.1-3.1C124.4,87.1,123,85.7,121.3,85.7z"/>
			<path d="M121.3,92.6c-1.7,0-3.1,1.4-3.1,3.1c0,1.7,1.4,3.1,3.1,3.1c1.7,0,3.1-1.4,3.1-3.1C124.4,94,123,92.6,121.3,92.6z"/>
			<path d="M121.3,58.2c-1.7,0-3.1,1.4-3.1,3.1c0,1.7,1.4,3.1,3.1,3.1c1.7,0,3.1-1.4,3.1-3.1C124.4,59.6,123,58.2,121.3,58.2z"/>
			<path d="M121.3,51.3c-1.7,0-3.1,1.4-3.1,3.1c0,1.7,1.4,3.1,3.1,3.1c1.7,0,3.1-1.4,3.1-3.1C124.4,52.7,123,51.3,121.3,51.3z"/>
			<path d="M121.3,65.1c-1.7,0-3.1,1.4-3.1,3.1c0,1.7,1.4,3.1,3.1,3.1c1.7,0,3.1-1.4,3.1-3.1C124.4,66.4,123,65.1,121.3,65.1z"/>
			<path d="M121.3,99.5c-1.7,0-3.1,1.4-3.1,3.1c0,1.7,1.4,3.1,3.1,3.1c1.7,0,3.1-1.4,3.1-3.1C124.4,100.9,123,99.5,121.3,99.5z"/>
			<path d="M114.5,44.4c-1.7,0-3.1,1.4-3.1,3.1c0,1.7,1.4,3.1,3.1,3.1c1.7,0,3.1-1.4,3.1-3.1C117.5,45.8,116.2,44.4,114.5,44.4z"/>
			<path d="M121.3,120.2c-1.7,0-3.1,1.4-3.1,3.1c0,1.7,1.4,3.1,3.1,3.1c1.7,0,3.1-1.4,3.1-3.1C124.4,121.6,123,120.2,121.3,120.2z"
				/>
			<path d="M121.3,44.4c-1.7,0-3.1,1.4-3.1,3.1c0,1.7,1.4,3.1,3.1,3.1c1.7,0,3.1-1.4,3.1-3.1C124.4,45.8,123,44.4,121.3,44.4z"/>
			<path d="M121.3,106.4c-1.7,0-3.1,1.4-3.1,3.1c0,1.7,1.4,3.1,3.1,3.1c1.7,0,3.1-1.4,3.1-3.1C124.4,107.8,123,106.4,121.3,106.4z"
				/>
			<path d="M135,65.1c-1.7,0-3.1,1.4-3.1,3.1c0,1.7,1.4,3.1,3.1,3.1c1.7,0,3.1-1.4,3.1-3.1C138.1,66.4,136.7,65.1,135,65.1z"/>
			<path d="M128.2,92.6c-1.7,0-3.1,1.4-3.1,3.1c0,1.7,1.4,3.1,3.1,3.1c1.7,0,3.1-1.4,3.1-3.1C131.2,94,129.8,92.6,128.2,92.6z"/>
			<path d="M135,99.5c-1.7,0-3.1,1.4-3.1,3.1c0,1.7,1.4,3.1,3.1,3.1c1.7,0,3.1-1.4,3.1-3.1C138.1,100.9,136.7,99.5,135,99.5z"/>
			<path d="M135,92.6c-1.7,0-3.1,1.4-3.1,3.1c0,1.7,1.4,3.1,3.1,3.1c1.7,0,3.1-1.4,3.1-3.1C138.1,94,136.7,92.6,135,92.6z"/>
			<path d="M135,85.7c-1.7,0-3.1,1.4-3.1,3.1c0,1.7,1.4,3.1,3.1,3.1c1.7,0,3.1-1.4,3.1-3.1C138.1,87.1,136.7,85.7,135,85.7z"/>
			<path d="M135,78.8c-1.7,0-3.1,1.4-3.1,3.1c0,1.7,1.4,3.1,3.1,3.1c1.7,0,3.1-1.4,3.1-3.1C138.1,80.2,136.7,78.8,135,78.8z"/>
			<path d="M135,72c-1.7,0-3.1,1.4-3.1,3.1c0,1.7,1.4,3.1,3.1,3.1c1.7,0,3.1-1.4,3.1-3.1C138.1,73.3,136.7,72,135,72z"/>
			<path d="M128.2,99.5c-1.7,0-3.1,1.4-3.1,3.1c0,1.7,1.4,3.1,3.1,3.1c1.7,0,3.1-1.4,3.1-3.1C131.2,100.9,129.8,99.5,128.2,99.5z"/>
			<path d="M114.5,58.2c-1.7,0-3.1,1.4-3.1,3.1c0,1.7,1.4,3.1,3.1,3.1c1.7,0,3.1-1.4,3.1-3.1C117.5,59.6,116.2,58.2,114.5,58.2z"/>
			<path d="M128.2,58.2c-1.7,0-3.1,1.4-3.1,3.1c0,1.7,1.4,3.1,3.1,3.1c1.7,0,3.1-1.4,3.1-3.1C131.2,59.6,129.8,58.2,128.2,58.2z"/>
			<path d="M128.2,106.4c-1.7,0-3.1,1.4-3.1,3.1c0,1.7,1.4,3.1,3.1,3.1c1.7,0,3.1-1.4,3.1-3.1C131.2,107.8,129.8,106.4,128.2,106.4z
				"/>
			<path d="M128.2,65.1c-1.7,0-3.1,1.4-3.1,3.1c0,1.7,1.4,3.1,3.1,3.1c1.7,0,3.1-1.4,3.1-3.1C131.2,66.4,129.8,65.1,128.2,65.1z"/>
			<path d="M128.2,85.7c-1.7,0-3.1,1.4-3.1,3.1c0,1.7,1.4,3.1,3.1,3.1c1.7,0,3.1-1.4,3.1-3.1C131.2,87.1,129.8,85.7,128.2,85.7z"/>
			<path d="M121.3,113.3c-1.7,0-3.1,1.4-3.1,3.1c0,1.7,1.4,3.1,3.1,3.1c1.7,0,3.1-1.4,3.1-3.1C124.4,114.7,123,113.3,121.3,113.3z"
				/>
			<path d="M100.8,85.7c-1.7,0-3.1,1.4-3.1,3.1c0,1.7,1.4,3.1,3.1,3.1c1.7,0,3.1-1.4,3.1-3.1C103.8,87.1,102.5,85.7,100.8,85.7z"/>
			<circle cx="100.8" cy="95.7" r="3.1"/>
			<path d="M100.8,78.8c-1.7,0-3.1,1.4-3.1,3.1c0,1.7,1.4,3.1,3.1,3.1c1.7,0,3.1-1.4,3.1-3.1C103.8,80.2,102.5,78.8,100.8,78.8z"/>
			<circle cx="100.8" cy="75" r="3.1"/>
			<path d="M107.6,120.2c-1.7,0-3.1,1.4-3.1,3.1c0,1.7,1.4,3.1,3.1,3.1c1.7,0,3.1-1.4,3.1-3.1C110.7,121.6,109.3,120.2,107.6,120.2z
				"/>
			<path d="M93.9,92.6c-1.7,0-3.1,1.4-3.1,3.1c0,1.7,1.4,3.1,3.1,3.1c1.7,0,3.1-1.4,3.1-3.1C97,94,95.6,92.6,93.9,92.6z"/>
			<path d="M87.1,85.7c-1.7,0-3.1,1.4-3.1,3.1c0,1.7,1.4,3.1,3.1,3.1c1.7,0,3.1-1.4,3.1-3.1C90.2,87.1,88.8,85.7,87.1,85.7z"/>
			<path d="M107.6,113.3c-1.7,0-3.1,1.4-3.1,3.1c0,1.7,1.4,3.1,3.1,3.1c1.7,0,3.1-1.4,3.1-3.1C110.7,114.7,109.3,113.3,107.6,113.3z
				"/>
			<circle cx="100.8" cy="116.4" r="3.1"/>
			<path d="M93.9,85.7c-1.7,0-3.1,1.4-3.1,3.1c0,1.7,1.4,3.1,3.1,3.1c1.7,0,3.1-1.4,3.1-3.1C97,87.1,95.6,85.7,93.9,85.7z"/>
			<circle cx="100.8" cy="123.2" r="3.1"/>
			<path d="M114.5,85.7c-1.7,0-3.1,1.4-3.1,3.1c0,1.7,1.4,3.1,3.1,3.1c1.7,0,3.1-1.4,3.1-3.1C117.5,87.1,116.2,85.7,114.5,85.7z"/>
			<path d="M114.5,113.3c-1.7,0-3.1,1.4-3.1,3.1c0,1.7,1.4,3.1,3.1,3.1c1.7,0,3.1-1.4,3.1-3.1C117.5,114.7,116.2,113.3,114.5,113.3z
				"/>
			<path d="M114.5,120.2c-1.7,0-3.1,1.4-3.1,3.1c0,1.7,1.4,3.1,3.1,3.1c1.7,0,3.1-1.4,3.1-3.1C117.5,121.6,116.2,120.2,114.5,120.2z
				"/>
			<path d="M114.5,106.4c-1.7,0-3.1,1.4-3.1,3.1c0,1.7,1.4,3.1,3.1,3.1c1.7,0,3.1-1.4,3.1-3.1C117.5,107.8,116.2,106.4,114.5,106.4z
				"/>
			<path d="M114.5,92.6c-1.7,0-3.1,1.4-3.1,3.1c0,1.7,1.4,3.1,3.1,3.1c1.7,0,3.1-1.4,3.1-3.1C117.5,94,116.2,92.6,114.5,92.6z"/>
			<path d="M114.5,65.1c-1.7,0-3.1,1.4-3.1,3.1c0,1.7,1.4,3.1,3.1,3.1c1.7,0,3.1-1.4,3.1-3.1C117.5,66.4,116.2,65.1,114.5,65.1z"/>
			<path d="M107.6,85.7c-1.7,0-3.1,1.4-3.1,3.1c0,1.7,1.4,3.1,3.1,3.1c1.7,0,3.1-1.4,3.1-3.1C110.7,87.1,109.3,85.7,107.6,85.7z"/>
			<path d="M107.6,78.8c-1.7,0-3.1,1.4-3.1,3.1c0,1.7,1.4,3.1,3.1,3.1c1.7,0,3.1-1.4,3.1-3.1C110.7,80.2,109.3,78.8,107.6,78.8z"/>
			<path d="M107.6,106.4c-1.7,0-3.1,1.4-3.1,3.1c0,1.7,1.4,3.1,3.1,3.1c1.7,0,3.1-1.4,3.1-3.1C110.7,107.8,109.3,106.4,107.6,106.4z
				"/>
			<path d="M107.6,72c-1.7,0-3.1,1.4-3.1,3.1c0,1.7,1.4,3.1,3.1,3.1c1.7,0,3.1-1.4,3.1-3.1C110.7,73.3,109.3,72,107.6,72z"/>
			<path d="M107.6,65.1c-1.7,0-3.1,1.4-3.1,3.1c0,1.7,1.4,3.1,3.1,3.1c1.7,0,3.1-1.4,3.1-3.1C110.7,66.4,109.3,65.1,107.6,65.1z"/>
			<circle cx="176.1" cy="95.7" r="3.1"/>
			<path d="M162.4,85.7c-1.7,0-3.1,1.4-3.1,3.1c0,1.7,1.4,3.1,3.1,3.1c1.7,0,3.1-1.4,3.1-3.1C165.5,87.1,164.1,85.7,162.4,85.7z"/>
			<path d="M162.4,65.1c-1.7,0-3.1,1.4-3.1,3.1c0,1.7,1.4,3.1,3.1,3.1c1.7,0,3.1-1.4,3.1-3.1C165.5,66.4,164.1,65.1,162.4,65.1z"/>
			<path d="M162.4,106.4c-1.7,0-3.1,1.4-3.1,3.1c0,1.7,1.4,3.1,3.1,3.1c1.7,0,3.1-1.4,3.1-3.1C165.5,107.8,164.1,106.4,162.4,106.4z
				"/>
			<circle cx="162.4" cy="75" r="3.1"/>
			<path d="M162.4,78.8c-1.7,0-3.1,1.4-3.1,3.1c0,1.7,1.4,3.1,3.1,3.1c1.7,0,3.1-1.4,3.1-3.1C165.5,80.2,164.1,78.8,162.4,78.8z"/>
			<circle cx="162.4" cy="116.4" r="3.1"/>
			<circle cx="162.4" cy="123.2" r="3.1"/>
			<path d="M155.5,58.2c-1.7,0-3.1,1.4-3.1,3.1c0,1.7,1.4,3.1,3.1,3.1c1.7,0,3.1-1.4,3.1-3.1C158.6,59.6,157.2,58.2,155.5,58.2z"/>
			<path d="M155.5,65.1c-1.7,0-3.1,1.4-3.1,3.1c0,1.7,1.4,3.1,3.1,3.1c1.7,0,3.1-1.4,3.1-3.1C158.6,66.4,157.2,65.1,155.5,65.1z"/>
			<circle cx="155.5" cy="47.5" r="3.1"/>
			<path d="M182.9,85.7c-1.7,0-3.1,1.4-3.1,3.1c0,1.7,1.4,3.1,3.1,3.1c1.7,0,3.1-1.4,3.1-3.1C186,87.1,184.6,85.7,182.9,85.7z"/>
			<path d="M176.1,85.7c-1.7,0-3.1,1.4-3.1,3.1c0,1.7,1.4,3.1,3.1,3.1c1.7,0,3.1-1.4,3.1-3.1C179.1,87.1,177.8,85.7,176.1,85.7z"/>
			<path d="M155.5,85.7c-1.7,0-3.1,1.4-3.1,3.1c0,1.7,1.4,3.1,3.1,3.1c1.7,0,3.1-1.4,3.1-3.1C158.6,87.1,157.2,85.7,155.5,85.7z"/>
			<circle cx="169.2" cy="75" r="3.1"/>
			<path d="M135,28.6c-33.9,0-61.4,27.5-61.4,61.4s27.5,61.4,61.4,61.4c33.9,0,61.4-27.5,61.4-61.4S168.9,28.6,135,28.6z M135,146.8
				c-31.4,0-56.8-25.5-56.8-56.8c0-31.4,25.4-56.8,56.8-56.8c31.4,0,56.8,25.4,56.8,56.8C191.8,121.4,166.4,146.8,135,146.8z"/>
			<path d="M135,10c-44.2,0-80,35.8-80,80c0,44.2,35.8,80,80,80c44.2,0,80-35.8,80-80C215,45.8,179.2,10,135,10z M135,160.9
				c-39.2,0-70.9-31.7-70.9-70.9S95.8,19.1,135,19.1c39.2,0,70.9,31.7,70.9,70.9S174.2,160.9,135,160.9z"/>
			<path d="M169.2,78.8c-1.7,0-3.1,1.4-3.1,3.1c0,1.7,1.4,3.1,3.1,3.1c1.7,0,3.1-1.4,3.1-3.1C172.3,80.2,170.9,78.8,169.2,78.8z"/>
			<circle cx="169.2" cy="116.4" r="3.1"/>
			<circle cx="169.2" cy="95.7" r="3.1"/>
			<circle cx="169.2" cy="123.2" r="3.1"/>
			<path d="M169.2,85.7c-1.7,0-3.1,1.4-3.1,3.1c0,1.7,1.4,3.1,3.1,3.1c1.7,0,3.1-1.4,3.1-3.1C172.3,87.1,170.9,85.7,169.2,85.7z"/>
			<path d="M141.8,106.4c-1.7,0-3.1,1.4-3.1,3.1c0,1.7,1.4,3.1,3.1,3.1c1.7,0,3.1-1.4,3.1-3.1C144.9,107.8,143.5,106.4,141.8,106.4z
				"/>
			<path d="M141.8,85.7c-1.7,0-3.1,1.4-3.1,3.1c0,1.7,1.4,3.1,3.1,3.1c1.7,0,3.1-1.4,3.1-3.1C144.9,87.1,143.5,85.7,141.8,85.7z"/>
			<path d="M141.8,65.1c-1.7,0-3.1,1.4-3.1,3.1c0,1.7,1.4,3.1,3.1,3.1c1.7,0,3.1-1.4,3.1-3.1C144.9,66.4,143.5,65.1,141.8,65.1z"/>
			<path d="M141.8,58.2c-1.7,0-3.1,1.4-3.1,3.1c0,1.7,1.4,3.1,3.1,3.1c1.7,0,3.1-1.4,3.1-3.1C144.9,59.6,143.5,58.2,141.8,58.2z"/>
			<path d="M148.7,120.2c-1.7,0-3.1,1.4-3.1,3.1c0,1.7,1.4,3.1,3.1,3.1c1.7,0,3.1-1.4,3.1-3.1C151.8,121.6,150.4,120.2,148.7,120.2z
				"/>
			<path d="M148.7,106.4c-1.7,0-3.1,1.4-3.1,3.1c0,1.7,1.4,3.1,3.1,3.1c1.7,0,3.1-1.4,3.1-3.1C151.8,107.8,150.4,106.4,148.7,106.4z
				"/>
			<path d="M148.7,113.3c-1.7,0-3.1,1.4-3.1,3.1c0,1.7,1.4,3.1,3.1,3.1c1.7,0,3.1-1.4,3.1-3.1C151.8,114.7,150.4,113.3,148.7,113.3z
				"/>
			<circle cx="155.5" cy="95.7" r="3.1"/>
			<path d="M141.8,92.6c-1.7,0-3.1,1.4-3.1,3.1c0,1.7,1.4,3.1,3.1,3.1c1.7,0,3.1-1.4,3.1-3.1C144.9,94,143.5,92.6,141.8,92.6z"/>
			<path d="M135,58.2c-1.7,0-3.1,1.4-3.1,3.1c0,1.7,1.4,3.1,3.1,3.1c1.7,0,3.1-1.4,3.1-3.1C138.1,59.6,136.7,58.2,135,58.2z"/>
			<path d="M141.8,99.5c-1.7,0-3.1,1.4-3.1,3.1c0,1.7,1.4,3.1,3.1,3.1c1.7,0,3.1-1.4,3.1-3.1C144.9,100.9,143.5,99.5,141.8,99.5z"/>
			<path d="M135,51.3c-1.7,0-3.1,1.4-3.1,3.1c0,1.7,1.4,3.1,3.1,3.1c1.7,0,3.1-1.4,3.1-3.1C138.1,52.7,136.7,51.3,135,51.3z"/>
			<circle cx="155.5" cy="123.2" r="3.1"/>
			<path d="M148.7,44.4c-1.7,0-3.1,1.4-3.1,3.1c0,1.7,1.4,3.1,3.1,3.1c1.7,0,3.1-1.4,3.1-3.1C151.8,45.8,150.4,44.4,148.7,44.4z"/>
			<path d="M148.7,51.3c-1.7,0-3.1,1.4-3.1,3.1c0,1.7,1.4,3.1,3.1,3.1c1.7,0,3.1-1.4,3.1-3.1C151.8,52.7,150.4,51.3,148.7,51.3z"/>
			<circle cx="155.5" cy="116.4" r="3.1"/>
			<path d="M155.5,106.4c-1.7,0-3.1,1.4-3.1,3.1c0,1.7,1.4,3.1,3.1,3.1c1.7,0,3.1-1.4,3.1-3.1C158.6,107.8,157.2,106.4,155.5,106.4z
				"/>
			<path d="M148.7,99.5c-1.7,0-3.1,1.4-3.1,3.1c0,1.7,1.4,3.1,3.1,3.1c1.7,0,3.1-1.4,3.1-3.1C151.8,100.9,150.4,99.5,148.7,99.5z"/>
			<path d="M148.7,58.2c-1.7,0-3.1,1.4-3.1,3.1c0,1.7,1.4,3.1,3.1,3.1c1.7,0,3.1-1.4,3.1-3.1C151.8,59.6,150.4,58.2,148.7,58.2z"/>
			<path d="M148.7,85.7c-1.7,0-3.1,1.4-3.1,3.1c0,1.7,1.4,3.1,3.1,3.1c1.7,0,3.1-1.4,3.1-3.1C151.8,87.1,150.4,85.7,148.7,85.7z"/>
			<path d="M148.7,92.6c-1.7,0-3.1,1.4-3.1,3.1c0,1.7,1.4,3.1,3.1,3.1c1.7,0,3.1-1.4,3.1-3.1C151.8,94,150.4,92.6,148.7,92.6z"/>
			<path d="M148.7,65.1c-1.7,0-3.1,1.4-3.1,3.1c0,1.7,1.4,3.1,3.1,3.1c1.7,0,3.1-1.4,3.1-3.1C151.8,66.4,150.4,65.1,148.7,65.1z"/>
		</g>
	</g>
</g>
</svg>
