<svg version="1.1" id="sketch-arrow" xmlns="http://www.w3.org/2000/svg" xmlns:xlink="http://www.w3.org/1999/xlink" x="0px" y="0px"
	 viewBox="0 0 80 160" enable-background="new 0 0 80 160" xml:space="preserve">
    <g id="arrow-path">
		<path fill="#999999" d="M47.8,153.9C18.3,147,5.3,114.1,10.6,86.5c2.8-14.6,9.8-27.9,19.8-38.9c4.7-5.2,9.9-9.8,15.5-13.9
			c2.9-2.1,6-4.1,9.1-5.9c1.9-1.1,5-2,5.9-4.3c0.1-0.4-0.3-0.8-0.5-0.9c-1.2-1.1-2.8-1.5-4.4-1.2c-0.2,0.1-0.9,0.2-0.9,0.6
			c0,0.1,0,0.3,0,0.4c-0.1,1.7,4.7,2.7,4.8,1.3c-0.1,0-0.2,0-0.3,0c-1.1-0.3-2.3-0.6-3.4-0.9c-0.6-0.5-9.7,5.6-10.7,6.4
			c-3.1,2.1-6.1,4.3-9,6.7C30.5,40.6,25.2,46,20.7,52C11.3,64.5,5.3,79.5,4.6,95.2c-1.4,27.3,15.1,54.4,42.7,60.8
			C50.1,156.7,50.7,154.6,47.8,153.9L47.8,153.9z"/>
    </g>
    <g id="arrow-head">
		<path fill="#999999" d="M35.4,5.6c0-0.1-0.1-0.2-0.1-0.3c-0.4-0.9-1.7-1.3-2.7-1.3c-1.3,0.1-1.9,0.5-2.7,1.5
			c-0.3,0.4-0.2,1.1,0,1.5c1.3,2.2,3.7,2.6,6,3.3c4,1.3,8.1,2.3,12.2,3.3c8.7,2,17.5,3.2,26.4,3.8c-0.6-1.1-1.2-2.1-1.7-3.2
			c-9.5,12.3-15.7,26.4-18.1,41.7c-0.4,2.5,4.5,3.3,5,0.7c2.3-14.6,8.2-28.2,17.2-39.9c1.1-1.4-0.1-3.1-1.7-3.2
			c-7-0.5-14-1.3-21-2.7c-3.7-0.7-7.4-1.6-11-2.6c-1.8-0.5-3.5-1-5.3-1.6c-0.6-0.2-1.2-0.4-1.8-0.6c-1.8-1.1-2.2-0.9-1.3,0.6
			c-0.6,0.4-1.3,0.7-1.9,1.1c0.2,0,0.3,0,0.5,0c-0.9-0.4-1.8-0.9-2.7-1.3c0,0.1,0.1,0.2,0.1,0.3C31.8,9.1,36.6,8.2,35.4,5.6
			L35.4,5.6z"/>
    </g>
</svg>
