<svg version="1.1" id="Layer_1" xmlns="http://www.w3.org/2000/svg" xmlns:xlink="http://www.w3.org/1999/xlink" x="0px" y="0px"
	 viewBox="0 0 270 180" enable-background="new 0 0 270 180" xml:space="preserve">
<g>
	<g>
		<path d="M55,10v64.3l40.3,43.7l0,0l6-50.7l30.3,32.9l3.3-28.4l17.4-5.7l-8.4,72l-30.4-32.9l-5.9,50.7v0L55,98.8V170h160V10H55z
			 M178.1,109.1c-11.2,0-20.9-6.9-24.9-16.7l16.1-5.2c1.8,3.1,5,5.2,8.8,5.2c5.7,0,10.3-4.6,10.3-10.3c0-5.7-4.6-10.2-10.3-10.2
			c-0.8,0-1.6,0.1-2.3,0.3l-17.2,5.6l2.5-21.6l-25.3,8.2l2.1-17.5l41.2-13.4l-2.8,21.7h0.1c0.6,0,1.2-0.1,1.8-0.1
			c14.9,0,27,12.1,27,27C205.1,97,193,109.1,178.1,109.1z"/>
	</g>
</g>
</svg>