<svg version="1.1" id="Layer_1" xmlns="http://www.w3.org/2000/svg" xmlns:xlink="http://www.w3.org/1999/xlink" x="0px" y="0px"
	 viewBox="0 0 270 180" enable-background="new 0 0 270 180" xml:space="preserve">
<g>
	<g>
		<g>
			<g>
				<path d="M18,96.5v10.4C98.4,102.2,38.6,99.7,18,96.5z"/>
				<path d="M18,113.7v10.2l0.7,0.2C79.9,118.4,62.3,116.4,18,113.7z"/>
				<path d="M18,23.3v33.6c50.4-1.7,50.7-4.6,24.5-8l4.7-5.7c32.3,5,30.2,13.1,7.1,17.1c7.8,2.7,35.3,7.8,2,17.8
					c5.4,1.5,36,9-2,15.8c6,2.7,37.9,6.6,1.3,16.5c9.5,1.6,33.8,6.8,1.7,17.1c12.2,1.3,13.5,1.7,16.8,7.4v21.8h14.8V23.3H18z"/>
				<path d="M18,80.8v10.4C33.1,88.2,102.1,87,18,80.8z"/>
				<path d="M18,63v11C65.2,71.5,81.2,68.2,18,63z"/>
			</g>
			<g>
				<path d="M106.2,58.9h-8.1v-1.6H116v1.6h-8.1v21.5h-1.7V58.9z"/>
				<path d="M120.3,57.3h1.7V68h14.8V57.3h1.7v23.1h-1.7V69.6H122v10.8h-1.7V57.3z"/>
				<path d="M144.6,57.3H161v1.6h-14.7V68h13.3v1.6h-13.3v9.3h14.9v1.6h-16.6V57.3z"/>
				<path d="M99.3,93.7h7.7l4.6,15.2l5.1-15.2h6.3l5.1,15.2l4.6-15.2h7.5l-8.8,26.4h-6.3l-5.2-15.1l-5.3,15.1h-6.3L99.3,93.7z"/>
				<path d="M140,106.6L140,106.6c0-8,5.6-14.2,13.6-14.2c9.3,0,13.6,6.8,13.6,14.8c0,0.6,0,1.3-0.1,1.9h-18.1
					c0.8,2.9,2.9,4.4,5.8,4.4c2.3,0,4-0.8,6-2.7l5.2,4.3c-2.6,3.3-6.3,5.5-11.7,5.5C146,120.6,140,114.9,140,106.6z M158.4,104.3
					c-0.3-3-2.1-4.9-4.7-4.9c-2.5,0-4.2,1.9-4.7,4.9H158.4z"/>
				<path d="M172.3,93.7h13.4c3.3,0,5.6,0.8,7.2,2.3c1,1.1,1.7,2.5,1.7,4.3v0.1c0,3-1.7,4.8-4,5.8c3.2,1,5.2,2.8,5.2,6.4v0.1
					c0,4.5-3.7,7.2-9.9,7.2h-13.5V93.7z M187.5,101.8c0-1.5-1.2-2.2-3.3-2.2h-4.8v4.6h4.6C186.2,104.2,187.5,103.4,187.5,101.8
					L187.5,101.8z M185,109.3h-5.5v4.8h5.6c2.3,0,3.5-0.9,3.5-2.4v-0.1C188.5,110.2,187.4,109.3,185,109.3z"/>
				<path d="M201.4,93.7h13.4c3.3,0,5.6,0.8,7.2,2.3c1,1.1,1.7,2.5,1.7,4.3v0.1c0,3-1.7,4.8-4,5.8c3.2,1,5.2,2.8,5.2,6.4v0.1
					c0,4.5-3.7,7.2-9.9,7.2h-13.5V93.7z M216.5,101.8c0-1.5-1.2-2.2-3.3-2.2h-4.8v4.6h4.6C215.2,104.2,216.5,103.4,216.5,101.8
					L216.5,101.8z M214,109.3h-5.5v4.8h5.6c2.2,0,3.5-0.9,3.5-2.4v-0.1C217.6,110.2,216.4,109.3,214,109.3z"/>
				<path d="M234.8,110.1l-10-16.4h8.3l5.4,9.6l5.4-9.6h8.1l-10,16.3v9.9h-7.3V110.1z"/>
				<path d="M111.2,131.1h1.7l10.8,23.3h-1.9l-2.9-6.5h-13.7l-2.9,6.5h-1.8L111.2,131.1z M118,146.4L112,133l-6.1,13.4H118z"/>
				<path d="M123.5,131.3h1.9l7.3,20.6l6.8-20.7h1.3l6.8,20.7l7.3-20.6h1.8l-8.4,23.3h-1.4l-6.8-20.1l-6.8,20.1h-1.4L123.5,131.3z"
					/>
				<path d="M167.8,131.2h1.7l10.8,23.3h-1.9l-2.9-6.5h-13.6l-2.9,6.5H157L167.8,131.2z M174.6,146.4l-6.1-13.4l-6.1,13.4H174.6z"/>
				<path d="M184.2,131.3h9.7c2.8,0,5.1,0.9,6.5,2.3c1.1,1.1,1.7,2.6,1.7,4.3v0.1c0,3.9-2.9,6.1-6.8,6.6l7.6,9.9h-2.2l-7.4-9.6h-7.6
					v9.6h-1.7V131.3z M193.7,143.3c3.9,0,6.7-1.9,6.7-5.3v-0.1c0-3.1-2.4-5.1-6.6-5.1h-7.9v10.4H193.7z"/>
				<path d="M207.3,131.3h7.7c7.3,0,12.3,5,12.3,11.5v0.1c0,6.5-5,11.6-12.3,11.6h-7.7V131.3z M209,132.9v20h6
					c6.4,0,10.5-4.4,10.5-9.9v-0.1c0-5.5-4.1-10-10.5-10H209z"/>
				<path d="M230.4,151.1l1.1-1.3c2.5,2.3,4.9,3.4,8.3,3.4c3.5,0,5.8-2,5.8-4.6v-0.1c0-2.4-1.3-3.9-6.5-4.9c-5.5-1.1-7.8-3-7.8-6.5
					v-0.1c0-3.4,3.1-6.1,7.4-6.1c3.4,0,5.6,0.9,7.9,2.8l-1.1,1.4c-2.2-1.9-4.4-2.6-6.9-2.6c-3.4,0-5.7,1.9-5.7,4.4v0.1
					c0,2.4,1.3,3.9,6.7,5.1c5.4,1.1,7.6,3,7.6,6.4v0.1c0,3.7-3.2,6.3-7.7,6.3C236,154.8,233.2,153.5,230.4,151.1z"/>
			</g>
		</g>
	</g>
</g>
</svg>
