<svg id="baby" width="180" height="90" viewBox="0 0 180 90" xmlns="http://www.w3.org/2000/svg">
<path d="M80.56 23.27C80.42 25.49 79.46 27.65 77.68 29.75C75.92 31.52 74.16 33.28 72.39 35.01C72.61 35.58 73.09 35.95 73.84 36.13C74.58 36.3 75.29 36.47 75.97 36.64C79.61 38.19 81.69 40.42 82.21 43.34C82.61 45.59 82.2 47.79 81 49.95C80.08 51.62 78.58 53.36 76.5 55.19C74.8 56.63 73.11 58.06 71.41 59.5C70.99 59.86 70.5 60.09 69.95 60.18C68.65 60.41 67.65 60.04 66.95 59.06C66.45 55.74 65.94 52.43 65.45 49.15C64.83 45.2 64.48 41.91 64.38 39.29C63.46 38.88 62.93 38.33 62.81 37.62C62.75 37.27 62.84 36.91 63.08 36.57C63.32 36.22 63.67 35.83 64.12 35.38C63.54 29.31 62.66 23.78 61.5 18.78C59.59 18.75 58.22 18.14 57.4 16.94C57.33 16.79 57.36 16.54 57.48 16.19C57.6 15.84 57.64 15.57 57.61 15.37C58.4 14.54 59.34 14.03 60.45 13.83C61.24 13.69 63.09 13.63 66.02 13.64C67.52 13.62 69.13 13.88 70.85 14.43C75.49 15.89 78.37 17.59 79.49 19.55C80.25 20.97 80.61 22.2 80.56 23.27ZM74.48 21.29C74.03 19.87 72.65 18.95 70.34 18.55C70 18.49 69.47 18.32 68.73 18.04C68.2 17.81 67.78 17.72 67.46 17.78C67.3 17.81 67.13 17.88 66.95 17.99C67.03 18.67 67.14 19.38 67.27 20.13C67.45 21.15 67.83 22.87 68.42 25.29C68.93 27.52 69.28 29.26 69.47 30.53C69.74 30.48 70.12 30.2 70.6 29.69C71.08 29.18 71.35 28.9 71.43 28.84C72.51 28.08 73.39 26.97 74.07 25.51C74.75 24.05 74.88 22.65 74.48 21.29ZM76.79 44.77C76.79 44.32 76.76 43.9 76.69 43.51C76.48 42.33 75.92 41.35 75.02 40.58C72.84 39.95 71.47 39.68 70.92 39.78C70.6 39.84 70.32 39.95 70.06 40.11C70.17 40.5 70.27 40.93 70.35 41.4C70.5 42.23 70.61 43.52 70.7 45.27C70.78 47.02 70.9 48.33 71.06 49.2C71.28 50.46 71.64 51.57 72.14 52.54C72.52 51.9 73.15 51.19 74.05 50.41C74.95 49.62 75.55 48.96 75.86 48.41C76.41 47.46 76.73 46.24 76.79 44.77Z"/>
<path d="M108.28 41.96C108.63 42.55 108.84 43.08 108.93 43.55C109.07 44.34 108.86 45.09 108.29 45.8C107.72 46.51 107.32 46.86 107.08 46.87C105.09 46.86 103.59 45.52 102.59 42.85C101.51 39.95 100.42 37.57 99.32 35.69C98 36.04 96.68 36.4 95.36 36.75C93.86 37.22 92.74 37.9 92.01 38.8C91.79 40.1 91.6 42.36 91.44 45.6C91.28 48.59 91.01 50.89 90.65 52.5C90.46 53.26 89.83 53.58 88.75 53.45C87.37 53.24 86.58 52.78 86.37 52.04C85.99 50.56 86.07 48.48 86.61 45.78C87.28 42.7 87.57 40.53 87.48 39.29C87.46 38.93 87.13 38.58 86.5 38.24C85.87 37.9 85.54 37.62 85.5 37.38C85.46 37.18 85.52 36.96 85.66 36.71C85.8 36.46 86.18 36.21 86.81 35.96C87.44 35.71 87.76 35.44 87.79 35.15C88.15 33.06 88.63 29.19 89.22 23.57C89.7 18.69 90.23 14.92 90.82 12.26C90.96 11.67 91.4 11.3 92.15 11.17C92.7 11.07 93.23 11.16 93.72 11.44C94.99 12.19 95.95 13.48 96.6 15.32C97.12 16.89 97.62 18.47 98.1 20.05C101.69 29.01 105.09 36.31 108.28 41.96ZM97.67 32.19C97.29 30.75 96.75 29.16 96.04 27.42C95.37 25.91 94.72 24.4 94.08 22.89C93.47 26.37 93.03 29.82 92.74 33.24C93.34 33.02 94.99 32.67 97.67 32.19Z"/>
<path d="M126.64 15.14C126.5 17.36 125.54 19.52 123.76 21.62C122 23.39 120.24 25.15 118.47 26.88C118.69 27.45 119.17 27.82 119.92 28C120.66 28.17 121.37 28.34 122.05 28.51C125.69 30.06 127.77 32.29 128.29 35.21C128.68 37.46 128.28 39.66 127.08 41.82C126.15 43.49 124.66 45.23 122.58 47.06C120.88 48.5 119.19 49.93 117.49 51.37C117.07 51.73 116.58 51.96 116.03 52.05C114.73 52.28 113.73 51.91 113.03 50.93C112.52 47.61 112.02 44.3 111.53 41.02C110.91 37.07 110.56 33.78 110.46 31.16C109.54 30.76 109.01 30.2 108.89 29.49C108.83 29.14 108.92 28.78 109.16 28.44C109.4 28.09 109.75 27.7 110.2 27.25C109.62 21.18 108.74 15.65 107.58 10.65C105.67 10.62 104.3 10.01 103.48 8.81001C103.41 8.66001 103.44 8.41001 103.56 8.06001C103.68 7.71001 103.73 7.44001 103.69 7.25001C104.48 6.42001 105.42 5.91001 106.53 5.71001C107.04 5.62001 107.73 5.58001 108.58 5.59001C109.8 5.58001 110.59 5.56001 110.95 5.54001C112.88 5.44001 114.88 5.70001 116.93 6.31001C121.57 7.77001 124.45 9.47001 125.57 11.43C126.34 12.84 126.7 14.08 126.64 15.14ZM120.57 13.17C120.12 11.75 118.74 10.83 116.43 10.43C116.09 10.37 115.56 10.2 114.82 9.92001C114.29 9.69001 113.87 9.60001 113.56 9.66001C113.4 9.69001 113.23 9.76001 113.05 9.87001C113.13 10.55 113.23 11.26 113.37 12.01C113.55 13.03 113.93 14.75 114.52 17.17C115.03 19.39 115.38 21.14 115.57 22.41C115.85 22.36 116.22 22.08 116.7 21.57C117.18 21.06 117.45 20.78 117.53 20.72C118.61 19.96 119.49 18.85 120.17 17.39C120.83 15.92 120.97 14.52 120.57 13.17ZM122.88 36.64C122.88 36.19 122.85 35.77 122.78 35.38C122.57 34.2 122.01 33.22 121.11 32.45C118.93 31.82 117.56 31.55 117.01 31.65C116.7 31.71 116.41 31.82 116.15 31.98C116.26 32.37 116.36 32.8 116.44 33.27C116.59 34.1 116.7 35.39 116.79 37.14C116.87 38.89 116.99 40.2 117.15 41.07C117.37 42.33 117.73 43.45 118.23 44.41C118.61 43.77 119.24 43.06 120.14 42.28C121.03 41.49 121.64 40.83 121.95 40.28C122.5 39.33 122.81 38.12 122.88 36.64Z"/>
<path d="M146.63 2.05001C146.31 6.70001 145.3 12.84 143.61 20.5C141.61 29.42 140.39 35.55 139.97 38.87C139.88 39.53 139.93 40.34 140.09 41.29C140.36 42.58 140.5 43.41 140.53 43.77C140.65 45.17 140.05 45.99 138.71 46.22C138.05 46.42 137.3 46.32 136.43 45.92C135.57 45.52 135.1 45.03 135.04 44.43C134.65 41.53 134.8 38.12 135.49 34.18C136.16 30.81 136.82 27.45 137.49 24.08C133.37 17.09 130.02 12.03 127.44 8.91001C127.29 8.73001 127.19 8.55001 127.16 8.35001C127.08 7.92001 127.26 7.47001 127.69 7.01001C128.12 6.55001 128.57 6.28001 129.04 6.19001C129.12 6.18001 129.91 6.26001 131.4 6.44001C132.65 7.76001 134.02 9.51001 135.5 11.69C136.76 13.54 138 15.39 139.22 17.25C139.59 14.75 139.96 12.27 140.34 9.80001C140.77 6.92001 141.38 4.50001 142.17 2.53001C142.39 1.92001 142.89 1.55001 143.68 1.41001C144.76 1.22001 145.75 1.44001 146.63 2.05001Z"/>
<path d="M4.10999 88.83C2.81999 88.83 1.71999 87.83 1.61999 86.52C1.51999 85.14 2.54999 83.94 3.91999 83.84C10.61 83.34 16.24 82.73 22.21 82.08C44.17 79.71 71.49 76.76 176.02 76.5C176.02 76.5 176.02 76.5 176.03 76.5C177.41 76.5 178.53 77.62 178.53 78.99C178.53 80.37 177.42 81.49 176.04 81.5C71.77 81.76 44.59 84.7 22.75 87.05C16.74 87.7 11.07 88.31 4.29999 88.82C4.23999 88.83 4.17999 88.83 4.10999 88.83Z"/>
</svg>
