<svg version="1.1" id="bwd" xmlns="http://www.w3.org/2000/svg" xmlns:xlink="http://www.w3.org/1999/xlink" x="0px"
	 y="0px" viewBox="0 0 90 60" enable-background="new 0 0 90 60" xml:space="preserve">
<g>
	<g>
		<path fill-rule="evenodd" clip-rule="evenodd" fill="#99AA22" d="M22.9,42.7h1.2v4.2c0.3-0.4,0.8-0.8,1.3-1c0.5-0.2,1-0.3,1.7-0.3
			c1.3,0,2.3,0.4,2.9,1.1c0.6,0.8,0.9,2,0.9,3.7v4.8h-1.2v-4.8c0-1.4-0.2-2.3-0.6-2.9c-0.4-0.5-1.1-0.8-2.1-0.8
			c-0.6,0-1,0.1-1.5,0.3c-0.4,0.2-0.7,0.5-1,1c-0.2,0.3-0.3,0.6-0.3,0.9c-0.1,0.3-0.1,0.9-0.1,1.7v4.6h-1.2V42.7z M18.8,55.3V47H17
			v-1.2h1.8v-3.1h1.2v3.1h1.8V47h-1.8v8.3H18.8z M14.8,55.3v-9.5h1.2v9.5H14.8z M16.1,44.7h-1.2v-2h1.2V44.7z M10.4,52.9l2.3-7.1
			h1.3l-3.2,9.5H9.9L7.7,48l-2.2,7.2H4.7l-3.2-9.5h1.3l2.3,7.1l2.2-7.1h0.9L10.4,52.9z"/>
		<path fill-rule="evenodd" clip-rule="evenodd" fill="#99AA22" d="M82.3,47.2v0.3c0.4-0.5,0.9-1,1.4-1.2c0.5-0.3,1.1-0.4,1.7-0.4
			c0.6,0,1.2,0.1,1.7,0.4c0.5,0.3,0.9,0.7,1.1,1.1c0.2,0.3,0.3,0.6,0.3,0.9c0,0.3,0.1,0.8,0.1,1.3v4.4c0,0.5-0.1,0.8-0.3,1.1
			c-0.2,0.2-0.5,0.4-0.8,0.4c-0.3,0-0.6-0.1-0.9-0.4c-0.2-0.2-0.3-0.6-0.3-1.1v-3.9c0-0.8-0.1-1.4-0.3-1.8c-0.2-0.4-0.6-0.6-1.3-0.6
			c-0.4,0-0.8,0.1-1.1,0.4c-0.3,0.3-0.6,0.6-0.8,1c-0.1,0.3-0.2,1-0.2,2v3c0,0.5-0.1,0.8-0.3,1.1c-0.2,0.2-0.5,0.4-0.9,0.4
			c-0.3,0-0.6-0.1-0.8-0.4c-0.2-0.2-0.3-0.6-0.3-1.1v-6.8c0-0.5,0.1-0.8,0.3-1c0.2-0.2,0.5-0.3,0.8-0.3c0.2,0,0.4,0,0.6,0.1
			c0.2,0.1,0.3,0.2,0.4,0.4C82.2,46.7,82.3,46.9,82.3,47.2z M70.9,50.6c0,1,0.2,1.7,0.6,2.2c0.4,0.5,1,0.7,1.6,0.7
			c0.4,0,0.8-0.1,1.1-0.3c0.4-0.2,0.6-0.5,0.9-1c0.2-0.4,0.3-0.9,0.3-1.5c0-1-0.2-1.7-0.6-2.2c-0.4-0.5-1-0.8-1.7-0.8
			c-0.7,0-1.2,0.2-1.6,0.8C71.1,48.9,70.9,49.7,70.9,50.6z M77.7,47.6v6.9c0,0.8-0.1,1.5-0.3,2c-0.2,0.6-0.4,1-0.8,1.4
			c-0.4,0.4-0.9,0.6-1.5,0.8C74.6,58.9,73.9,59,73,59c-0.8,0-1.5-0.1-2.2-0.3c-0.6-0.2-1.1-0.5-1.5-0.9c-0.3-0.4-0.5-0.7-0.5-1.1
			c0-0.3,0.1-0.5,0.3-0.7c0.2-0.2,0.4-0.3,0.7-0.3c0.3,0,0.6,0.2,0.9,0.5l0.4,0.5c0.1,0.2,0.3,0.3,0.4,0.4c0.2,0.1,0.4,0.2,0.6,0.3
			c0.2,0.1,0.5,0.1,0.8,0.1c0.6,0,1.1-0.1,1.4-0.2c0.3-0.2,0.6-0.4,0.7-0.7c0.1-0.3,0.2-0.6,0.2-1c0-0.3,0-0.9,0.1-1.7
			c-0.4,0.5-0.8,0.9-1.3,1.2c-0.5,0.3-1,0.4-1.7,0.4c-0.8,0-1.5-0.2-2.1-0.6c-0.6-0.4-1.1-1-1.4-1.7c-0.3-0.7-0.5-1.6-0.5-2.5
			c0-0.7,0.1-1.4,0.3-1.9c0.2-0.6,0.5-1,0.8-1.4c0.4-0.4,0.8-0.7,1.2-0.9c0.5-0.2,1-0.3,1.5-0.3c0.7,0,1.2,0.1,1.7,0.4
			c0.5,0.3,0.9,0.7,1.4,1.2v-0.3c0-0.4,0.1-0.7,0.3-1c0.2-0.2,0.5-0.3,0.8-0.3c0.5,0,0.8,0.2,0.9,0.4C77.7,46.6,77.7,47.1,77.7,47.6
			z M65.4,44.8c-0.3,0-0.6-0.1-0.8-0.3c-0.2-0.2-0.3-0.5-0.3-0.9c0-0.3,0.1-0.6,0.4-0.8c0.2-0.2,0.5-0.3,0.8-0.3
			c0.3,0,0.6,0.1,0.8,0.3c0.2,0.2,0.4,0.5,0.4,0.8c0,0.4-0.1,0.6-0.3,0.8C66,44.7,65.8,44.8,65.4,44.8z M66.6,47.2v6.8
			c0,0.5-0.1,0.8-0.3,1.1c-0.2,0.2-0.5,0.4-0.9,0.4c-0.3,0-0.6-0.1-0.8-0.4c-0.2-0.2-0.3-0.6-0.3-1.1v-6.8c0-0.5,0.1-0.8,0.3-1.1
			c0.2-0.2,0.5-0.4,0.8-0.4c0.3,0,0.6,0.1,0.9,0.4C66.5,46.5,66.6,46.8,66.6,47.2z M62.2,52.4c0,0.7-0.2,1.2-0.5,1.7
			c-0.3,0.5-0.8,0.8-1.4,1.1c-0.6,0.2-1.4,0.4-2.3,0.4c-0.8,0-1.6-0.1-2.2-0.4c-0.6-0.2-1.1-0.6-1.3-1c-0.3-0.4-0.4-0.8-0.4-1.2
			c0-0.3,0.1-0.5,0.3-0.7c0.2-0.2,0.4-0.3,0.7-0.3c0.2,0,0.4,0.1,0.6,0.2c0.1,0.1,0.3,0.3,0.4,0.5c0.2,0.4,0.5,0.7,0.9,0.9
			c0.3,0.2,0.8,0.3,1.4,0.3c0.5,0,0.9-0.1,1.2-0.3c0.3-0.2,0.5-0.5,0.5-0.7c0-0.4-0.2-0.7-0.5-0.9c-0.3-0.2-0.8-0.4-1.5-0.5
			c-0.8-0.2-1.5-0.4-2-0.6c-0.5-0.2-0.9-0.5-1.2-0.9c-0.3-0.4-0.5-0.8-0.5-1.3c0-0.5,0.1-0.9,0.4-1.3c0.3-0.4,0.7-0.8,1.2-1
			c0.5-0.2,1.2-0.4,2-0.4c0.6,0,1.2,0.1,1.6,0.2c0.5,0.1,0.9,0.3,1.2,0.5c0.3,0.2,0.6,0.4,0.7,0.7c0.2,0.2,0.2,0.5,0.2,0.8
			c0,0.3-0.1,0.5-0.3,0.7c-0.2,0.2-0.4,0.3-0.8,0.3c-0.2,0-0.4-0.1-0.6-0.2c-0.2-0.1-0.4-0.3-0.6-0.6c-0.2-0.2-0.4-0.4-0.6-0.6
			c-0.2-0.1-0.6-0.2-1-0.2c-0.4,0-0.8,0.1-1.1,0.3c-0.3,0.2-0.4,0.4-0.4,0.7c0,0.3,0.1,0.4,0.3,0.6c0.2,0.2,0.5,0.3,0.8,0.4
			c0.4,0.1,0.8,0.2,1.5,0.4c0.7,0.2,1.3,0.4,1.8,0.6c0.5,0.2,0.8,0.5,1.1,0.9C62.1,51.6,62.2,52,62.2,52.4z M46.1,49.9h4.3
			c-0.1-0.8-0.3-1.4-0.7-1.8c-0.4-0.4-0.9-0.6-1.5-0.6c-0.6,0-1.1,0.2-1.5,0.6C46.4,48.5,46.1,49.1,46.1,49.9z M50.7,51.3h-4.6
			c0,0.5,0.1,1,0.3,1.4c0.2,0.4,0.5,0.7,0.8,0.9c0.3,0.2,0.7,0.3,1.2,0.3c0.3,0,0.5,0,0.8-0.1c0.2-0.1,0.5-0.2,0.7-0.3
			c0.2-0.1,0.4-0.3,0.6-0.4c0.2-0.2,0.4-0.4,0.7-0.7c0.1-0.1,0.3-0.2,0.5-0.2c0.2,0,0.4,0.1,0.6,0.2c0.2,0.1,0.2,0.3,0.2,0.6
			c0,0.2-0.1,0.5-0.2,0.7c-0.2,0.3-0.4,0.6-0.8,0.8c-0.3,0.3-0.8,0.5-1.3,0.7c-0.5,0.2-1.1,0.3-1.8,0.3c-1.5,0-2.7-0.4-3.5-1.3
			c-0.8-0.9-1.3-2-1.3-3.5c0-0.7,0.1-1.3,0.3-1.9c0.2-0.6,0.5-1.1,0.9-1.5c0.4-0.4,0.9-0.8,1.5-1c0.6-0.2,1.2-0.3,1.9-0.3
			c0.9,0,1.7,0.2,2.4,0.6c0.7,0.4,1.2,0.9,1.5,1.5c0.3,0.6,0.5,1.2,0.5,1.9c0,0.6-0.2,1-0.5,1.1C51.8,51.2,51.3,51.3,50.7,51.3z
			 M34.8,50.7c0,0.6,0.1,1.2,0.3,1.6c0.2,0.5,0.5,0.8,0.8,1c0.3,0.2,0.7,0.3,1.1,0.3c0.4,0,0.8-0.1,1.1-0.3c0.3-0.2,0.6-0.6,0.8-1
			c0.2-0.5,0.3-1,0.3-1.7c0-0.6-0.1-1.2-0.3-1.6c-0.2-0.4-0.5-0.8-0.8-1c-0.4-0.2-0.7-0.4-1.1-0.4c-0.4,0-0.8,0.1-1.2,0.4
			c-0.3,0.2-0.6,0.6-0.8,1.1C34.9,49.5,34.8,50.1,34.8,50.7z M39.5,54.1v-0.2c-0.3,0.4-0.6,0.7-0.9,0.9c-0.3,0.2-0.6,0.4-1,0.5
			c-0.4,0.1-0.7,0.2-1.2,0.2c-0.6,0-1.1-0.1-1.6-0.4c-0.5-0.2-0.9-0.6-1.3-1c-0.4-0.4-0.6-1-0.8-1.6c-0.2-0.6-0.3-1.2-0.3-1.9
			c0-1.5,0.4-2.6,1.1-3.5c0.7-0.8,1.7-1.2,2.8-1.2c0.7,0,1.3,0.1,1.7,0.4c0.5,0.2,0.9,0.6,1.4,1.1v-3.5c0-0.5,0.1-0.9,0.3-1.1
			c0.2-0.2,0.5-0.4,0.8-0.4c0.4,0,0.6,0.1,0.8,0.3c0.2,0.2,0.3,0.6,0.3,1v10.4c0,0.5-0.1,0.8-0.3,1c-0.2,0.2-0.5,0.3-0.8,0.3
			c-0.3,0-0.6-0.1-0.8-0.3C39.6,54.9,39.5,54.6,39.5,54.1z"/>
	</g>
	<path fill="#99AA22" d="M63.7,12.4C63.7,12.4,63.7,12.3,63.7,12.4c-1.4,0-2.7,0.3-4,0.8c-1.3,0.6-2.4,1.3-3.4,2.4l-0.1,0.1
		C53.6,9.4,47.5,5,40.3,5c-3.9,0-7.6,1.3-10.5,3.5c-0.2-0.4-0.4-0.9-0.6-1.4c-1.5-4.8-5.8-6.4-8.9-6.2c0,0,5.5,1,7.4,4.8
		C28.3,7,28.6,8.1,29,9.2c-2.1,1.8-3.7,4-4.7,6.5c-2.5-2.2-5.4-3.4-8.9-3.4c-2.9,0-5.5,0.7-7.7,2.2V1H1.5v25.1c0,3.7,1.3,6.9,4,9.6
		c2.7,2.7,5.9,4,9.6,4c3.8,0,7.1-1.3,9.8-4c0.8-0.8,1.4-1.6,2-2.4c3.2,3.9,8,6.4,13.4,6.4c5.4,0,10.1-2.4,13.3-6.2v5.5h6.2V26.8
		c0-1.6,0.1-2.8,0.2-3.7c0.1-0.9,0.4-1.7,0.9-2.4c0.5-0.7,1.1-1.3,1.8-1.7c0.7-0.4,1.5-0.5,2.3-0.6v0h0.4v-6.1L63.7,12.4L63.7,12.4z
		 M20.6,31.5c-1.4,1.4-3.2,2.2-5.5,2.2c-2.1,0-3.8-0.7-5.3-2.2c-1.4-1.5-2.2-3.3-2.2-5.3c0-2,0.8-3.8,2.3-5.3
		c1.5-1.6,3.2-2.3,5.2-2.3c2.1,0,3.9,0.8,5.4,2.3c1.5,1.5,2.2,3.3,2.2,5.4C22.7,28.3,22,30.1,20.6,31.5z M40.3,32.2
		c-5.4,0-9.8-4.4-9.8-9.8c0-2.4,0.9-4.6,2.3-6.4c0.2,0.3,0.5,0.6,0.8,0.9c1.7,1.7,3.9,2.3,4.9,1.3c1-1,0.4-3.2-1.3-4.9l-0.2-0.2
		c1-0.4,2.2-0.6,3.3-0.6c5.4,0,9.8,4.4,9.8,9.8C50.1,27.8,45.7,32.2,40.3,32.2z M77.2,12.2c-6.2,0-11.3,5.1-11.3,11.3v15.4H72V23.5
		c0-2.8,2.3-5.1,5.1-5.1c2.8,0,5.1,2.3,5.1,5.1v15.4h6.2V23.5C88.5,17.3,83.4,12.2,77.2,12.2z"/>
</g>
</svg>
