<svg id="done" width="180" height="98" viewBox="0 0 180 98" xmlns="http://www.w3.org/2000/svg">
<path d="M60.088 45.5262C59.8034 46.7387 59.5312 47.9389 59.2961 49.139C58.9373 50.5619 58.4919 51.7126 57.9475 52.6158C56.7721 54.781 55.5967 56.9215 54.4089 59.0496C52.9984 61.6107 51.6498 63.4543 50.3383 64.5926C49.9547 65.2607 49.5217 65.9659 49.0515 66.7083C48.5814 67.4507 48.0493 67.859 47.4678 67.9703C47.1709 68.0198 46.8244 68.0074 46.4038 67.9332C45.9831 67.859 45.5253 67.76 45.0304 67.6486C44.5355 67.5373 44.1519 67.2774 43.8674 66.8691C43.3601 64.8524 42.9023 62.6624 42.494 60.324C42.0733 57.936 41.5413 54.3603 40.8979 49.5968C40.2545 44.8333 39.7349 41.2576 39.3018 38.8697C38.745 35.7023 38.114 32.8194 37.3964 30.2335C37.3346 30.1964 36.7036 29.7262 35.491 28.8354C34.7487 28.3157 34.328 27.7837 34.229 27.2517C34.1919 27.0042 34.1919 26.7568 34.2538 26.4969C34.3899 25.8659 34.8724 25.4329 35.6766 25.1854C36.2952 24.9751 36.9139 24.7895 37.5449 24.6287C41.7887 24.7895 46.4904 26.3237 51.6251 29.2313C52.9613 29.9984 54.0996 30.8521 55.0152 31.7925C57.9599 34.8362 59.7044 37.8798 60.2365 40.8988C60.521 42.4578 60.4715 44.0043 60.088 45.5262ZM53.4438 38.6346C52.4664 35.6404 49.3732 33.4009 44.189 31.9038C45.2778 40.1069 46.7131 48.7431 48.4576 57.8371C52.9984 51.3537 54.8172 45.6375 53.9511 40.6637C53.8274 39.9708 53.6542 39.3027 53.4438 38.6346Z"/>
<path d="M89.3866 40.7379C87.6544 47.7285 84.2643 52.2941 79.2162 54.4469C78.6099 54.7067 77.9913 54.8923 77.3479 55.0037C74.5764 55.4986 71.4956 54.4717 68.1426 51.9476C65.8784 50.2402 64.4679 47.7409 63.8864 44.4869C63.2554 40.8864 63.639 36.8158 65.0494 32.2997C65.6681 30.382 66.5218 28.6745 67.6106 27.1774C68.8602 25.3958 70.1594 24.3936 71.5204 24.1461C72.2999 24.01 73.0793 24.1709 73.8712 24.641C74.6507 25.1112 76.6179 25.569 79.773 26.0144C82.2475 26.3856 84.1406 27.4001 85.4397 29.0828C87.7163 32.0523 89.0649 34.7001 89.4856 37.0385C89.7207 38.3376 89.6835 39.5749 89.3866 40.7379ZM82.7424 37.2365C81.7774 33.735 80.4535 31.7925 78.7708 31.3842C78.511 31.3347 78.2759 31.3223 78.0903 31.3594C77.5088 31.4584 76.8654 32.077 76.1478 33.203C75.3683 34.5021 74.7373 35.2939 74.23 35.5785C73.9083 35.7889 73.401 35.727 72.6958 35.3929C71.9782 35.0712 71.5328 34.9228 71.3348 34.9599C71.1863 34.9846 71.075 35.0589 71.0007 35.1702C69.5531 36.9395 69.0953 39.3522 69.6397 42.4206C70.0109 44.5116 70.8151 46.2067 72.04 47.4935C73.7598 49.2504 75.0837 50.0422 75.9993 49.8814C78.1398 49.4978 79.9833 47.8028 81.5052 44.7591C82.9651 41.901 83.3734 39.3893 82.7424 37.2365Z"/>
<path d="M118.574 6.19331C119.044 12.8498 119.539 19.5187 120.071 26.2124C120.615 34.1557 121.358 40.7379 122.273 45.9469C122.57 47.6543 122.917 49.3246 123.313 50.9702C123.498 51.7373 123.337 52.4673 122.83 53.1602C122.323 53.853 121.679 54.2737 120.9 54.4098C119.39 54.682 117.943 53.8778 116.557 52.0095C112.363 46.4665 106.807 37.5953 99.8787 25.3958C99.7302 25.1236 99.5817 24.9998 99.4332 25.0246C99.0868 25.0865 98.9383 25.47 98.9507 26.1629C99.3466 33.2772 100.237 40.6885 101.586 48.3843C102.242 52.0837 102.997 55.845 103.875 59.6682C104.172 61.0787 103.925 62.118 103.145 62.8109C102.86 63.2068 102.526 63.4419 102.143 63.5161C101.796 63.578 101.339 63.5038 100.757 63.3058C99.9653 63.0955 99.458 62.9594 99.2477 62.8975C98.5795 62.8109 98.0846 62.3036 97.7629 61.3509C97.5773 60.5838 97.3917 59.7796 97.1938 58.963C96.5628 56.2533 95.9936 53.42 95.4616 50.4505C94.546 45.2911 93.7047 38.7707 92.9252 30.9264C91.7745 18.9743 91.1311 12.3426 91.0074 11.0682C90.8713 9.99173 91.6755 9.28649 93.4325 8.97717C94.2491 8.72972 95.573 9.12564 97.4041 10.165C99.4951 12.8622 102.267 17.3535 105.731 23.6265C109.047 29.6272 111.905 34.1185 114.293 37.1127C113.885 30.5057 113.303 20.5085 112.548 7.12126C112.524 6.11907 113.142 5.51281 114.404 5.2901C114.837 5.21586 115.369 5.19112 115.976 5.24061C116.792 5.30247 117.275 5.33959 117.436 5.36433C117.968 5.45094 118.339 5.73552 118.574 6.19331Z"/>
<path d="M148.825 8.85344C147.155 9.90512 144.643 11.229 141.303 12.8127C137.962 14.3964 135.463 15.7327 133.78 16.772C133.57 18.1206 133.743 21.0034 134.324 25.4205C135.153 25.569 136.081 25.5566 137.108 25.3834C137.838 25.2597 138.964 24.9256 140.474 24.4059C141.995 23.8863 143.109 23.5646 143.851 23.4285C145.212 23.1934 146.437 23.28 147.514 23.6883C148.367 24.542 148.813 25.1112 148.875 25.4081C148.937 25.7546 148.813 26.0515 148.503 26.299C148.417 26.3608 148.132 26.7691 147.662 27.4991C147.353 28.0064 146.895 28.291 146.301 28.3405C145.324 28.7611 143.468 29.2437 140.746 29.7757C138.457 30.2335 136.688 30.8398 135.413 31.6192C135.129 35.3929 135.166 38.3253 135.537 40.4163C135.784 41.8267 136.18 42.9155 136.712 43.6703C139.286 44.8704 143.381 44.8581 148.986 43.6208C149.37 43.5466 149.753 43.2991 150.137 42.8537C150.508 42.4083 150.842 42.1608 151.139 42.1113C152.45 41.5793 153.539 42.4454 154.381 44.7096C154.665 45.4643 154.653 46.2067 154.356 46.9367C154.059 47.6667 153.527 48.1245 152.747 48.31C146.883 49.5473 141.686 49.9804 137.145 49.6339C135.722 49.5349 134.349 49.0029 133.013 48.0255C131.689 47.048 130.823 45.8479 130.415 44.4126C129.227 40.243 128.559 36.4446 128.41 33.005C126.888 32.3245 126.109 31.5203 126.109 30.6171C126.084 30.1716 126.381 29.7015 127.024 29.2066C127.668 28.7117 128.002 28.2662 128.027 27.8579C128.051 27.4496 127.841 25.0988 127.383 20.8055C124.562 20.756 123.04 19.9641 122.818 18.4423C122.62 17.0194 123.275 15.745 124.785 14.6315C126.233 13.7283 127.68 12.8127 129.128 11.9095C130.761 10.6722 132.889 9.43495 135.487 8.22243C137.764 7.17075 140.041 6.13144 142.329 5.12925C142.565 5.04264 142.849 4.95603 143.196 4.90654C144.507 4.67146 146.14 4.91891 148.07 5.62416C148.157 5.80975 148.343 6.15618 148.627 6.65109C148.912 7.15837 149.085 7.52955 149.122 7.76464C149.233 8.19768 149.122 8.54412 148.825 8.85344Z"/>
<path d="M4.10999 95.33C2.81999 95.33 1.71999 94.33 1.61999 93.02C1.51999 91.64 2.54999 90.44 3.91999 90.34C10.61 89.84 16.24 89.23 22.21 88.58C44.17 86.21 71.5 83.26 176.02 83C176.02 83 176.02 83 176.03 83C177.41 83 178.53 84.12 178.53 85.49C178.53 86.87 177.42 87.99 176.04 88C71.78 88.26 44.6 91.2 22.75 93.55C16.74 94.2 11.07 94.81 4.29999 95.32C4.23999 95.33 4.17999 95.33 4.10999 95.33Z"/>
</svg>
