<svg id="genes" width="180" height="90" viewBox="0 0 180 90" fill="none" xmlns="http://www.w3.org/2000/svg">
<path d="M48.8355 41.2407C49.082 46 50.5154 46 52.6275 50.6295C54.1966 54.0687 56.2676 57.1103 58.9603 59.6792C59.3053 59.9637 59.7477 60.2707 60.2126 60.4803C61.8995 61.1761 63.9081 60.9197 66.1632 59.5914C67.4594 58.8634 68.4329 57.7534 69.1063 56.1639C69.7349 54.7693 70.0409 52.9927 70.2192 50.8789C70.7688 44.0277 70.149 36.9076 68.2846 29.3987C67.2925 25.6818 66.0616 23.4491 64.3746 22.7532C62.8826 22.1022 61.7959 22.3654 61.1596 23.3477C60.6431 24.2551 60.6811 24.9821 61.2288 25.7237C62.1741 26.9672 62.7442 27.6114 62.8193 27.7313C64.5092 32.4296 65.4653 38.0879 65.7099 44.6086C65.9078 48.6559 65.363 51.9168 64.2258 54.6309C64.0162 55.0958 63.8067 55.5607 63.5972 56.0255C63.4997 56.0031 63.3574 56.1756 62.9978 56.4007C62.7357 56.6483 62.4209 56.6785 62.2708 56.4388C60.2681 54.439 57.6192 50.341 54.5191 44.1896C54.3164 43.7326 54.2482 42.6908 54.3144 41.0642C54.3885 39.8499 53.9382 39.1307 53.0085 38.7117C53.2785 38.8764 53.0085 38.7117 52.1986 38.2176C51.7562 37.9106 51.4414 37.9408 51.2017 38.0909C50.1004 38.8637 49.3364 39.5089 49.082 40.1687C48.9173 40.4386 48.8277 40.8284 48.8355 41.2407Z" fill="black"/>
<path d="M68.2399 18.6579C65.771 20.1086 62.5753 21.2736 58.7476 22.1213C55.3944 22.8117 52.0413 23.502 48.7831 24.1609C47.8025 24.3807 47.4218 25.1391 47.6096 26.341C47.6406 26.7522 47.735 27.0369 47.9243 27.2902C48.8705 28.8729 50.3557 29.5393 52.2536 29.2261C52.7911 29.2586 53.5505 29.0068 54.721 28.7241C55.86 28.3464 56.6508 28.1895 57.1569 28.1271C58.2959 27.7494 59.9724 27.4043 62.187 26.7753C64.5 26.7753 66.5 26.3411 68.6725 25.0464C68.9577 24.6357 69.8125 24.0363 71.2368 23.248C72.3129 22.6805 72.6935 21.9221 72.5687 20.91C72.5682 21.2262 72.5687 20.91 72.5702 19.9613C72.6026 19.4238 72.4133 19.1705 72.1605 19.0436C70.9281 18.5041 69.9799 18.1863 69.284 18.3117C68.9678 18.3112 68.5881 18.4371 68.2399 18.6579Z" fill="black"/>
<path d="M93.8 22C92.4 22.8 90.4 23.9 87.7 25.2C85 26.5 83 27.6 81.6 28.4C81.4 29.5 81.6 31.8 82 35.4C82.7 35.5 83.4 35.5 84.2 35.4C84.8 35.3 85.7 35 86.9 34.6C88.1 34.2 89 33.9 89.6 33.8C90.7 33.6 91.7 33.7 92.6 34C93.3 34.7 93.7 35.2 93.7 35.4C93.7 35.7 93.6 35.9 93.4 36.1C93.3 36.2 93.1 36.5 92.7 37.1C92.4 37.5 92.1 37.7 91.6 37.8C90.8 38.1 89.3 38.5 87.1 39C85.3 39.4 83.8 39.9 82.8 40.5C82.6 43.5 82.6 45.9 82.9 47.6C83.1 48.7 83.4 49.6 83.9 50.2C86 51.2 89.3 51.2 93.8 50.2C94.1 50.1 94.4 49.9 94.7 49.6C95 49.2 95.3 49 95.5 49C96.6 48.6 97.4 49.3 98.1 51.1C98.3 51.7 98.3 52.3 98.1 52.9C97.9 53.5 97.4 53.9 96.8 54C92.1 55 87.9 55.4 84.2 55.1C83 55 81.9 54.6 80.9 53.8C79.8 53 79.1 52 78.8 50.9C77.8 47.5 77.3 44.5 77.2 41.7C76 41.1 75.3 40.5 75.3 39.8C75.3 39.4 75.5 39.1 76 38.7C76.5 38.3 76.8 37.9 76.8 37.6C76.8 37.3 76.7 35.4 76.3 31.9C74 31.9 72.8 31.2 72.6 30C72.4 28.9 73 27.8 74.2 26.9C75.4 26.2 76.5 25.4 77.7 24.7C79.1 23.7 80.8 22.7 82.9 21.7C84.7 20.9 86.5 20 88.4 19.2C88.6 19.1 88.8 19.1 89.1 19C90.2 18.8 91.5 19 93 19.6C93.1 19.8 93.2 20 93.5 20.4C93.7 20.8 93.9 21.1 93.9 21.3C94.2 21.4 94.1 21.7 93.8 22Z" fill="black"/>
<path d="M119.245 38.1159C117.717 38.6307 115.543 39.324 112.643 40.0785C109.742 40.833 107.568 41.5263 106.04 42.0411C105 43.5 102.927 43.5 100.164 44.4525C97.907 44.0086 96.8647 43.0902 96.9 41.8741C96.9161 40.7562 97.7171 39.7927 99.0682 39.1412C100.381 38.6859 101.614 38.1132 102.927 37.658C104.494 36.947 106.355 36.2939 108.608 35.7179C110.529 35.2804 112.469 34.7447 114.487 34.3264C114.703 34.2669 114.899 34.3055 115.213 34.2652C116.331 34.2813 117.568 34.7284 118.924 35.6066C118.983 35.8222 119.043 36.0377 119.26 36.4881C119.379 36.9191 119.517 37.2521 119.479 37.4483C119.754 37.6044 119.598 37.8794 119.245 38.1159Z" fill="black"/>
<path d="M141.511 8.675C141.911 14.075 142.311 19.475 142.711 24.875C143.111 31.275 143.711 36.575 144.511 40.875C144.711 42.275 145.011 43.575 145.311 44.975C145.411 45.575 145.311 46.175 144.911 46.775C144.511 47.375 144.011 47.675 143.311 47.775C142.111 47.975 140.911 47.375 139.811 45.875C136.411 41.375 131.911 34.275 126.311 24.375C126.211 24.175 126.111 24.075 125.911 24.075C125.611 24.075 125.511 24.475 125.511 24.975C125.811 30.775 126.511 36.675 127.611 42.975C128.111 45.975 128.711 48.975 129.511 52.075C129.711 53.175 129.511 54.075 128.911 54.575C128.711 54.875 128.411 55.075 128.111 55.175C127.811 55.175 127.411 55.175 127.011 54.975C126.411 54.775 126.011 54.675 125.811 54.675C125.311 54.575 124.911 54.175 124.611 53.375C124.411 52.775 124.311 52.075 124.111 51.475C123.611 49.275 123.111 46.975 122.711 44.575C122.011 40.375 121.311 35.175 120.611 28.775C119.711 19.075 119.111 13.775 119.011 12.675C118.911 11.775 119.511 11.275 121.011 10.975C121.711 10.775 122.711 11.075 124.211 11.975C125.911 14.175 128.111 17.775 130.911 22.875C133.611 27.675 135.911 31.375 137.811 33.775C137.511 28.475 137.011 20.375 136.411 9.575C136.411 8.775 136.911 8.275 137.911 8.075C138.311 7.975 138.711 7.975 139.211 8.075C139.911 8.075 140.211 8.175 140.411 8.175C141.011 8.075 141.311 8.275 141.511 8.675Z" fill="black"/>
<path d="M121.978 52.1553C121.898 54.8105 121.694 53.3211 121.163 53.8093C120.632 54.2974 120.075 54.4705 119.372 54.4018C118.158 54.3118 117.135 53.4446 116.421 51.7268C114.184 46.5494 111.494 38.5855 108.399 27.6407C108.349 27.4227 108.275 27.3019 108.081 27.2545C107.79 27.1834 107.598 27.5484 107.479 28.0341C106.397 33.7401 105.679 39.638 105.256 46.0193C105.031 49.0523 104.903 52.1091 104.946 55.3103C104.88 56.4264 104.472 57.2534 103.771 57.597C103.505 57.8411 103.166 57.9644 102.851 57.9905C102.56 57.9194 102.171 57.8246 101.83 57.5356C101.294 57.1991 100.93 57.0072 100.735 56.9598C100.273 56.7442 99.9793 56.2609 99.8773 55.4126C99.8252 54.7823 99.8938 54.0785 99.8417 53.4482C99.8771 51.1924 99.9361 48.8394 100.116 46.413C100.431 42.1667 100.983 36.9489 101.819 30.5652C103.242 20.9281 103.915 15.6368 104.078 14.5445C104.194 13.6464 104.896 13.3027 106.424 13.3666C107.151 13.3381 108.052 13.8665 109.296 15.0962C110.426 17.6363 111.711 21.655 113.223 27.2731C114.709 32.5761 115.318 33.9948 117.345 39.4974C119.372 45 122.058 49.5 121.978 52.1553Z" fill="black"/>
<path d="M156.4 4.50001C156.5 5.30001 156.1 6.10001 155.1 6.90001C154.8 7.10001 154.5 7.20001 154.1 7.10001C153.5 7.00001 153.2 7.00001 153.2 7.00001C153 7.00001 152.7 7.20001 152.6 7.50001C150.8 10 150.2 12.8 150.8 15.9C151 17 151.4 18.1 151.9 19C152.1 19.4 154.2 22.2 158 27.4C160.6 30.8 162.1 33.9 162.5 36.5C162.9 38.7 162.7 40.8 162 43C161.8 43.7 161 44.8 159.8 46.1C158.8 47.1 157.9 47.7 156.9 47.9C156.5 48 156.2 48 155.9 47.9C154.6 47.6 153.9 47 153.8 46.3C153.7 45.8 153.9 45.2 154.4 44.4C154.5 44.2 154.9 44 155.5 43.8C156.1 43.7 156.4 43.3 156.6 42.9C157.1 41 157.2 39.2 156.9 37.4C156.4 34.8 154.5 31.4 151.1 26.9C147.7 22.5 145.7 18.8 145.2 15.9C144.8 13.5 144.9 11.3 145.5 9.20001C146.2 6.8 147.4 5.00001 149.2 3.70001C150 3.10001 150.9 2.70001 151.7 2.60001C153.4 2.30001 154.7 2.50001 155.7 3.30001C156 3.70001 156.3 4.10001 156.4 4.50001Z" fill="black"/>
<path d="M4.09999 86.8C2.79999 86.8 1.69999 85.8 1.59999 84.5C1.49999 83.1 2.49999 81.9 3.89999 81.8C10.6 81.3 16.2 80.7 22.2 80C44.2 77.6 71.5 74.7 176 74.4C177.4 74.4 178.5 75.5 178.5 76.9C178.5 78.3 177.4 79.4 176 79.4C71.8 79.8 44.6 82.7 22.8 85.1C16.8 85.7 11.1 86.4 4.39999 86.9C4.19999 86.8 4.19999 86.8 4.09999 86.8Z" fill="black"/>
</svg>
