<svg version="1.1" id="sperm" xmlns="http://www.w3.org/2000/svg" xmlns:xlink="http://www.w3.org/1999/xlink" x="0px" y="0px"
	 viewBox="0 0 36 36" enable-background="new 0 0 36 36" xml:space="preserve">
	<g>
		<path class="tail tail-bottom" fill="#FFFFFF" d="M27.2,15.5c-3.4,3.4-8.8,3.9-12.8,1.1c-4.5-3.2-10.7-2.1-13.9,2.5c-0.2,0.2-0.3,0.5-0.5,0.8
			c3.3-3.9,9.1-4.7,13.3-1.7c0.3,0.2,0.5,0.4,0.8,0.6l0,0c0.3,0.2,0.5,0.4,0.8,0.6c4.4,3,10.3,2.1,13.5-1.9L27.2,15.5z"/>
		<path class="tail tail-top" fill="#FFFFFF" d="M14.9,16.6c-0.3,0.2-0.6,0.4-0.8,0.6l0,0c-0.2,0.2-0.5,0.4-0.8,0.6c-4.2,3-10,2.2-13.3-1.7
			c0.2,0.3,0.3,0.5,0.5,0.8c3.2,4.6,9.4,5.7,13.9,2.5c4-2.8,9.4-2.3,12.8,1.1l1.2-2C25.2,14.5,19.3,13.6,14.9,16.6z"/>
		<ellipse fill="#FFFFFF" cx="30" cy="18" rx="6" ry="4.5"/>
	</g>
</svg>
