<svg id="toys" width="180" height="98" viewBox="0 0 180 98" fill="none" xmlns="http://www.w3.org/2000/svg">
<path d="M4.10999 95.33C2.81999 95.33 1.71999 94.33 1.61999 93.02C1.51999 91.64 2.54999 90.44 3.91999 90.34C10.61 89.84 16.24 89.23 22.21 88.58C44.17 86.21 71.5 83.26 176.02 83C176.02 83 176.02 83 176.03 83C177.41 83 178.53 84.12 178.53 85.49C178.53 86.87 177.42 87.99 176.04 88C71.78 88.26 44.6 91.2 22.75 93.55C16.74 94.2 11.07 94.81 4.29999 95.32C4.23999 95.33 4.17999 95.33 4.10999 95.33Z" fill="#99AA22"/>
<path d="M76.2829 12.0339C76.0742 13.8028 75.393 14.9064 74.2393 15.3446C71.2423 16.5031 65.9905 18.1927 58.4839 20.4132C59.0515 32.3902 59.8419 42.3304 60.8551 50.2337C61.2396 53.2332 61.6656 56.1789 62.1332 59.071C62.2968 59.9695 62.3377 60.6659 62.2559 61.1603C62.1155 61.9526 61.6851 62.3707 60.9649 62.4147C59.5781 62.5441 58.3591 62.0954 57.308 61.0687C56.2631 60.0897 55.6045 58.9159 55.3322 57.5474C55.0112 55.798 54.7255 53.9473 54.4753 51.9953C54.0725 48.853 53.6489 43.8503 53.2046 36.987C52.7969 30.4095 52.3495 25.4098 51.8624 21.9879C50.5647 22.0575 48.7946 22.4054 46.552 23.0317C43.9823 23.7482 42.1975 24.1706 41.1977 24.2988C38.8648 24.5979 36.881 24.2231 35.2464 23.1744C34.5164 22.0098 34.1483 21.4037 34.1422 21.3561C34.0995 21.0228 34.2204 20.6444 34.5048 20.2207C35.9612 19.5017 39.0187 18.6258 43.6772 17.5931C47.7643 16.6336 50.7613 15.4751 52.6682 14.1176C54.4017 14.4277 56.3397 14.4454 58.4822 14.1707C60.6246 13.8961 62.6383 13.3718 64.5232 12.5978C65.0884 12.477 66.4978 11.9575 68.7514 11.0395C70.4104 10.3913 71.8204 10.0654 72.9814 10.0617C73.8383 9.95185 74.2412 10.2632 74.1899 10.9956C75.4754 10.8308 76.1731 11.1769 76.2829 12.0339Z" fill="#99AA22"/>
<path d="M94.7291 39.213C92.7319 45.9052 89.2386 50.1761 84.2493 52.0256C83.6486 52.2477 83.0389 52.3985 82.4199 52.4778C79.7061 52.8257 76.7793 51.7008 73.6395 49.1029C71.5264 47.3413 70.2653 44.8656 69.8564 41.6757C69.4047 38.1525 69.9669 34.2332 71.543 29.9178C72.2278 28.0879 73.1337 26.4716 74.2605 25.0689C75.5472 23.4038 76.8571 22.4857 78.1902 22.3148C78.9519 22.2172 79.7027 22.4113 80.4425 22.8972C81.1823 23.383 83.0653 23.9159 86.0916 24.4958C88.4746 24.9646 90.2581 26.0426 91.4423 27.7297C93.5176 30.706 94.7017 33.3367 94.9947 35.622C95.1595 36.9075 95.071 38.1045 94.7291 39.213ZM88.4483 35.5176C87.6694 32.0848 86.4755 30.1328 84.8665 29.6615C84.6163 29.5968 84.3959 29.5767 84.2055 29.6011C83.6342 29.6743 82.981 30.242 82.2461 31.3041C81.4343 32.5212 80.7787 33.2585 80.2794 33.5161C79.9645 33.7017 79.4701 33.6199 78.7962 33.2707C78.1223 32.9216 77.6902 32.7592 77.4997 32.7836C77.3569 32.8019 77.244 32.8648 77.161 32.9722C75.6777 34.6142 75.1283 36.9349 75.5129 39.9343C75.7753 41.9816 76.4742 43.6583 77.6095 44.9645C79.1928 46.7457 80.4368 47.5782 81.3414 47.4623C83.4363 47.1937 85.2919 45.625 86.9082 42.7562C88.4476 40.0424 88.961 37.6296 88.4483 35.5176Z" fill="#99AA22"/>
<path d="M117.695 8.97518C117.052 14.5261 115.497 21.8391 113.031 30.9143C110.129 41.4972 108.327 48.7694 107.626 52.7308C107.485 53.5231 107.488 54.4906 107.635 55.6332C107.884 57.1983 108.012 58.1981 108.019 58.6327C108.09 60.3174 107.316 61.2634 105.697 61.471C104.9 61.67 103.983 61.4972 102.945 60.9527C101.961 60.4498 101.447 59.8381 101.403 59.1179C101.1 55.624 101.472 51.5356 102.517 46.8527C103.504 42.8547 104.492 38.8567 105.48 34.8586C100.94 26.246 97.2107 19.9974 94.2931 16.1129C94.1197 15.8932 94.0178 15.6643 93.9873 15.4262C93.9201 14.9025 94.1447 14.3898 94.6611 13.888C95.219 13.3326 95.7837 13.0182 96.355 12.945C96.4502 12.9328 97.3884 13.0787 99.1695 13.3827C100.592 15.0393 102.129 17.2135 103.78 19.9053C105.187 22.1931 106.569 24.4839 107.928 26.7777C108.514 23.799 109.103 20.8441 109.695 17.913C110.369 14.4875 111.235 11.6181 112.293 9.30475C112.589 8.58938 113.213 8.17066 114.165 8.04859C115.498 7.87769 116.675 8.18655 117.695 8.97518Z" fill="#99AA22"/>
<path d="M135.52 5.74643C135.642 6.69864 135.059 7.62032 133.769 8.51148C133.413 8.75075 133.011 8.82644 132.565 8.73854C131.874 8.63355 131.504 8.5841 131.457 8.59021C131.171 8.62683 130.904 8.80628 130.655 9.12856C128.413 12.0291 127.531 15.3362 128.007 19.0498C128.184 20.4305 128.563 21.6885 129.144 22.8238C129.401 23.3231 131.684 26.781 135.991 33.1974C138.862 37.4751 140.502 41.2088 140.911 44.3987C141.246 47.0173 140.927 49.623 139.953 52.216C139.628 53.0803 138.691 54.265 137.142 55.7702C135.89 56.9471 134.716 57.6057 133.621 57.746C133.192 57.801 132.778 57.7814 132.379 57.6874C130.872 57.2516 130.057 56.5576 129.935 55.6054C129.861 55.0341 130.13 54.2979 130.74 53.397C130.9 53.1345 131.334 52.9337 132.042 52.7946C132.75 52.6554 133.19 52.3087 133.361 51.7545C134.092 49.5314 134.317 47.3249 134.037 45.1348C133.64 42.0401 131.519 37.7631 127.673 32.3038C123.869 26.7907 121.742 22.2726 121.29 18.7494C120.918 15.8452 121.156 13.1772 122.006 10.7454C122.956 7.96206 124.548 5.84646 126.782 4.39863C127.81 3.73454 128.847 3.33535 129.895 3.20107C131.894 2.94472 133.464 3.29998 134.605 4.26684C135.148 4.72952 135.453 5.22272 135.52 5.74643Z" fill="#99AA22"/>
</svg>
