<svg width="140" height="80" viewBox="0 0 140 80" fill="none" xmlns="http://www.w3.org/2000/svg">
<path d="M62.2556 66.0777V56.4155H66.1509V66.0777H64.178V68H48.7489V66.0777H46.776V56.4155H50.6712V66.0777H54.5158V56.4155H58.411V66.0777H62.2556ZM42.9313 56.4155V58.3378H44.8537V68H41.009V64.1554H37.1644V68H33.2692V58.3378H35.1915V56.4155H42.9313ZM41.009 62.1825V58.3378H37.1644V62.1825H41.009ZM91.2421 56.4155H91.1915V58.3884H93.1138V62.2331H91.1915V64.1554H93.1138V68H89.2692V64.1554H85.4246V68H81.5799V56.4155H85.4246H91.2421ZM89.3198 62.1825V58.3378H85.4752V62.1825H89.3198ZM104.799 58.3378H106.722V66.0777H104.799V68H98.9819H95.1373V56.4155H98.9819H104.799V58.3378ZM98.9819 66.0777H102.827V58.3378H98.9819V66.0777ZM77.7353 56.4155V58.3378H79.6576V68H75.813V64.1554H71.9178V68H68.0732V58.3378H69.9955V56.4155H77.7353ZM75.813 62.1825V58.3378H71.9178V62.1825H75.813ZM103.838 37.9512C104.648 37.6983 105.406 37.3442 106.115 36.9395L110.212 40.9865C108.846 42.0994 107.177 43.0099 105.356 43.5158C99.9937 44.9323 94.4797 42.6558 91.6468 38.2042C89.421 41.6441 85.5763 43.9205 81.1752 43.9205C78.6965 43.9205 76.3695 43.2123 74.4472 41.9476V51.2051H68.6802V38.3559C66.4544 41.6947 62.6603 43.9205 58.3098 43.9205C53.2005 43.9205 48.7995 40.7841 46.8771 36.383C44.9548 40.8347 40.5537 43.9205 35.4444 43.9205C28.5646 43.9205 23 38.3559 23 31.4761C23 24.5962 28.5646 19.0316 35.4444 19.0316C37.9232 19.0316 40.2502 19.7398 42.1725 21.0045V12H47.9395V24.6468C50.1653 21.2575 54.0099 19.0316 58.3604 19.0316C63.4697 19.0316 67.8708 22.1174 69.7931 26.5185C71.7154 22.1174 76.1165 19.0316 81.2258 19.0316C85.6269 19.0316 89.4715 21.308 91.6974 24.748C93.3162 22.2186 95.7949 20.2963 98.9313 19.4363C104.597 17.9187 110.415 20.5998 113.096 25.5574C113.349 25.9621 113.5 26.4173 113.703 26.822V26.8726C113.855 27.3279 114.006 27.7832 114.158 28.2385C114.411 29.1996 114.512 30.1608 114.563 31.122L97.009 35.8266C98.6278 37.7489 101.258 38.6594 103.838 37.9512ZM35.4444 38.1536C39.1373 38.1536 42.1725 35.1689 42.1725 31.4255C42.1725 27.7326 39.1373 24.6974 35.4444 24.6974C31.7516 24.6974 28.7164 27.7326 28.7164 31.4255C28.7164 35.1689 31.7516 38.1536 35.4444 38.1536ZM58.3098 38.1536C62.0027 38.1536 65.0379 35.1689 65.0379 31.4255C65.0379 27.7326 62.0027 24.6974 58.3098 24.6974C54.5664 24.6974 51.5818 27.7326 51.5818 31.4255C51.5818 35.1689 54.617 38.1536 58.3098 38.1536ZM81.1752 38.1536C84.8681 38.1536 87.8527 35.1689 87.9033 31.4255C87.9033 27.7326 84.8681 24.6974 81.1752 24.6974C77.4318 24.6974 74.4472 27.7326 74.4472 31.4255C74.4472 35.1689 77.4824 38.1536 81.1752 38.1536ZM100.348 24.9503C97.7678 25.6585 95.9467 27.7832 95.4914 30.262L107.177 27.075C105.558 25.2033 102.928 24.2421 100.348 24.9503ZM114.259 36.6865C115.979 36.6865 117.396 38.1536 117.446 39.8735C117.446 41.6441 116.03 43.0605 114.259 43.0605C112.489 43.0605 111.072 41.6441 111.072 39.8735C111.072 38.103 112.489 36.6865 114.259 36.6865ZM114.259 42.2511C115.575 42.2511 116.637 41.1888 116.637 39.8735C116.637 38.5583 115.575 37.4959 114.259 37.4959C112.944 37.4959 111.882 38.5583 111.882 39.8735C111.882 41.1888 112.944 42.2511 114.259 42.2511ZM114.259 38.71C113.602 38.71 113.045 39.2159 113.045 39.8229C113.045 40.4806 113.602 41.037 114.259 41.037C114.664 41.037 115.069 40.7841 115.271 40.43H115.726C115.473 41.037 114.917 41.4417 114.259 41.4417C113.399 41.4417 112.691 40.7335 112.691 39.8735C112.691 39.0135 113.399 38.3053 114.259 38.3053C114.917 38.3053 115.473 38.71 115.726 39.3171H115.271C115.069 38.963 114.715 38.71 114.259 38.71Z" fill="white"/>
</svg>
