<svg width="140" height="140" viewBox="0 0 140 140" fill="none" xmlns="http://www.w3.org/2000/svg">
<path d="M70 34C89.89 34 106 50.11 106 70C106 89.89 89.89 106 70 106C50.11 106 34 89.89 34 70C34 50.11 50.11 34 70 34ZM70 42.37C85.255 42.37 97.63 54.745 97.63 70C97.63 85.255 85.255 97.63 70 97.63C54.745 97.63 42.37 85.255 42.37 70C42.37 54.745 54.745 42.37 70 42.37ZM63.835 68.065C64.6 68.065 65.23 68.695 65.23 69.46C65.23 70.225 64.6 70.855 63.835 70.855C63.07 70.855 62.44 70.225 62.44 69.46C62.44 68.695 63.07 68.065 63.835 68.065ZM63.835 71.17C64.6 71.17 65.23 71.8 65.23 72.565C65.23 73.33 64.6 73.96 63.835 73.96C63.07 73.96 62.44 73.33 62.44 72.565C62.44 71.8 63.07 71.17 63.835 71.17ZM63.835 55.69C64.6 55.69 65.23 56.32 65.23 57.085C65.23 57.85 64.6 58.48 63.835 58.48C63.07 58.48 62.44 57.85 62.44 57.085C62.44 56.32 63.07 55.69 63.835 55.69ZM63.835 52.585C64.6 52.585 65.23 53.215 65.23 53.98C65.23 54.745 64.6 55.375 63.835 55.375C63.07 55.375 62.44 54.745 62.44 53.98C62.44 53.215 63.07 52.585 63.835 52.585ZM63.835 58.795C64.6 58.795 65.23 59.38 65.23 60.19C65.23 60.955 64.6 61.585 63.835 61.585C63.07 61.585 62.44 60.955 62.44 60.19C62.44 59.425 63.07 58.795 63.835 58.795ZM63.835 74.275C64.6 74.275 65.23 74.905 65.23 75.67C65.23 76.435 64.6 77.065 63.835 77.065C63.07 77.065 62.44 76.435 62.44 75.67C62.44 74.905 63.07 74.275 63.835 74.275ZM60.775 49.48C61.54 49.48 62.125 50.11 62.17 50.875C62.17 51.64 61.54 52.27 60.775 52.27C60.01 52.27 59.38 51.64 59.38 50.875C59.38 50.11 60.01 49.48 60.775 49.48ZM63.835 83.59C64.6 83.59 65.23 84.22 65.23 84.985C65.23 85.75 64.6 86.38 63.835 86.38C63.07 86.38 62.44 85.75 62.44 84.985C62.44 84.22 63.07 83.59 63.835 83.59ZM63.835 49.48C64.6 49.48 65.23 50.11 65.23 50.875C65.23 51.64 64.6 52.27 63.835 52.27C63.07 52.27 62.44 51.64 62.44 50.875C62.44 50.11 63.07 49.48 63.835 49.48ZM63.835 77.38C64.6 77.38 65.23 78.01 65.23 78.775C65.23 79.54 64.6 80.17 63.835 80.17C63.07 80.17 62.44 79.54 62.44 78.775C62.44 78.01 63.07 77.38 63.835 77.38ZM70 58.795C70.765 58.795 71.395 59.38 71.395 60.19C71.395 60.955 70.765 61.585 70 61.585C69.235 61.585 68.605 60.955 68.605 60.19C68.605 59.425 69.235 58.795 70 58.795ZM66.94 71.17C67.66 71.17 68.29 71.8 68.335 72.565C68.335 73.33 67.705 73.96 66.94 73.96C66.175 73.96 65.545 73.33 65.545 72.565C65.545 71.8 66.175 71.17 66.94 71.17ZM70 74.275C70.765 74.275 71.395 74.905 71.395 75.67C71.395 76.435 70.765 77.065 70 77.065C69.235 77.065 68.605 76.435 68.605 75.67C68.605 74.905 69.235 74.275 70 74.275ZM70 71.17C70.765 71.17 71.395 71.8 71.395 72.565C71.395 73.33 70.765 73.96 70 73.96C69.235 73.96 68.605 73.33 68.605 72.565C68.605 71.8 69.235 71.17 70 71.17ZM70 68.065C70.765 68.065 71.395 68.695 71.395 69.46C71.395 70.225 70.765 70.855 70 70.855C69.235 70.855 68.605 70.225 68.605 69.46C68.605 68.695 69.235 68.065 70 68.065ZM70 64.96C70.765 64.96 71.395 65.59 71.395 66.355C71.395 67.12 70.765 67.75 70 67.75C69.235 67.75 68.605 67.12 68.605 66.355C68.605 65.59 69.235 64.96 70 64.96ZM70 61.9C70.765 61.9 71.395 62.485 71.395 63.295C71.395 64.06 70.765 64.69 70 64.69C69.235 64.69 68.605 64.06 68.605 63.295C68.605 62.53 69.235 61.9 70 61.9ZM66.94 74.275C67.66 74.275 68.29 74.905 68.335 75.67C68.335 76.435 67.705 77.065 66.94 77.065C66.175 77.065 65.545 76.435 65.545 75.67C65.545 74.905 66.175 74.275 66.94 74.275ZM60.775 55.69C61.54 55.69 62.125 56.32 62.17 57.085C62.17 57.85 61.54 58.48 60.775 58.48C60.01 58.48 59.38 57.85 59.38 57.085C59.38 56.32 60.01 55.69 60.775 55.69ZM66.94 55.69C67.66 55.69 68.29 56.32 68.335 57.085C68.335 57.85 67.705 58.48 66.94 58.48C66.175 58.48 65.545 57.85 65.545 57.085C65.545 56.32 66.175 55.69 66.94 55.69ZM66.94 77.38C67.66 77.38 68.29 78.01 68.335 78.775C68.335 79.54 67.705 80.17 66.94 80.17C66.175 80.17 65.545 79.54 65.545 78.775C65.545 78.01 66.175 77.38 66.94 77.38ZM66.94 58.795C67.66 58.795 68.29 59.38 68.335 60.19C68.335 60.955 67.705 61.585 66.94 61.585C66.175 61.585 65.545 60.955 65.545 60.19C65.545 59.425 66.175 58.795 66.94 58.795ZM66.94 68.065C67.66 68.065 68.29 68.695 68.335 69.46C68.335 70.225 67.705 70.855 66.94 70.855C66.175 70.855 65.545 70.225 65.545 69.46C65.545 68.695 66.175 68.065 66.94 68.065ZM63.835 80.485C64.6 80.485 65.23 81.115 65.23 81.88C65.23 82.645 64.6 83.275 63.835 83.275C63.07 83.275 62.44 82.645 62.44 81.88C62.44 81.115 63.07 80.485 63.835 80.485ZM54.61 68.065C55.375 68.065 55.96 68.695 56.005 69.46C56.005 70.225 55.375 70.855 54.61 70.855C53.845 70.855 53.215 70.225 53.215 69.46C53.215 68.695 53.845 68.065 54.61 68.065ZM54.61 73.96C53.8396 73.96 53.215 73.3354 53.215 72.565C53.215 71.7946 53.8396 71.17 54.61 71.17C55.3804 71.17 56.005 71.7946 56.005 72.565C56.005 73.3354 55.3804 73.96 54.61 73.96ZM54.61 64.96C55.375 64.96 55.96 65.59 56.005 66.355C56.005 67.12 55.375 67.75 54.61 67.75C53.845 67.75 53.215 67.12 53.215 66.355C53.215 65.59 53.845 64.96 54.61 64.96ZM54.61 64.645C53.8396 64.645 53.215 64.0204 53.215 63.25C53.215 62.4796 53.8396 61.855 54.61 61.855C55.3804 61.855 56.005 62.4796 56.005 63.25C56.005 64.0204 55.3804 64.645 54.61 64.645ZM57.67 83.59C58.435 83.59 59.065 84.22 59.065 84.985C59.065 85.75 58.435 86.38 57.67 86.38C56.905 86.38 56.275 85.75 56.275 84.985C56.275 84.22 56.905 83.59 57.67 83.59ZM51.505 71.17C52.27 71.17 52.9 71.8 52.9 72.565C52.9 73.33 52.27 73.96 51.505 73.96C50.74 73.96 50.11 73.33 50.11 72.565C50.11 71.8 50.74 71.17 51.505 71.17ZM48.445 68.065C49.21 68.065 49.84 68.695 49.84 69.46C49.84 70.225 49.21 70.855 48.445 70.855C47.68 70.855 47.05 70.225 47.05 69.46C47.05 68.695 47.68 68.065 48.445 68.065ZM57.67 80.485C58.435 80.485 59.065 81.115 59.065 81.88C59.065 82.645 58.435 83.275 57.67 83.275C56.905 83.275 56.275 82.645 56.275 81.88C56.275 81.115 56.905 80.485 57.67 80.485ZM54.61 83.275C53.8396 83.275 53.215 82.6504 53.215 81.88C53.215 81.1096 53.8396 80.485 54.61 80.485C55.3804 80.485 56.005 81.1096 56.005 81.88C56.005 82.6504 55.3804 83.275 54.61 83.275ZM51.505 68.065C52.27 68.065 52.9 68.695 52.9 69.46C52.9 70.225 52.27 70.855 51.505 70.855C50.74 70.855 50.11 70.225 50.11 69.46C50.11 68.695 50.74 68.065 51.505 68.065ZM54.61 86.335C53.8396 86.335 53.215 85.7104 53.215 84.94C53.215 84.1696 53.8396 83.545 54.61 83.545C55.3804 83.545 56.005 84.1696 56.005 84.94C56.005 85.7104 55.3804 86.335 54.61 86.335ZM60.775 68.065C61.54 68.065 62.125 68.695 62.17 69.46C62.17 70.225 61.54 70.855 60.775 70.855C60.01 70.855 59.38 70.225 59.38 69.46C59.38 68.695 60.01 68.065 60.775 68.065ZM60.775 80.485C61.54 80.485 62.125 81.115 62.17 81.88C62.17 82.645 61.54 83.275 60.775 83.275C60.01 83.275 59.38 82.645 59.38 81.88C59.38 81.115 60.01 80.485 60.775 80.485ZM60.775 83.59C61.54 83.59 62.125 84.22 62.17 84.985C62.17 85.75 61.54 86.38 60.775 86.38C60.01 86.38 59.38 85.75 59.38 84.985C59.38 84.22 60.01 83.59 60.775 83.59ZM60.775 77.38C61.54 77.38 62.125 78.01 62.17 78.775C62.17 79.54 61.54 80.17 60.775 80.17C60.01 80.17 59.38 79.54 59.38 78.775C59.38 78.01 60.01 77.38 60.775 77.38ZM60.775 71.17C61.54 71.17 62.125 71.8 62.17 72.565C62.17 73.33 61.54 73.96 60.775 73.96C60.01 73.96 59.38 73.33 59.38 72.565C59.38 71.8 60.01 71.17 60.775 71.17ZM60.775 58.795C61.54 58.795 62.125 59.38 62.17 60.19C62.17 60.955 61.54 61.585 60.775 61.585C60.01 61.585 59.38 60.955 59.38 60.19C59.38 59.425 60.01 58.795 60.775 58.795ZM57.67 68.065C58.435 68.065 59.065 68.695 59.065 69.46C59.065 70.225 58.435 70.855 57.67 70.855C56.905 70.855 56.275 70.225 56.275 69.46C56.275 68.695 56.905 68.065 57.67 68.065ZM57.67 64.96C58.435 64.96 59.065 65.59 59.065 66.355C59.065 67.12 58.435 67.75 57.67 67.75C56.905 67.75 56.275 67.12 56.275 66.355C56.275 65.59 56.905 64.96 57.67 64.96ZM57.67 77.38C58.435 77.38 59.065 78.01 59.065 78.775C59.065 79.54 58.435 80.17 57.67 80.17C56.905 80.17 56.275 79.54 56.275 78.775C56.275 78.01 56.905 77.38 57.67 77.38ZM57.67 61.9C58.435 61.9 59.065 62.485 59.065 63.295C59.065 64.06 58.435 64.69 57.67 64.69C56.905 64.69 56.275 64.06 56.275 63.295C56.275 62.53 56.905 61.9 57.67 61.9ZM57.67 58.795C58.435 58.795 59.065 59.38 59.065 60.19C59.065 60.955 58.435 61.585 57.67 61.585C56.905 61.585 56.275 60.955 56.275 60.19C56.275 59.425 56.905 58.795 57.67 58.795ZM88.495 73.96C87.7246 73.96 87.1 73.3354 87.1 72.565C87.1 71.7946 87.7246 71.17 88.495 71.17C89.2654 71.17 89.89 71.7946 89.89 72.565C89.89 73.3354 89.2654 73.96 88.495 73.96ZM82.33 68.065C83.095 68.065 83.725 68.695 83.725 69.46C83.725 70.225 83.095 70.855 82.33 70.855C81.565 70.855 80.935 70.225 80.935 69.46C80.935 68.695 81.565 68.065 82.33 68.065ZM82.33 58.795C83.095 58.795 83.725 59.38 83.725 60.19C83.725 60.955 83.095 61.585 82.33 61.585C81.565 61.585 80.935 60.955 80.935 60.19C80.935 59.425 81.565 58.795 82.33 58.795ZM82.33 77.38C83.095 77.38 83.725 78.01 83.725 78.775C83.725 79.54 83.095 80.17 82.33 80.17C81.565 80.17 80.935 79.54 80.935 78.775C80.935 78.01 81.565 77.38 82.33 77.38ZM82.33 64.645C81.5596 64.645 80.935 64.0204 80.935 63.25C80.935 62.4796 81.5596 61.855 82.33 61.855C83.1004 61.855 83.725 62.4796 83.725 63.25C83.725 64.0204 83.1004 64.645 82.33 64.645ZM82.33 64.96C83.095 64.96 83.725 65.59 83.725 66.355C83.725 67.12 83.095 67.75 82.33 67.75C81.565 67.75 80.935 67.12 80.935 66.355C80.935 65.59 81.565 64.96 82.33 64.96ZM82.33 83.275C81.5596 83.275 80.935 82.6504 80.935 81.88C80.935 81.1096 81.5596 80.485 82.33 80.485C83.1004 80.485 83.725 81.1096 83.725 81.88C83.725 82.6504 83.1004 83.275 82.33 83.275ZM82.33 86.335C81.5596 86.335 80.935 85.7104 80.935 84.94C80.935 84.1696 81.5596 83.545 82.33 83.545C83.1004 83.545 83.725 84.1696 83.725 84.94C83.725 85.7104 83.1004 86.335 82.33 86.335ZM79.225 55.69C79.99 55.69 80.62 56.32 80.62 57.085C80.62 57.85 79.99 58.48 79.225 58.48C78.46 58.48 77.83 57.85 77.83 57.085C77.83 56.32 78.46 55.69 79.225 55.69ZM79.225 58.795C79.99 58.795 80.62 59.38 80.62 60.19C80.62 60.955 79.99 61.585 79.225 61.585C78.46 61.585 77.83 60.955 77.83 60.19C77.83 59.425 78.46 58.795 79.225 58.795ZM79.225 52.27C78.4546 52.27 77.83 51.6454 77.83 50.875C77.83 50.1046 78.4546 49.48 79.225 49.48C79.9954 49.48 80.62 50.1046 80.62 50.875C80.62 51.6454 79.9954 52.27 79.225 52.27ZM91.555 68.065C92.32 68.065 92.95 68.695 92.95 69.46C92.95 70.225 92.32 70.855 91.555 70.855C90.79 70.855 90.16 70.225 90.16 69.46C90.16 68.695 90.79 68.065 91.555 68.065ZM88.495 68.065C89.26 68.065 89.845 68.695 89.89 69.46C89.89 70.225 89.26 70.855 88.495 70.855C87.73 70.855 87.1 70.225 87.1 69.46C87.1 68.695 87.73 68.065 88.495 68.065ZM79.225 68.065C79.99 68.065 80.62 68.695 80.62 69.46C80.62 70.225 79.99 70.855 79.225 70.855C78.46 70.855 77.83 70.225 77.83 69.46C77.83 68.695 78.46 68.065 79.225 68.065ZM85.39 64.645C84.6196 64.645 83.995 64.0204 83.995 63.25C83.995 62.4796 84.6196 61.855 85.39 61.855C86.1604 61.855 86.785 62.4796 86.785 63.25C86.785 64.0204 86.1604 64.645 85.39 64.645ZM70 95.56C84.13 95.56 95.56 84.13 95.56 70C95.56 55.87 84.13 44.44 70 44.44C55.87 44.44 44.44 55.87 44.44 70C44.44 84.085 55.87 95.56 70 95.56ZM70 101.905C87.64 101.905 101.905 87.64 101.905 70C101.905 52.36 87.64 38.095 70 38.095C52.36 38.095 38.095 52.36 38.095 70C38.095 87.64 52.36 101.905 70 101.905ZM85.39 64.96C86.155 64.96 86.785 65.59 86.785 66.355C86.785 67.12 86.155 67.75 85.39 67.75C84.625 67.75 83.995 67.12 83.995 66.355C83.995 65.59 84.625 64.96 85.39 64.96ZM85.39 83.275C84.6196 83.275 83.995 82.6504 83.995 81.88C83.995 81.1096 84.6196 80.485 85.39 80.485C86.1604 80.485 86.785 81.1096 86.785 81.88C86.785 82.6504 86.1604 83.275 85.39 83.275ZM85.39 73.96C84.6196 73.96 83.995 73.3354 83.995 72.565C83.995 71.7946 84.6196 71.17 85.39 71.17C86.1604 71.17 86.785 71.7946 86.785 72.565C86.785 73.3354 86.1604 73.96 85.39 73.96ZM85.39 86.335C84.6196 86.335 83.995 85.7104 83.995 84.94C83.995 84.1696 84.6196 83.545 85.39 83.545C86.1604 83.545 86.785 84.1696 86.785 84.94C86.785 85.7104 86.1604 86.335 85.39 86.335ZM85.39 68.065C86.155 68.065 86.785 68.695 86.785 69.46C86.785 70.225 86.155 70.855 85.39 70.855C84.625 70.855 83.995 70.225 83.995 69.46C83.995 68.695 84.625 68.065 85.39 68.065ZM73.06 77.38C73.825 77.38 74.455 78.01 74.455 78.775C74.455 79.54 73.825 80.17 73.06 80.17C72.295 80.17 71.665 79.54 71.665 78.775C71.665 78.01 72.295 77.38 73.06 77.38ZM73.06 68.065C73.825 68.065 74.455 68.695 74.455 69.46C74.455 70.225 73.825 70.855 73.06 70.855C72.295 70.855 71.665 70.225 71.665 69.46C71.665 68.695 72.295 68.065 73.06 68.065ZM73.06 58.795C73.825 58.795 74.455 59.38 74.455 60.19C74.455 60.955 73.825 61.585 73.06 61.585C72.295 61.585 71.665 60.955 71.665 60.19C71.665 59.425 72.295 58.795 73.06 58.795ZM73.06 55.69C73.825 55.69 74.455 56.32 74.455 57.085C74.455 57.85 73.825 58.48 73.06 58.48C72.295 58.48 71.665 57.85 71.665 57.085C71.665 56.32 72.295 55.69 73.06 55.69ZM76.165 83.59C76.93 83.59 77.56 84.22 77.56 84.985C77.56 85.75 76.93 86.38 76.165 86.38C75.4 86.38 74.77 85.75 74.77 84.985C74.77 84.22 75.4 83.59 76.165 83.59ZM76.165 77.38C76.93 77.38 77.56 78.01 77.56 78.775C77.56 79.54 76.93 80.17 76.165 80.17C75.4 80.17 74.77 79.54 74.77 78.775C74.77 78.01 75.4 77.38 76.165 77.38ZM76.165 80.485C76.93 80.485 77.56 81.115 77.56 81.88C77.56 82.645 76.93 83.275 76.165 83.275C75.4 83.275 74.77 82.645 74.77 81.88C74.77 81.115 75.4 80.485 76.165 80.485ZM79.225 73.96C78.4546 73.96 77.83 73.3354 77.83 72.565C77.83 71.7946 78.4546 71.17 79.225 71.17C79.9954 71.17 80.62 71.7946 80.62 72.565C80.62 73.3354 79.9954 73.96 79.225 73.96ZM73.06 71.17C73.825 71.17 74.455 71.8 74.455 72.565C74.455 73.33 73.825 73.96 73.06 73.96C72.295 73.96 71.665 73.33 71.665 72.565C71.665 71.8 72.295 71.17 73.06 71.17ZM70 55.69C70.765 55.69 71.395 56.32 71.395 57.085C71.395 57.85 70.765 58.48 70 58.48C69.235 58.48 68.605 57.85 68.605 57.085C68.605 56.32 69.235 55.69 70 55.69ZM73.06 74.275C73.825 74.275 74.455 74.905 74.455 75.67C74.455 76.435 73.825 77.065 73.06 77.065C72.295 77.065 71.665 76.435 71.665 75.67C71.665 74.905 72.295 74.275 73.06 74.275ZM70 52.585C70.765 52.585 71.395 53.215 71.395 53.98C71.395 54.745 70.765 55.375 70 55.375C69.235 55.375 68.605 54.745 68.605 53.98C68.605 53.215 69.235 52.585 70 52.585ZM79.225 86.335C78.4546 86.335 77.83 85.7104 77.83 84.94C77.83 84.1696 78.4546 83.545 79.225 83.545C79.9954 83.545 80.62 84.1696 80.62 84.94C80.62 85.7104 79.9954 86.335 79.225 86.335ZM76.165 49.48C76.93 49.48 77.56 50.11 77.56 50.875C77.56 51.64 76.93 52.27 76.165 52.27C75.4 52.27 74.77 51.64 74.77 50.875C74.77 50.11 75.4 49.48 76.165 49.48ZM76.165 52.585C76.93 52.585 77.56 53.215 77.56 53.98C77.56 54.745 76.93 55.375 76.165 55.375C75.4 55.375 74.77 54.745 74.77 53.98C74.77 53.215 75.4 52.585 76.165 52.585ZM79.225 83.275C78.4546 83.275 77.83 82.6504 77.83 81.88C77.83 81.1096 78.4546 80.485 79.225 80.485C79.9954 80.485 80.62 81.1096 80.62 81.88C80.62 82.6504 79.9954 83.275 79.225 83.275ZM79.225 77.38C79.99 77.38 80.62 78.01 80.62 78.775C80.62 79.54 79.99 80.17 79.225 80.17C78.46 80.17 77.83 79.54 77.83 78.775C77.83 78.01 78.46 77.38 79.225 77.38ZM76.165 74.275C76.93 74.275 77.56 74.905 77.56 75.67C77.56 76.435 76.93 77.065 76.165 77.065C75.4 77.065 74.77 76.435 74.77 75.67C74.77 74.905 75.4 74.275 76.165 74.275ZM76.165 55.69C76.93 55.69 77.56 56.32 77.56 57.085C77.56 57.85 76.93 58.48 76.165 58.48C75.4 58.48 74.77 57.85 74.77 57.085C74.77 56.32 75.4 55.69 76.165 55.69ZM76.165 68.065C76.93 68.065 77.56 68.695 77.56 69.46C77.56 70.225 76.93 70.855 76.165 70.855C75.4 70.855 74.77 70.225 74.77 69.46C74.77 68.695 75.4 68.065 76.165 68.065ZM76.165 71.17C76.93 71.17 77.56 71.8 77.56 72.565C77.56 73.33 76.93 73.96 76.165 73.96C75.4 73.96 74.77 73.33 74.77 72.565C74.77 71.8 75.4 71.17 76.165 71.17ZM76.165 58.795C76.93 58.795 77.56 59.38 77.56 60.19C77.56 60.955 76.93 61.585 76.165 61.585C75.4 61.585 74.77 60.955 74.77 60.19C74.77 59.425 75.4 58.795 76.165 58.795Z" fill="black"/>
</svg>
