<?xml version="1.0" encoding="UTF-8"?>
<svg width="140px" height="96px" viewBox="0 0 140 96" version="1.1" xmlns="http://www.w3.org/2000/svg" xmlns:xlink="http://www.w3.org/1999/xlink">
    <!-- Generator: Sketch 50.2 (55047) - http://www.bohemiancoding.com/sketch -->
    <title>award_webby</title>
    <desc>Created with Sketch.</desc>
    <defs></defs>
    <g id="Page-2" stroke="none" stroke-width="1" fill="none" fill-rule="evenodd">
        <g id="Desktop-HD" transform="translate(-1112.000000, -1978.000000)">
            <g id="Group-11" transform="translate(772.000000, 1978.000000)">
                <g id="award_webby" transform="translate(340.000000, 0.000000)">
                    <path d="M7,51.5082459 L7,57.1214393 C50.3898297,54.5847076 18.1172947,53.2353823 7,51.5082459 Z M7,60.7916042 C30.9075803,62.2488756 40.4058515,63.3283358 7.37777215,66.4047976 L7,66.2968516 L7,60.7916042 Z M7,12 L45.2629219,12 L45.2629219,84 L37.2757394,84 L37.2757394,72.2338831 C35.4948135,69.1574213 34.7932367,68.9415292 28.2092078,68.2398801 C45.5327592,62.6806597 32.4186689,59.874063 27.2917611,59.0104948 C47.0438478,53.6671664 29.8282313,51.5622189 26.5901843,50.1049475 C47.0978152,46.4347826 30.5837756,42.3868066 27.6695333,41.5772114 C45.6406941,36.17991 30.7996454,33.4272864 26.5901843,31.970015 C39.0566652,29.8110945 40.1899817,25.4392804 22.7584954,22.7406297 L20.2220252,25.8170915 C34.3614971,27.6521739 34.1995947,29.2173913 7,30.1349325 L7,12 Z M7,43.0344828 L7,48.6476762 C15.1490849,47.0284858 52.3866253,46.3808096 7,43.0344828 Z M7,33.4272864 L7,39.3643178 C32.4726363,38.0149925 41.1074283,36.2338831 7,33.4272864 Z M54.5992908,31.2143928 L50.2279273,31.2143928 L50.2279273,30.3508246 L59.8881009,30.3508246 L59.8881009,31.2143928 L55.5167374,31.2143928 L55.5167374,42.8185907 L54.5992908,42.8185907 L54.5992908,31.2143928 Z M62.2087012,30.3508246 L63.1261478,30.3508246 L63.1261478,36.125937 L71.1133304,36.125937 L71.1133304,30.3508246 L72.0307771,30.3508246 L72.0307771,42.8185907 L71.1133304,42.8185907 L71.1133304,36.9895052 L63.1261478,36.9895052 L63.1261478,42.8185907 L62.2087012,42.8185907 L62.2087012,30.3508246 Z M75.3227915,30.3508246 L84.1734533,30.3508246 L84.1734533,31.2143928 L76.2402382,31.2143928 L76.2402382,36.125937 L83.417909,36.125937 L83.417909,36.9895052 L76.2402382,36.9895052 L76.2402382,42.0089955 L84.2813882,42.0089955 L84.2813882,42.8725637 L75.3227915,42.8725637 L75.3227915,30.3508246 Z M50.8755367,49.9970015 L55.0310304,49.9970015 L57.5135331,58.2008996 L60.265873,49.9970015 L63.6658223,49.9970015 L66.4181623,58.2008996 L68.900665,49.9970015 L72.9482237,49.9970015 L68.1990881,64.2458771 L64.7991388,64.2458771 L61.9928314,56.095952 L59.1325566,64.2458771 L55.7326072,64.2458771 L50.8755367,49.9970015 Z M72.8402888,56.9595202 C72.8402888,52.6416792 75.862466,49.2953523 80.179862,49.2953523 C85.1988348,49.2953523 87.5194352,52.9655172 87.5194352,57.2833583 C87.5194352,57.6071964 87.5194352,57.9850075 87.4654677,58.3088456 L77.6973593,58.3088456 C78.1290989,59.874063 79.2624153,60.6836582 80.8274714,60.6836582 C82.0687227,60.6836582 82.9861694,60.2518741 84.0655184,59.2263868 L86.8718258,61.5472264 C85.4686721,63.3283358 83.4718764,64.5157421 80.5576341,64.5157421 C76.0783358,64.5157421 72.8402888,61.4392804 72.8402888,56.9595202 Z M82.7702996,55.7181409 C82.6083972,54.0989505 81.6369831,53.0734633 80.2338294,53.0734633 C78.8846432,53.0734633 77.9671965,54.0989505 77.6973593,55.7181409 L82.7702996,55.7181409 Z M90.2717751,49.9970015 L97.5034134,49.9970015 C99.2843392,49.9970015 100.525591,50.4287856 101.38907,51.2383808 C101.928744,51.832084 102.306516,52.5877061 102.306516,53.5592204 L102.306516,53.6131934 C102.306516,55.2323838 101.38907,56.2038981 100.147818,56.7436282 C101.874777,57.2833583 102.954126,58.2548726 102.954126,60.197901 L102.954126,60.2518741 C102.954126,62.6806597 100.95733,64.137931 97.6113483,64.137931 L90.3257426,64.137931 L90.3257426,49.9970015 L90.2717751,49.9970015 Z M98.4748275,54.3688156 C98.4748275,53.5592204 97.8272181,53.1814093 96.6939016,53.1814093 L94.1034641,53.1814093 L94.1034641,55.6641679 L96.5859667,55.6641679 C97.7732506,55.6641679 98.4748275,55.2323838 98.4748275,54.3688156 Z M97.1256412,58.4167916 L94.1574315,58.4167916 L94.1574315,61.0074963 L97.1796087,61.0074963 C98.42086,61.0074963 99.0684694,60.5217391 99.0684694,59.7121439 L99.0684694,59.6581709 C99.014502,58.9025487 98.42086,58.4167916 97.1256412,58.4167916 Z M105.976303,49.9970015 L113.207941,49.9970015 C114.988867,49.9970015 116.230118,50.4287856 117.093598,51.2383808 C117.633272,51.832084 118.011044,52.5877061 118.011044,53.5592204 L118.011044,53.6131934 C118.011044,55.2323838 117.093598,56.2038981 115.852346,56.7436282 C117.579305,57.2833583 118.658654,58.2548726 118.658654,60.197901 L118.658654,60.2518741 C118.658654,62.6806597 116.661858,64.137931 113.315876,64.137931 L106.03027,64.137931 L106.03027,49.9970015 L105.976303,49.9970015 Z M114.125388,54.3688156 C114.125388,53.5592204 113.477779,53.1814093 112.344462,53.1814093 L109.754025,53.1814093 L109.754025,55.6641679 L112.236527,55.6641679 C113.423811,55.6641679 114.125388,55.2323838 114.125388,54.3688156 Z M112.776202,58.4167916 L109.807992,58.4167916 L109.807992,61.0074963 L112.830169,61.0074963 C114.017453,61.0074963 114.71903,60.5217391 114.71903,59.7121439 L114.71903,59.6581709 C114.71903,58.9025487 114.07142,58.4167916 112.776202,58.4167916 Z M124.001431,58.8485757 L118.604686,49.9970015 L123.083985,49.9970015 L125.998227,55.1784108 L128.912469,49.9970015 L133.283833,49.9970015 L127.887088,58.7946027 L127.887088,64.137931 L123.947464,64.137931 L123.947464,58.8485757 L124.001431,58.8485757 Z M57.2976633,70.1829085 L58.2151099,70.1829085 L64.0435945,82.7586207 L63.0182129,82.7586207 L61.4531569,79.2503748 L54.0596163,79.2503748 L52.4945602,82.7586207 L51.5231461,82.7586207 L57.2976633,70.1829085 Z M60.9674498,78.4407796 L57.7294029,71.2083958 L54.4373884,78.4407796 L60.9674498,78.4407796 Z M63.9356596,70.2908546 L64.9610411,70.2908546 L68.900665,81.4092954 L72.5704516,70.2368816 L73.2720284,70.2368816 L76.941815,81.4092954 L80.8814388,70.2908546 L81.8528529,70.2908546 L77.3195872,82.8665667 L76.5640429,82.8665667 L72.8942563,72.017991 L69.2244697,82.8665667 L68.4689254,82.8665667 L63.9356596,70.2908546 Z M87.8432399,70.2368816 L88.7606865,70.2368816 L94.5891711,82.8125937 L93.5637896,82.8125937 L91.9987335,79.3043478 L84.6591603,79.3043478 L83.0941043,82.8125937 L82.0147553,82.8125937 L87.8432399,70.2368816 Z M91.5130265,78.4407796 L88.221012,71.2083958 L84.9289976,78.4407796 L91.5130265,78.4407796 Z M96.6939016,70.2908546 L101.928744,70.2908546 C103.439833,70.2908546 104.681084,70.7766117 105.436629,71.5322339 C106.03027,72.125937 106.354075,72.9355322 106.354075,73.8530735 L106.354075,73.9070465 C106.354075,76.011994 104.789019,77.1994003 102.684289,77.4692654 L106.785815,82.8125937 L105.598531,82.8125937 L101.60494,77.6311844 L97.5034134,77.6311844 L97.5034134,82.8125937 L96.5859667,82.8125937 L96.5859667,70.2908546 L96.6939016,70.2908546 Z M101.820809,76.7676162 C103.92554,76.7676162 105.436629,75.7421289 105.436629,73.9070465 L105.436629,73.8530735 C105.436629,72.17991 104.14141,71.1004498 101.874777,71.1004498 L97.6113483,71.1004498 L97.6113483,76.7136432 L101.820809,76.7136432 L101.820809,76.7676162 Z M109.160383,70.2908546 L113.315876,70.2908546 C117.2555,70.2908546 119.953873,72.9895052 119.953873,76.4977511 L119.953873,76.5517241 C119.953873,80.05997 117.2555,82.8125937 113.315876,82.8125937 L109.160383,82.8125937 L109.160383,70.2908546 Z M110.077829,71.1544228 L110.077829,81.9490255 L113.315876,81.9490255 C116.769793,81.9490255 118.982458,79.5742129 118.982458,76.6056972 L118.982458,76.5517241 C118.982458,73.5832084 116.769793,71.1544228 113.315876,71.1544228 L110.077829,71.1544228 Z M121.626863,80.9775112 L122.220505,80.2758621 C123.569692,81.5172414 124.86491,82.1109445 126.699804,82.1109445 C128.588665,82.1109445 129.829916,81.0314843 129.829916,79.6281859 L129.829916,79.5742129 C129.829916,78.2788606 129.128339,77.4692654 126.322032,76.9295352 C123.353822,76.3358321 122.112571,75.3103448 122.112571,73.4212894 L122.112571,73.3673163 C122.112571,71.5322339 123.785561,70.0749625 126.106162,70.0749625 C127.941055,70.0749625 129.128339,70.5607196 130.36959,71.5862069 L129.775948,72.3418291 C128.588665,71.3163418 127.401381,70.9385307 126.052194,70.9385307 C124.217301,70.9385307 122.97605,71.964018 122.97605,73.3133433 L122.97605,73.3673163 C122.97605,74.6626687 123.677627,75.4722639 126.591869,76.11994 C129.506111,76.7136432 130.693395,77.7391304 130.693395,79.5742129 L130.693395,79.6281859 C130.693395,81.6251874 128.966437,83.0284858 126.537901,83.0284858 C124.649041,82.9745127 123.137952,82.2728636 121.626863,80.9775112 Z" id="Combined-Shape" fill="#000000" fill-rule="nonzero"></path>
                </g>
            </g>
        </g>
    </g>
</svg>