<svg width="140" height="140" viewBox="0 0 140 140" fill="none" xmlns="http://www.w3.org/2000/svg">
<path d="M14 73.1184V78.1079C52.5687 75.8531 23.882 74.6537 14 73.1184ZM14 81.3703C35.2512 82.6657 43.6941 83.6252 14.3358 86.3598L14 86.2639V81.3703ZM14 38H48.0115V102H40.9118V91.5412C39.3287 88.8066 38.7051 88.6147 32.8526 87.991C48.2513 83.0495 36.5944 80.5547 32.0371 79.7871C49.5945 75.0375 34.2918 73.1664 31.4135 71.8711C49.6425 68.6087 34.9634 65.0105 32.3729 64.2909C48.3473 59.4933 35.1552 57.0465 31.4135 55.7511C42.4948 53.8321 43.5022 49.946 28.0076 47.5472L25.7529 50.2819C38.3213 51.913 38.1774 53.3043 14 54.1199V38ZM14 65.5862V70.5757C21.2436 69.1364 54.3437 68.5607 14 65.5862ZM14 57.0465V62.3238C36.6423 61.1244 44.3177 59.5412 14 57.0465ZM56.3105 55.0795H52.4248V54.3118H61.0116V55.0795H57.126V65.3943H56.3105V55.0795ZM63.0744 54.3118H63.8899V59.4453H70.9896V54.3118H71.8051V65.3943H70.9896V60.2129H63.8899V65.3943H63.0744V54.3118ZM74.7314 54.3118H82.5986V55.0795H75.5469V59.4453H81.927V60.2129H75.5469V64.6747H82.6946V65.4423H74.7314V54.3118ZM53.0005 71.7751H56.6942L58.9009 79.0675L61.3474 71.7751H64.3696L66.8161 79.0675L69.0228 71.7751H72.6206L68.3992 84.4408H65.377L62.8825 77.1964L60.34 84.4408H57.3179L53.0005 71.7751ZM72.5247 77.964C72.5247 74.1259 75.2111 71.1514 79.0488 71.1514C83.5101 71.1514 85.5728 74.4138 85.5728 78.2519C85.5728 78.5397 85.5728 78.8756 85.5249 79.1634H76.8421C77.2259 80.5547 78.2333 81.2744 79.6244 81.2744C80.7277 81.2744 81.5433 80.8906 82.5027 79.979L84.9972 82.042C83.7499 83.6252 81.975 84.6807 79.3846 84.6807C75.403 84.6807 72.5247 81.946 72.5247 77.964ZM81.3514 76.8606C81.2075 75.4213 80.344 74.5097 79.0967 74.5097C77.8975 74.5097 77.0819 75.4213 76.8421 76.8606H81.3514ZM88.0194 71.7751H94.4475C96.0305 71.7751 97.1339 72.1589 97.9014 72.8786C98.3811 73.4063 98.7169 74.078 98.7169 74.9415V74.9895C98.7169 76.4288 97.9014 77.2924 96.7981 77.7721C98.3331 78.2519 99.2925 79.1154 99.2925 80.8426V80.8906C99.2925 83.0495 97.5176 84.3448 94.5434 84.3448H88.0673V71.7751H88.0194ZM95.311 75.6612C95.311 74.9415 94.7353 74.6057 93.7279 74.6057H91.4253V76.8126H93.632C94.6873 76.8126 95.311 76.4288 95.311 75.6612ZM94.1117 79.2594H91.4733V81.5622H94.1596C95.263 81.5622 95.8386 81.1304 95.8386 80.4108V80.3628C95.7907 79.6912 95.263 79.2594 94.1117 79.2594ZM101.979 71.7751H108.407C109.99 71.7751 111.093 72.1589 111.861 72.8786C112.341 73.4063 112.676 74.078 112.676 74.9415V74.9895C112.676 76.4288 111.861 77.2924 110.758 77.7721C112.293 78.2519 113.252 79.1154 113.252 80.8426V80.8906C113.252 83.0495 111.477 84.3448 108.503 84.3448H102.027V71.7751H101.979ZM109.223 75.6612C109.223 74.9415 108.647 74.6057 107.64 74.6057H105.337V76.8126H107.544C108.599 76.8126 109.223 76.4288 109.223 75.6612ZM108.023 79.2594H105.385V81.5622H108.071C109.127 81.5622 109.75 81.1304 109.75 80.4108V80.3628C109.75 79.6912 109.175 79.2594 108.023 79.2594ZM118.001 79.6432L113.204 71.7751H117.186L119.776 76.3808L122.367 71.7751H126.252L121.455 79.5952V84.3448H117.953V79.6432H118.001ZM58.709 89.7181H59.5245L64.7054 100.897H63.794L62.4028 97.7781H55.8308L54.4396 100.897H53.5761L58.709 89.7181ZM61.9711 97.0585L59.0928 90.6297L56.1666 97.0585H61.9711ZM64.6095 89.8141H65.5209L69.0228 99.6972L72.2848 89.7661H72.9085L76.1705 99.6972L79.6724 89.8141H80.5359L76.5063 100.993H75.8347L72.5727 91.3493L69.3106 100.993H68.639L64.6095 89.8141ZM85.8607 89.7661H86.6762L91.857 100.945H90.9456L89.5544 97.8261H83.0304L81.6392 100.945H80.6798L85.8607 89.7661ZM89.1227 97.0585L86.1964 90.6297L83.2702 97.0585H89.1227ZM93.7279 89.8141H98.3811C99.7243 89.8141 100.828 90.2459 101.499 90.9175C102.027 91.4453 102.315 92.1649 102.315 92.9805V93.0285C102.315 94.8995 100.924 95.955 99.0527 96.1949L102.698 100.945H101.643L98.0933 96.3388H94.4475V100.945H93.632V89.8141H93.7279ZM98.2852 95.5712C100.156 95.5712 101.499 94.6597 101.499 93.0285V92.9805C101.499 91.4933 100.348 90.5337 98.3331 90.5337H94.5434V95.5232H98.2852V95.5712ZM104.809 89.8141H108.503C112.005 89.8141 114.403 92.2129 114.403 95.3313V95.3793C114.403 98.4978 112.005 100.945 108.503 100.945H104.809V89.8141ZM105.625 90.5817V100.177H108.503C111.573 100.177 113.54 98.066 113.54 95.4273V95.3793C113.54 92.7406 111.573 90.5817 108.503 90.5817H105.625ZM115.891 99.3133L116.418 98.6897C117.617 99.7931 118.769 100.321 120.4 100.321C122.079 100.321 123.182 99.3613 123.182 98.1139V98.066C123.182 96.9145 122.559 96.1949 120.064 95.7151C117.426 95.1874 116.322 94.2759 116.322 92.5967V92.5487C116.322 90.9175 117.809 89.6222 119.872 89.6222C121.503 89.6222 122.559 90.054 123.662 90.9655L123.134 91.6372C122.079 90.7256 121.023 90.3898 119.824 90.3898C118.193 90.3898 117.09 91.3014 117.09 92.5008V92.5487C117.09 93.7002 117.713 94.4198 120.304 94.9955C122.894 95.5232 123.95 96.4348 123.95 98.066V98.1139C123.95 99.8891 122.415 101.136 120.256 101.136C118.577 101.088 117.234 100.465 115.891 99.3133Z" fill="black"/>
</svg>
