<?xml version="1.0" encoding="UTF-8"?>
<svg width="140px" height="96px" viewBox="0 0 140 96" version="1.1" xmlns="http://www.w3.org/2000/svg" xmlns:xlink="http://www.w3.org/1999/xlink">
    <!-- Generator: Sketch 50.2 (55047) - http://www.bohemiancoding.com/sketch -->
    <title>award_awwwards</title>
    <desc>Created with Sketch.</desc>
    <defs></defs>
    <g id="Page-2" stroke="none" stroke-width="1" fill="none" fill-rule="evenodd">
        <g id="Desktop-HD" transform="translate(-942.000000, -1979.000000)">
            <g id="Group-11" transform="translate(772.000000, 1978.000000)">
                <g id="award_awwwards" transform="translate(170.000000, 1.000000)">
                    <path d="M57.8294479,13 L69.004908,18.9190184 L57.8294479,24.8822086 L57.8294479,13 Z M92.6368098,31.5079755 C92.6368098,31.5079755 95.1546012,32.9656442 95.1546012,34.9092025 C95.1546012,36.5435583 95.1546012,51.3411043 95.1546012,52.9312883 C95.1546012,54.8748466 92.6368098,56.3325153 92.6368098,56.3325153 L57.8294479,74.8404908 L57.8294479,61.5889571 L52.396319,58.7177914 L80.2245399,43.9202454 L71.6110429,39.3263804 L89.5006135,29.8294479 L92.6368098,31.5079755 Z M82.7423313,74.8404908 L71.5668712,68.9214724 L82.7423313,62.9582822 L82.7423313,74.8404908 Z M60.391411,43.9202454 L68.9607362,48.5141104 L51.0711656,58.0110429 L47.9349693,56.3325153 C47.9349693,56.3325153 45.4171779,54.8748466 45.4171779,52.9312883 C45.4171779,51.2969325 45.4171779,36.4993865 45.4171779,34.9092025 C45.4171779,32.9656442 47.9349693,31.5079755 47.9349693,31.5079755 L82.7865031,13 L82.7865031,26.2515337 L88.2196319,29.1226994 L60.391411,43.9202454 Z M41.2650307,83.1447853 C41.5742331,83.3214724 42.0159509,83.4539877 42.4576687,83.4539877 C42.9435583,83.4539877 43.208589,83.2331288 43.208589,82.9239264 C43.208589,82.6147239 42.9877301,82.4380368 42.4134969,82.2613497 C41.6184049,81.996319 41.0883436,81.5546012 41.0883436,80.8478528 C41.0883436,80.0527607 41.7509202,79.4343558 42.8993865,79.4343558 C43.4294479,79.4343558 43.8269939,79.5668712 44.1361963,79.6552147 L43.9153374,80.5386503 C43.7386503,80.4503067 43.3852761,80.3177914 42.8993865,80.3177914 C42.4134969,80.3177914 42.192638,80.5386503 42.192638,80.7595092 C42.192638,81.0687117 42.4576687,81.201227 43.0760736,81.4220859 C43.9153374,81.7312883 44.3128834,82.1730061 44.3128834,82.8355828 C44.3128834,83.6306748 43.6944785,84.2932515 42.3693252,84.2932515 C41.8392638,84.2932515 41.3092025,84.1607362 41,83.9840491 L41.2650307,83.1447853 Z M45.1079755,79.5668712 C45.4613497,79.5226994 45.9030675,79.4785276 46.5656442,79.4785276 C47.2282209,79.4785276 47.7141104,79.6110429 48.0233129,79.8760736 C48.3325153,80.0969325 48.5533742,80.4944785 48.5533742,80.9803681 C48.5533742,81.4662577 48.3766871,81.8638037 48.1116564,82.1288344 C47.7582822,82.4822086 47.1840491,82.6147239 46.5656442,82.6147239 C46.4331288,82.6147239 46.3006135,82.6147239 46.2122699,82.6147239 L46.2122699,84.3374233 L45.1079755,84.3374233 L45.1079755,79.5668712 Z M46.1680982,81.7312883 C46.2564417,81.7312883 46.3889571,81.7754601 46.5214724,81.7754601 C47.0957055,81.7754601 47.4490798,81.4662577 47.4490798,80.9803681 C47.4490798,80.5386503 47.1398773,80.2736196 46.609816,80.2736196 C46.3889571,80.2736196 46.2564417,80.2736196 46.1680982,80.3177914 L46.1680982,81.7312883 Z M52.1312883,82.2613497 L50.3644172,82.2613497 L50.3644172,83.409816 L52.3079755,83.409816 L52.3079755,84.2932515 L49.2601227,84.2932515 L49.2601227,79.5226994 L52.2196319,79.5226994 L52.2196319,80.406135 L50.3644172,80.406135 L50.3644172,81.3779141 L52.1312883,81.3779141 L52.1312883,82.2613497 Z M56.6368098,84.1607362 C56.4601227,84.2490798 55.9742331,84.3815951 55.4,84.3815951 C53.7656442,84.3815951 52.8822086,83.3656442 52.8822086,81.996319 C52.8822086,80.3619632 54.0306748,79.4785276 55.4883436,79.4785276 C56.0625767,79.4785276 56.4601227,79.6110429 56.6809816,79.6993865 L56.4601227,80.5386503 C56.2392638,80.4503067 55.9300613,80.3619632 55.5766871,80.3619632 C54.7374233,80.3619632 54.0748466,80.8920245 54.0748466,81.9521472 C54.0748466,82.9239264 54.6490798,83.4981595 55.6208589,83.4981595 C55.9300613,83.4981595 56.3276074,83.409816 56.5042945,83.3214724 L56.6368098,84.1607362 Z M58.4920245,79.5226994 L58.4920245,84.2932515 L57.4319018,84.2932515 L57.4319018,79.5226994 L58.4920245,79.5226994 Z M60.6122699,83.0564417 L60.2588957,84.2932515 L59.1546012,84.2932515 L60.6122699,79.5226994 L62.0257669,79.5226994 L63.4834356,84.2932515 L62.3349693,84.2932515 L61.9815951,83.0564417 L60.6122699,83.0564417 Z M61.804908,82.2613497 L61.4957055,81.2453988 C61.407362,80.9803681 61.3190184,80.6269939 61.2748466,80.3177914 C61.1865031,80.5828221 61.1423313,80.9803681 61.0539877,81.2453988 L60.7889571,82.2613497 L61.804908,82.2613497 Z M64.190184,79.5226994 L65.2503067,79.5226994 L65.2503067,83.3656442 L67.1496933,83.3656442 L67.1496933,84.2490798 L64.190184,84.2490798 L64.190184,79.5226994 Z M73.4220859,82.4380368 C73.4220859,81.8638037 73.3779141,81.1570552 73.3779141,80.4944785 C73.2453988,81.1128834 73.0245399,81.7754601 72.8478528,82.3496933 L72.2736196,84.204908 L71.4343558,84.204908 L70.9042945,82.3496933 C70.7276074,81.7754601 70.595092,81.1128834 70.4625767,80.4944785 C70.4184049,81.1570552 70.4184049,81.8638037 70.3742331,82.4822086 L70.2858896,84.2932515 L69.2699387,84.2932515 L69.5791411,79.5226994 L70.992638,79.5226994 L71.4785276,81.1128834 C71.6110429,81.6429448 71.7877301,82.2613497 71.8760736,82.8355828 C72.008589,82.3055215 72.1852761,81.6429448 72.3177914,81.1128834 L72.8478528,79.5226994 L74.2613497,79.5226994 L74.5263804,84.2932515 L73.4662577,84.2932515 L73.4220859,82.4380368 Z M78.2809816,82.2613497 L76.5141104,82.2613497 L76.5141104,83.409816 L78.4576687,83.409816 L78.4576687,84.2932515 L75.409816,84.2932515 L75.409816,79.5226994 L78.3693252,79.5226994 L78.3693252,80.406135 L76.5141104,80.406135 L76.5141104,81.3779141 L78.2809816,81.3779141 L78.2809816,82.2613497 Z M79.2969325,84.2932515 L79.2969325,79.5226994 L80.5337423,79.5226994 L81.5055215,81.2895706 C81.7705521,81.7754601 82.0797546,82.393865 82.3006135,82.9239264 C82.2122699,82.3055215 82.2122699,81.6429448 82.2122699,80.9361963 L82.2122699,79.5226994 L83.1840491,79.5226994 L83.1840491,84.2932515 L82.0355828,84.2932515 L81.0196319,82.4380368 C80.7546012,81.9079755 80.4453988,81.3337423 80.1803681,80.7595092 C80.2245399,81.3779141 80.2245399,82.0404908 80.2245399,82.8355828 L80.2245399,84.2490798 L79.2969325,84.2490798 L79.2969325,84.2932515 Z M85.1276074,80.406135 L83.8466258,80.406135 L83.8466258,79.5226994 L87.5128834,79.5226994 L87.5128834,80.406135 L86.2319018,80.406135 L86.2319018,84.2490798 L85.1717791,84.2490798 L85.1717791,80.406135 L85.1276074,80.406135 Z M89.2355828,79.5226994 L89.2355828,84.2932515 L88.1754601,84.2932515 L88.1754601,79.5226994 L89.2355828,79.5226994 Z M94.6245399,81.8638037 C94.6245399,83.409816 93.6969325,84.3815951 92.2834356,84.3815951 C90.8699387,84.3815951 90.0306748,83.3214724 90.0306748,81.9521472 C90.0306748,80.5386503 90.9582822,79.4343558 92.3276074,79.4343558 C93.8294479,79.4343558 94.6245399,80.5386503 94.6245399,81.8638037 Z M91.1791411,81.9079755 C91.1791411,82.8355828 91.6208589,83.4981595 92.3276074,83.4981595 C93.0343558,83.4981595 93.4760736,82.791411 93.4760736,81.8638037 C93.4760736,81.0245399 93.0785276,80.2736196 92.3276074,80.2736196 C91.6208589,80.2736196 91.1791411,80.9803681 91.1791411,81.9079755 Z M95.3754601,84.2932515 L95.3754601,79.5226994 L96.6122699,79.5226994 L97.5840491,81.2895706 C97.8490798,81.7754601 98.1582822,82.393865 98.3791411,82.9239264 C98.2907975,82.3055215 98.2907975,81.6429448 98.2907975,80.9361963 L98.2907975,79.5226994 L99.2625767,79.5226994 L99.2625767,84.2932515 L98.1141104,84.2932515 L97.0981595,82.4380368 C96.8331288,81.9079755 96.5239264,81.3337423 96.2588957,80.7595092 C96.3030675,81.3779141 96.3030675,82.0404908 96.3030675,82.8355828 L96.3030675,84.2490798 L95.3754601,84.2490798 L95.3754601,84.2932515 Z" id="Combined-Shape" fill="#000000" fill-rule="nonzero"></path>
                </g>
            </g>
        </g>
    </g>
</svg>