<?xml version="1.0" encoding="UTF-8"?>
<svg width="140px" height="96px" viewBox="0 0 140 96" version="1.1" xmlns="http://www.w3.org/2000/svg" xmlns:xlink="http://www.w3.org/1999/xlink">
    <!-- Generator: Sketch 50.2 (55047) - http://www.bohemiancoding.com/sketch -->
    <title>award_pixel</title>
    <desc>Created with Sketch.</desc>
    <defs></defs>
    <g id="Page-2" stroke="none" stroke-width="1" fill="none" fill-rule="evenodd">
        <g id="Desktop-HD" transform="translate(-942.000000, -2104.000000)">
            <g id="Group-11" transform="translate(772.000000, 1978.000000)">
                <g id="award_pixel" transform="translate(170.000000, 126.000000)">
                    <path d="M70,12 C89.89,12 106,28.11 106,48 C106,67.89 89.89,84 70,84 C50.11,84 34,67.89 34,48 C34,28.11 50.11,12 70,12 Z M70,20.37 C85.255,20.37 97.63,32.745 97.63,48 C97.63,63.255 85.255,75.63 70,75.63 C54.745,75.63 42.37,63.255 42.37,48 C42.37,32.745 54.745,20.37 70,20.37 Z M63.835,46.065 C64.6,46.065 65.23,46.695 65.23,47.46 C65.23,48.225 64.6,48.855 63.835,48.855 C63.07,48.855 62.44,48.225 62.44,47.46 C62.44,46.695 63.07,46.065 63.835,46.065 Z M63.835,49.17 C64.6,49.17 65.23,49.8 65.23,50.565 C65.23,51.33 64.6,51.96 63.835,51.96 C63.07,51.96 62.44,51.33 62.44,50.565 C62.44,49.8 63.07,49.17 63.835,49.17 Z M63.835,33.69 C64.6,33.69 65.23,34.32 65.23,35.085 C65.23,35.85 64.6,36.48 63.835,36.48 C63.07,36.48 62.44,35.85 62.44,35.085 C62.44,34.32 63.07,33.69 63.835,33.69 Z M63.835,30.585 C64.6,30.585 65.23,31.215 65.23,31.98 C65.23,32.745 64.6,33.375 63.835,33.375 C63.07,33.375 62.44,32.745 62.44,31.98 C62.44,31.215 63.07,30.585 63.835,30.585 Z M63.835,36.795 C64.6,36.795 65.23,37.38 65.23,38.19 C65.23,38.955 64.6,39.585 63.835,39.585 C63.07,39.585 62.44,38.955 62.44,38.19 C62.44,37.425 63.07,36.795 63.835,36.795 Z M63.835,52.275 C64.6,52.275 65.23,52.905 65.23,53.67 C65.23,54.435 64.6,55.065 63.835,55.065 C63.07,55.065 62.44,54.435 62.44,53.67 C62.44,52.905 63.07,52.275 63.835,52.275 Z M60.775,27.48 C61.54,27.48 62.125,28.11 62.17,28.875 C62.17,29.64 61.54,30.27 60.775,30.27 C60.01,30.27 59.38,29.64 59.38,28.875 C59.38,28.11 60.01,27.48 60.775,27.48 Z M63.835,61.59 C64.6,61.59 65.23,62.22 65.23,62.985 C65.23,63.75 64.6,64.38 63.835,64.38 C63.07,64.38 62.44,63.75 62.44,62.985 C62.44,62.22 63.07,61.59 63.835,61.59 Z M63.835,27.48 C64.6,27.48 65.23,28.11 65.23,28.875 C65.23,29.64 64.6,30.27 63.835,30.27 C63.07,30.27 62.44,29.64 62.44,28.875 C62.44,28.11 63.07,27.48 63.835,27.48 Z M63.835,55.38 C64.6,55.38 65.23,56.01 65.23,56.775 C65.23,57.54 64.6,58.17 63.835,58.17 C63.07,58.17 62.44,57.54 62.44,56.775 C62.44,56.01 63.07,55.38 63.835,55.38 Z M70,36.795 C70.765,36.795 71.395,37.38 71.395,38.19 C71.395,38.955 70.765,39.585 70,39.585 C69.235,39.585 68.605,38.955 68.605,38.19 C68.605,37.425 69.235,36.795 70,36.795 Z M66.94,49.17 C67.66,49.17 68.29,49.8 68.335,50.565 C68.335,51.33 67.705,51.96 66.94,51.96 C66.175,51.96 65.545,51.33 65.545,50.565 C65.545,49.8 66.175,49.17 66.94,49.17 Z M70,52.275 C70.765,52.275 71.395,52.905 71.395,53.67 C71.395,54.435 70.765,55.065 70,55.065 C69.235,55.065 68.605,54.435 68.605,53.67 C68.605,52.905 69.235,52.275 70,52.275 Z M70,49.17 C70.765,49.17 71.395,49.8 71.395,50.565 C71.395,51.33 70.765,51.96 70,51.96 C69.235,51.96 68.605,51.33 68.605,50.565 C68.605,49.8 69.235,49.17 70,49.17 Z M70,46.065 C70.765,46.065 71.395,46.695 71.395,47.46 C71.395,48.225 70.765,48.855 70,48.855 C69.235,48.855 68.605,48.225 68.605,47.46 C68.605,46.695 69.235,46.065 70,46.065 Z M70,42.96 C70.765,42.96 71.395,43.59 71.395,44.355 C71.395,45.12 70.765,45.75 70,45.75 C69.235,45.75 68.605,45.12 68.605,44.355 C68.605,43.59 69.235,42.96 70,42.96 Z M70,39.9 C70.765,39.9 71.395,40.485 71.395,41.295 C71.395,42.06 70.765,42.69 70,42.69 C69.235,42.69 68.605,42.06 68.605,41.295 C68.605,40.53 69.235,39.9 70,39.9 Z M66.94,52.275 C67.66,52.275 68.29,52.905 68.335,53.67 C68.335,54.435 67.705,55.065 66.94,55.065 C66.175,55.065 65.545,54.435 65.545,53.67 C65.545,52.905 66.175,52.275 66.94,52.275 Z M60.775,33.69 C61.54,33.69 62.125,34.32 62.17,35.085 C62.17,35.85 61.54,36.48 60.775,36.48 C60.01,36.48 59.38,35.85 59.38,35.085 C59.38,34.32 60.01,33.69 60.775,33.69 Z M66.94,33.69 C67.66,33.69 68.29,34.32 68.335,35.085 C68.335,35.85 67.705,36.48 66.94,36.48 C66.175,36.48 65.545,35.85 65.545,35.085 C65.545,34.32 66.175,33.69 66.94,33.69 Z M66.94,55.38 C67.66,55.38 68.29,56.01 68.335,56.775 C68.335,57.54 67.705,58.17 66.94,58.17 C66.175,58.17 65.545,57.54 65.545,56.775 C65.545,56.01 66.175,55.38 66.94,55.38 Z M66.94,36.795 C67.66,36.795 68.29,37.38 68.335,38.19 C68.335,38.955 67.705,39.585 66.94,39.585 C66.175,39.585 65.545,38.955 65.545,38.19 C65.545,37.425 66.175,36.795 66.94,36.795 Z M66.94,46.065 C67.66,46.065 68.29,46.695 68.335,47.46 C68.335,48.225 67.705,48.855 66.94,48.855 C66.175,48.855 65.545,48.225 65.545,47.46 C65.545,46.695 66.175,46.065 66.94,46.065 Z M63.835,58.485 C64.6,58.485 65.23,59.115 65.23,59.88 C65.23,60.645 64.6,61.275 63.835,61.275 C63.07,61.275 62.44,60.645 62.44,59.88 C62.44,59.115 63.07,58.485 63.835,58.485 Z M54.61,46.065 C55.375,46.065 55.96,46.695 56.005,47.46 C56.005,48.225 55.375,48.855 54.61,48.855 C53.845,48.855 53.215,48.225 53.215,47.46 C53.215,46.695 53.845,46.065 54.61,46.065 Z M54.61,51.96 C53.8395628,51.96 53.215,51.3354372 53.215,50.565 C53.215,49.7945628 53.8395628,49.17 54.61,49.17 C55.3804372,49.17 56.005,49.7945628 56.005,50.565 C56.005,51.3354372 55.3804372,51.96 54.61,51.96 Z M54.61,42.96 C55.375,42.96 55.96,43.59 56.005,44.355 C56.005,45.12 55.375,45.75 54.61,45.75 C53.845,45.75 53.215,45.12 53.215,44.355 C53.215,43.59 53.845,42.96 54.61,42.96 Z M54.61,42.645 C53.8395628,42.645 53.215,42.0204372 53.215,41.25 C53.215,40.4795628 53.8395628,39.855 54.61,39.855 C55.3804372,39.855 56.005,40.4795628 56.005,41.25 C56.005,42.0204372 55.3804372,42.645 54.61,42.645 Z M57.67,61.59 C58.435,61.59 59.065,62.22 59.065,62.985 C59.065,63.75 58.435,64.38 57.67,64.38 C56.905,64.38 56.275,63.75 56.275,62.985 C56.275,62.22 56.905,61.59 57.67,61.59 Z M51.505,49.17 C52.27,49.17 52.9,49.8 52.9,50.565 C52.9,51.33 52.27,51.96 51.505,51.96 C50.74,51.96 50.11,51.33 50.11,50.565 C50.11,49.8 50.74,49.17 51.505,49.17 Z M48.445,46.065 C49.21,46.065 49.84,46.695 49.84,47.46 C49.84,48.225 49.21,48.855 48.445,48.855 C47.68,48.855 47.05,48.225 47.05,47.46 C47.05,46.695 47.68,46.065 48.445,46.065 Z M57.67,58.485 C58.435,58.485 59.065,59.115 59.065,59.88 C59.065,60.645 58.435,61.275 57.67,61.275 C56.905,61.275 56.275,60.645 56.275,59.88 C56.275,59.115 56.905,58.485 57.67,58.485 Z M54.61,61.275 C53.8395628,61.275 53.215,60.6504372 53.215,59.88 C53.215,59.1095628 53.8395628,58.485 54.61,58.485 C55.3804372,58.485 56.005,59.1095628 56.005,59.88 C56.005,60.6504372 55.3804372,61.275 54.61,61.275 Z M51.505,46.065 C52.27,46.065 52.9,46.695 52.9,47.46 C52.9,48.225 52.27,48.855 51.505,48.855 C50.74,48.855 50.11,48.225 50.11,47.46 C50.11,46.695 50.74,46.065 51.505,46.065 Z M54.61,64.335 C53.8395628,64.335 53.215,63.7104372 53.215,62.94 C53.215,62.1695628 53.8395628,61.545 54.61,61.545 C55.3804372,61.545 56.005,62.1695628 56.005,62.94 C56.005,63.7104372 55.3804372,64.335 54.61,64.335 Z M60.775,46.065 C61.54,46.065 62.125,46.695 62.17,47.46 C62.17,48.225 61.54,48.855 60.775,48.855 C60.01,48.855 59.38,48.225 59.38,47.46 C59.38,46.695 60.01,46.065 60.775,46.065 Z M60.775,58.485 C61.54,58.485 62.125,59.115 62.17,59.88 C62.17,60.645 61.54,61.275 60.775,61.275 C60.01,61.275 59.38,60.645 59.38,59.88 C59.38,59.115 60.01,58.485 60.775,58.485 Z M60.775,61.59 C61.54,61.59 62.125,62.22 62.17,62.985 C62.17,63.75 61.54,64.38 60.775,64.38 C60.01,64.38 59.38,63.75 59.38,62.985 C59.38,62.22 60.01,61.59 60.775,61.59 Z M60.775,55.38 C61.54,55.38 62.125,56.01 62.17,56.775 C62.17,57.54 61.54,58.17 60.775,58.17 C60.01,58.17 59.38,57.54 59.38,56.775 C59.38,56.01 60.01,55.38 60.775,55.38 Z M60.775,49.17 C61.54,49.17 62.125,49.8 62.17,50.565 C62.17,51.33 61.54,51.96 60.775,51.96 C60.01,51.96 59.38,51.33 59.38,50.565 C59.38,49.8 60.01,49.17 60.775,49.17 Z M60.775,36.795 C61.54,36.795 62.125,37.38 62.17,38.19 C62.17,38.955 61.54,39.585 60.775,39.585 C60.01,39.585 59.38,38.955 59.38,38.19 C59.38,37.425 60.01,36.795 60.775,36.795 Z M57.67,46.065 C58.435,46.065 59.065,46.695 59.065,47.46 C59.065,48.225 58.435,48.855 57.67,48.855 C56.905,48.855 56.275,48.225 56.275,47.46 C56.275,46.695 56.905,46.065 57.67,46.065 Z M57.67,42.96 C58.435,42.96 59.065,43.59 59.065,44.355 C59.065,45.12 58.435,45.75 57.67,45.75 C56.905,45.75 56.275,45.12 56.275,44.355 C56.275,43.59 56.905,42.96 57.67,42.96 Z M57.67,55.38 C58.435,55.38 59.065,56.01 59.065,56.775 C59.065,57.54 58.435,58.17 57.67,58.17 C56.905,58.17 56.275,57.54 56.275,56.775 C56.275,56.01 56.905,55.38 57.67,55.38 Z M57.67,39.9 C58.435,39.9 59.065,40.485 59.065,41.295 C59.065,42.06 58.435,42.69 57.67,42.69 C56.905,42.69 56.275,42.06 56.275,41.295 C56.275,40.53 56.905,39.9 57.67,39.9 Z M57.67,36.795 C58.435,36.795 59.065,37.38 59.065,38.19 C59.065,38.955 58.435,39.585 57.67,39.585 C56.905,39.585 56.275,38.955 56.275,38.19 C56.275,37.425 56.905,36.795 57.67,36.795 Z M88.495,51.96 C87.7245628,51.96 87.1,51.3354372 87.1,50.565 C87.1,49.7945628 87.7245628,49.17 88.495,49.17 C89.2654372,49.17 89.89,49.7945628 89.89,50.565 C89.89,51.3354372 89.2654372,51.96 88.495,51.96 Z M82.33,46.065 C83.095,46.065 83.725,46.695 83.725,47.46 C83.725,48.225 83.095,48.855 82.33,48.855 C81.565,48.855 80.935,48.225 80.935,47.46 C80.935,46.695 81.565,46.065 82.33,46.065 Z M82.33,36.795 C83.095,36.795 83.725,37.38 83.725,38.19 C83.725,38.955 83.095,39.585 82.33,39.585 C81.565,39.585 80.935,38.955 80.935,38.19 C80.935,37.425 81.565,36.795 82.33,36.795 Z M82.33,55.38 C83.095,55.38 83.725,56.01 83.725,56.775 C83.725,57.54 83.095,58.17 82.33,58.17 C81.565,58.17 80.935,57.54 80.935,56.775 C80.935,56.01 81.565,55.38 82.33,55.38 Z M82.33,42.645 C81.5595628,42.645 80.935,42.0204372 80.935,41.25 C80.935,40.4795628 81.5595628,39.855 82.33,39.855 C83.1004372,39.855 83.725,40.4795628 83.725,41.25 C83.725,42.0204372 83.1004372,42.645 82.33,42.645 Z M82.33,42.96 C83.095,42.96 83.725,43.59 83.725,44.355 C83.725,45.12 83.095,45.75 82.33,45.75 C81.565,45.75 80.935,45.12 80.935,44.355 C80.935,43.59 81.565,42.96 82.33,42.96 Z M82.33,61.275 C81.5595628,61.275 80.935,60.6504372 80.935,59.88 C80.935,59.1095628 81.5595628,58.485 82.33,58.485 C83.1004372,58.485 83.725,59.1095628 83.725,59.88 C83.725,60.6504372 83.1004372,61.275 82.33,61.275 Z M82.33,64.335 C81.5595628,64.335 80.935,63.7104372 80.935,62.94 C80.935,62.1695628 81.5595628,61.545 82.33,61.545 C83.1004372,61.545 83.725,62.1695628 83.725,62.94 C83.725,63.7104372 83.1004372,64.335 82.33,64.335 Z M79.225,33.69 C79.99,33.69 80.62,34.32 80.62,35.085 C80.62,35.85 79.99,36.48 79.225,36.48 C78.46,36.48 77.83,35.85 77.83,35.085 C77.83,34.32 78.46,33.69 79.225,33.69 Z M79.225,36.795 C79.99,36.795 80.62,37.38 80.62,38.19 C80.62,38.955 79.99,39.585 79.225,39.585 C78.46,39.585 77.83,38.955 77.83,38.19 C77.83,37.425 78.46,36.795 79.225,36.795 Z M79.225,30.27 C78.4545628,30.27 77.83,29.6454372 77.83,28.875 C77.83,28.1045628 78.4545628,27.48 79.225,27.48 C79.9954372,27.48 80.62,28.1045628 80.62,28.875 C80.62,29.6454372 79.9954372,30.27 79.225,30.27 Z M91.555,46.065 C92.32,46.065 92.95,46.695 92.95,47.46 C92.95,48.225 92.32,48.855 91.555,48.855 C90.79,48.855 90.16,48.225 90.16,47.46 C90.16,46.695 90.79,46.065 91.555,46.065 Z M88.495,46.065 C89.26,46.065 89.845,46.695 89.89,47.46 C89.89,48.225 89.26,48.855 88.495,48.855 C87.73,48.855 87.1,48.225 87.1,47.46 C87.1,46.695 87.73,46.065 88.495,46.065 Z M79.225,46.065 C79.99,46.065 80.62,46.695 80.62,47.46 C80.62,48.225 79.99,48.855 79.225,48.855 C78.46,48.855 77.83,48.225 77.83,47.46 C77.83,46.695 78.46,46.065 79.225,46.065 Z M85.39,42.645 C84.6195628,42.645 83.995,42.0204372 83.995,41.25 C83.995,40.4795628 84.6195628,39.855 85.39,39.855 C86.1604372,39.855 86.785,40.4795628 86.785,41.25 C86.785,42.0204372 86.1604372,42.645 85.39,42.645 Z M70,73.56 C84.13,73.56 95.56,62.13 95.56,48 C95.56,33.87 84.13,22.44 70,22.44 C55.87,22.44 44.44,33.87 44.44,48 C44.44,62.085 55.87,73.56 70,73.56 Z M70,79.905 C87.64,79.905 101.905,65.64 101.905,48 C101.905,30.36 87.64,16.095 70,16.095 C52.36,16.095 38.095,30.36 38.095,48 C38.095,65.64 52.36,79.905 70,79.905 Z M85.39,42.96 C86.155,42.96 86.785,43.59 86.785,44.355 C86.785,45.12 86.155,45.75 85.39,45.75 C84.625,45.75 83.995,45.12 83.995,44.355 C83.995,43.59 84.625,42.96 85.39,42.96 Z M85.39,61.275 C84.6195628,61.275 83.995,60.6504372 83.995,59.88 C83.995,59.1095628 84.6195628,58.485 85.39,58.485 C86.1604372,58.485 86.785,59.1095628 86.785,59.88 C86.785,60.6504372 86.1604372,61.275 85.39,61.275 Z M85.39,51.96 C84.6195628,51.96 83.995,51.3354372 83.995,50.565 C83.995,49.7945628 84.6195628,49.17 85.39,49.17 C86.1604372,49.17 86.785,49.7945628 86.785,50.565 C86.785,51.3354372 86.1604372,51.96 85.39,51.96 Z M85.39,64.335 C84.6195628,64.335 83.995,63.7104372 83.995,62.94 C83.995,62.1695628 84.6195628,61.545 85.39,61.545 C86.1604372,61.545 86.785,62.1695628 86.785,62.94 C86.785,63.7104372 86.1604372,64.335 85.39,64.335 Z M85.39,46.065 C86.155,46.065 86.785,46.695 86.785,47.46 C86.785,48.225 86.155,48.855 85.39,48.855 C84.625,48.855 83.995,48.225 83.995,47.46 C83.995,46.695 84.625,46.065 85.39,46.065 Z M73.06,55.38 C73.825,55.38 74.455,56.01 74.455,56.775 C74.455,57.54 73.825,58.17 73.06,58.17 C72.295,58.17 71.665,57.54 71.665,56.775 C71.665,56.01 72.295,55.38 73.06,55.38 Z M73.06,46.065 C73.825,46.065 74.455,46.695 74.455,47.46 C74.455,48.225 73.825,48.855 73.06,48.855 C72.295,48.855 71.665,48.225 71.665,47.46 C71.665,46.695 72.295,46.065 73.06,46.065 Z M73.06,36.795 C73.825,36.795 74.455,37.38 74.455,38.19 C74.455,38.955 73.825,39.585 73.06,39.585 C72.295,39.585 71.665,38.955 71.665,38.19 C71.665,37.425 72.295,36.795 73.06,36.795 Z M73.06,33.69 C73.825,33.69 74.455,34.32 74.455,35.085 C74.455,35.85 73.825,36.48 73.06,36.48 C72.295,36.48 71.665,35.85 71.665,35.085 C71.665,34.32 72.295,33.69 73.06,33.69 Z M76.165,61.59 C76.93,61.59 77.56,62.22 77.56,62.985 C77.56,63.75 76.93,64.38 76.165,64.38 C75.4,64.38 74.77,63.75 74.77,62.985 C74.77,62.22 75.4,61.59 76.165,61.59 Z M76.165,55.38 C76.93,55.38 77.56,56.01 77.56,56.775 C77.56,57.54 76.93,58.17 76.165,58.17 C75.4,58.17 74.77,57.54 74.77,56.775 C74.77,56.01 75.4,55.38 76.165,55.38 Z M76.165,58.485 C76.93,58.485 77.56,59.115 77.56,59.88 C77.56,60.645 76.93,61.275 76.165,61.275 C75.4,61.275 74.77,60.645 74.77,59.88 C74.77,59.115 75.4,58.485 76.165,58.485 Z M79.225,51.96 C78.4545628,51.96 77.83,51.3354372 77.83,50.565 C77.83,49.7945628 78.4545628,49.17 79.225,49.17 C79.9954372,49.17 80.62,49.7945628 80.62,50.565 C80.62,51.3354372 79.9954372,51.96 79.225,51.96 Z M73.06,49.17 C73.825,49.17 74.455,49.8 74.455,50.565 C74.455,51.33 73.825,51.96 73.06,51.96 C72.295,51.96 71.665,51.33 71.665,50.565 C71.665,49.8 72.295,49.17 73.06,49.17 Z M70,33.69 C70.765,33.69 71.395,34.32 71.395,35.085 C71.395,35.85 70.765,36.48 70,36.48 C69.235,36.48 68.605,35.85 68.605,35.085 C68.605,34.32 69.235,33.69 70,33.69 Z M73.06,52.275 C73.825,52.275 74.455,52.905 74.455,53.67 C74.455,54.435 73.825,55.065 73.06,55.065 C72.295,55.065 71.665,54.435 71.665,53.67 C71.665,52.905 72.295,52.275 73.06,52.275 Z M70,30.585 C70.765,30.585 71.395,31.215 71.395,31.98 C71.395,32.745 70.765,33.375 70,33.375 C69.235,33.375 68.605,32.745 68.605,31.98 C68.605,31.215 69.235,30.585 70,30.585 Z M79.225,64.335 C78.4545628,64.335 77.83,63.7104372 77.83,62.94 C77.83,62.1695628 78.4545628,61.545 79.225,61.545 C79.9954372,61.545 80.62,62.1695628 80.62,62.94 C80.62,63.7104372 79.9954372,64.335 79.225,64.335 Z M76.165,27.48 C76.93,27.48 77.56,28.11 77.56,28.875 C77.56,29.64 76.93,30.27 76.165,30.27 C75.4,30.27 74.77,29.64 74.77,28.875 C74.77,28.11 75.4,27.48 76.165,27.48 Z M76.165,30.585 C76.93,30.585 77.56,31.215 77.56,31.98 C77.56,32.745 76.93,33.375 76.165,33.375 C75.4,33.375 74.77,32.745 74.77,31.98 C74.77,31.215 75.4,30.585 76.165,30.585 Z M79.225,61.275 C78.4545628,61.275 77.83,60.6504372 77.83,59.88 C77.83,59.1095628 78.4545628,58.485 79.225,58.485 C79.9954372,58.485 80.62,59.1095628 80.62,59.88 C80.62,60.6504372 79.9954372,61.275 79.225,61.275 Z M79.225,55.38 C79.99,55.38 80.62,56.01 80.62,56.775 C80.62,57.54 79.99,58.17 79.225,58.17 C78.46,58.17 77.83,57.54 77.83,56.775 C77.83,56.01 78.46,55.38 79.225,55.38 Z M76.165,52.275 C76.93,52.275 77.56,52.905 77.56,53.67 C77.56,54.435 76.93,55.065 76.165,55.065 C75.4,55.065 74.77,54.435 74.77,53.67 C74.77,52.905 75.4,52.275 76.165,52.275 Z M76.165,33.69 C76.93,33.69 77.56,34.32 77.56,35.085 C77.56,35.85 76.93,36.48 76.165,36.48 C75.4,36.48 74.77,35.85 74.77,35.085 C74.77,34.32 75.4,33.69 76.165,33.69 Z M76.165,46.065 C76.93,46.065 77.56,46.695 77.56,47.46 C77.56,48.225 76.93,48.855 76.165,48.855 C75.4,48.855 74.77,48.225 74.77,47.46 C74.77,46.695 75.4,46.065 76.165,46.065 Z M76.165,49.17 C76.93,49.17 77.56,49.8 77.56,50.565 C77.56,51.33 76.93,51.96 76.165,51.96 C75.4,51.96 74.77,51.33 74.77,50.565 C74.77,49.8 75.4,49.17 76.165,49.17 Z M76.165,36.795 C76.93,36.795 77.56,37.38 77.56,38.19 C77.56,38.955 76.93,39.585 76.165,39.585 C75.4,39.585 74.77,38.955 74.77,38.19 C74.77,37.425 75.4,36.795 76.165,36.795 Z" id="Combined-Shape" fill="#000000" fill-rule="nonzero"></path>
                </g>
            </g>
        </g>
    </g>
</svg>