<svg width="140" height="80" viewBox="0 0 140 80" fill="none" xmlns="http://www.w3.org/2000/svg">
<path d="M125.933 32.8727C129.861 32.8727 133.061 36.0727 133.061 40.0485C133.061 43.9758 129.861 47.1758 125.933 47.1758H124.236V48.8727C124.236 52.8 121.036 56 117.109 56H99.4121C96.4061 56 93.8364 54.1091 92.7697 51.4909L92.4788 52.0242C91.3152 54.3515 88.9394 55.9515 86.1273 55.9515C83.3636 55.9515 80.9394 54.3515 79.7758 52.0242L77.303 47.0788L74.8303 52.0242C73.6667 54.3515 71.2909 55.9515 68.4788 55.9515C65.7152 55.9515 63.2909 54.3515 62.1273 52.0242L59.1212 45.9636C58.0061 46.6909 56.6485 47.1273 55.2424 47.1273H49.0849V48.8242C49.0849 52.7515 45.8848 55.9515 41.9576 55.9515C38.3212 55.9515 35.2667 53.1879 34.8788 49.6485C34.2 49.9879 33.4242 50.1818 32.6485 50.1818C32.503 50.1818 32.3576 50.1818 32.2121 50.1818C29.6909 53.6727 25.5697 55.903 20.9636 55.903C13.2545 55.903 7 49.6485 7 41.9394C7 34.2303 13.2545 27.9758 20.9152 28.1212C27.5091 28.1212 33.0364 32.7273 34.4909 38.8848C34.5394 38.8848 34.5394 38.8848 34.5879 38.8848C34.6848 38.8364 34.7333 38.7879 34.7818 38.7394V32.9697V31.2242C34.7818 27.297 37.9818 24.097 41.9091 24.097H59.6061C62.3697 24.097 64.7939 25.697 65.9576 28.0242L68.4303 32.9697L70.903 28.0242C72.0667 25.697 74.4909 24.0485 77.303 24.0485C80.0667 24.0485 82.4909 25.6485 83.6545 27.9758L86.1273 32.9212L88.6 27.9758C89.7636 25.6485 92.1879 24 95 24H117.109C121.036 24 124.236 27.2 124.236 31.1273V32.8727H125.933ZM27.1697 36.0242C27.4121 36.1697 27.5576 36.4121 27.5091 36.6545C27.5091 36.8 27.4606 36.9939 27.4121 37.2364L25.0848 46.0121C24.9879 46.3515 24.7939 46.5939 24.503 46.7879C24.2121 46.9818 23.8727 47.0788 23.5333 47.0788C23.1939 47.0788 22.9515 47.0303 22.7576 46.8848C22.5636 46.7394 22.4667 46.5455 22.4667 46.303C22.4667 46.303 22.4667 46.2545 22.4667 46.2061C22.5152 46.1576 22.5152 46.1091 22.5152 46.0606L24.6485 38.1576H24.6L20.2848 46.3515C20.1879 46.497 20.0424 46.6424 19.897 46.7879C19.7515 46.9333 19.5091 46.9818 19.1697 46.9818C18.8303 46.9818 18.6364 46.9333 18.5394 46.7879C18.4424 46.6909 18.3939 46.5455 18.3939 46.3515L18.4424 38.1576H18.3939L16.3091 46.0121C16.2121 46.3515 16.0182 46.5939 15.7273 46.7879C15.4364 46.9818 15.097 47.0788 14.7576 47.0788C14.4182 47.0788 14.1758 47.0303 13.9818 46.8848C13.7879 46.7394 13.6909 46.5455 13.6909 46.303C13.6909 46.303 13.6909 46.2545 13.6909 46.2061C13.7394 46.1576 13.7394 46.1091 13.7394 46.0606L16.0667 37.2848C16.2121 36.8 16.4545 36.4121 16.7939 36.1697C17.1333 35.9273 17.7636 35.7818 18.5879 35.7818C19.2182 35.7818 19.703 35.8788 19.9939 36.1212C20.2848 36.3152 20.4303 36.7515 20.4303 37.3333V37.3818L20.3333 42.6182H20.3818L23.0485 37.3818C23.3879 36.8 23.7273 36.3636 24.1636 36.1212C24.5515 35.8788 25.0848 35.7818 25.7636 35.7818C26.4424 35.7818 26.9273 35.8788 27.1697 36.0242ZM29.4485 49.0667C28.2848 48.1455 27.5576 46.6909 27.5576 45.1394C27.5576 42.5697 29.4 40.4848 31.8727 40.097C31 34.8606 26.4424 30.8848 20.9636 30.8848C14.8545 30.8848 9.90909 35.8303 9.90909 41.9394C9.90909 48.0485 14.8545 52.9939 20.9636 52.9939C24.3576 52.9939 27.4121 51.4909 29.4485 49.0667ZM32.6485 47.0788C33.7152 47.0788 34.5879 46.2061 34.6364 45.0909C34.6364 43.9758 33.7152 43.103 32.6485 43.103C31.5333 43.103 30.6606 44.0242 30.6606 45.0909C30.6606 46.2061 31.5818 47.0788 32.6485 47.0788ZM101.594 42.2303H114.879V46.6424H101.594V42.2303ZM125.933 42.2303C127.145 42.2303 128.164 41.2121 128.164 40C128.164 38.7394 127.145 37.7697 125.933 37.7697H119.291V31.1273C119.291 29.8667 118.273 28.897 117.061 28.897H94.9515C94.0788 28.897 93.3515 29.4303 92.9636 30.1576L86.1273 43.8788L79.2424 30.1091C78.8545 29.3818 78.1273 28.897 77.2545 28.897C76.3818 28.897 75.6545 29.4303 75.2667 30.1576L68.4303 43.8788L61.5939 30.1576C61.2061 29.4303 60.4788 28.9455 59.6061 28.9455H41.9091C40.6485 28.9455 39.6788 29.9636 39.6788 31.1758V37.8182V42.2303V48.8727C39.6788 50.1333 40.697 51.103 41.9091 51.103C43.1697 51.103 44.1394 50.0848 44.1394 48.8727V42.2303H55.1939C56.4545 42.2303 57.4242 41.2121 57.4242 40C57.4242 38.7394 56.4061 37.7697 55.1939 37.7697H44.1394V33.3576H58.2L66.4424 49.8424C66.8303 50.5697 67.5576 51.0545 68.4303 51.0545C69.303 51.0545 70.0788 50.5697 70.4182 49.8424L77.303 36.1212L84.0909 49.8424C84.4788 50.5697 85.2061 51.0545 86.0788 51.0545C86.9515 51.0545 87.7273 50.5697 88.0667 49.8424L96.3091 33.3576H114.83V37.7697H99.3636C98.103 37.7697 97.1333 38.7879 97.1333 40V48.8727C97.1333 50.1333 98.1515 51.103 99.3636 51.103H117.061C118.321 51.103 119.291 50.0848 119.291 48.8727V42.2303H125.933Z" fill="black"/>
</svg>
