<svg width="140" height="80" viewBox="0 0 140 80" fill="none" xmlns="http://www.w3.org/2000/svg">
<path d="M14 43.1184V48.1079C52.5687 45.8531 23.882 44.6537 14 43.1184ZM14 51.3703C35.2512 52.6657 43.6941 53.6252 14.3358 56.3598L14 56.2639V51.3703ZM14 8H48.0115V72H40.9118V61.5412C39.3287 58.8066 38.7051 58.6147 32.8526 57.991C48.2513 53.0495 36.5944 50.5547 32.0371 49.7871C49.5945 45.0375 34.2918 43.1664 31.4135 41.8711C49.6425 38.6087 34.9634 35.0105 32.3729 34.2909C48.3473 29.4933 35.1552 27.0465 31.4135 25.7511C42.4948 23.8321 43.5022 19.946 28.0076 17.5472L25.7529 20.2819C38.3213 21.913 38.1774 23.3043 14 24.1199V8ZM14 35.5862V40.5757C21.2436 39.1364 54.3437 38.5607 14 35.5862ZM14 27.0465V32.3238C36.6423 31.1244 44.3177 29.5412 14 27.0465ZM56.3105 25.0795H52.4248V24.3118H61.0116V25.0795H57.126V35.3943H56.3105V25.0795ZM63.0744 24.3118H63.8899V29.4453H70.9896V24.3118H71.8051V35.3943H70.9896V30.2129H63.8899V35.3943H63.0744V24.3118ZM74.7314 24.3118H82.5986V25.0795H75.5469V29.4453H81.927V30.2129H75.5469V34.6747H82.6946V35.4423H74.7314V24.3118ZM53.0005 41.7751H56.6942L58.9009 49.0675L61.3474 41.7751H64.3696L66.8161 49.0675L69.0228 41.7751H72.6206L68.3992 54.4408H65.377L62.8825 47.1964L60.34 54.4408H57.3179L53.0005 41.7751ZM72.5247 47.964C72.5247 44.1259 75.2111 41.1514 79.0488 41.1514C83.5101 41.1514 85.5728 44.4138 85.5728 48.2519C85.5728 48.5397 85.5728 48.8756 85.5249 49.1634H76.8421C77.2259 50.5547 78.2333 51.2744 79.6244 51.2744C80.7277 51.2744 81.5433 50.8906 82.5027 49.979L84.9972 52.042C83.7499 53.6252 81.975 54.6807 79.3846 54.6807C75.403 54.6807 72.5247 51.946 72.5247 47.964ZM81.3514 46.8606C81.2075 45.4213 80.344 44.5097 79.0967 44.5097C77.8975 44.5097 77.0819 45.4213 76.8421 46.8606H81.3514ZM88.0193 41.7751H94.4475C96.0305 41.7751 97.1339 42.1589 97.9014 42.8786C98.3811 43.4063 98.7169 44.078 98.7169 44.9415V44.9895C98.7169 46.4288 97.9014 47.2924 96.7981 47.7721C98.3331 48.2519 99.2925 49.1154 99.2925 50.8426V50.8906C99.2925 53.0495 97.5176 54.3448 94.5434 54.3448H88.0673V41.7751H88.0193ZM95.311 45.6612C95.311 44.9415 94.7353 44.6057 93.7279 44.6057H91.4253V46.8126H93.632C94.6873 46.8126 95.311 46.4288 95.311 45.6612ZM94.1117 49.2594H91.4733V51.5622H94.1597C95.263 51.5622 95.8386 51.1304 95.8386 50.4108V50.3628C95.7907 49.6912 95.263 49.2594 94.1117 49.2594ZM101.979 41.7751H108.407C109.99 41.7751 111.093 42.1589 111.861 42.8786C112.341 43.4063 112.676 44.078 112.676 44.9415V44.9895C112.676 46.4288 111.861 47.2924 110.758 47.7721C112.293 48.2519 113.252 49.1154 113.252 50.8426V50.8906C113.252 53.0495 111.477 54.3448 108.503 54.3448H102.027V41.7751H101.979ZM109.223 45.6612C109.223 44.9415 108.647 44.6057 107.64 44.6057H105.337V46.8126H107.544C108.599 46.8126 109.223 46.4288 109.223 45.6612ZM108.023 49.2594H105.385V51.5622H108.071C109.127 51.5622 109.75 51.1304 109.75 50.4108V50.3628C109.75 49.6912 109.175 49.2594 108.023 49.2594ZM118.001 49.6432L113.204 41.7751H117.186L119.776 46.3808L122.367 41.7751H126.252L121.455 49.5952V54.3448H117.953V49.6432H118.001ZM58.709 59.7181H59.5245L64.7054 70.8966H63.794L62.4028 67.7781H55.8308L54.4396 70.8966H53.5761L58.709 59.7181ZM61.9711 67.0585L59.0928 60.6297L56.1666 67.0585H61.9711ZM64.6095 59.8141H65.5209L69.0228 69.6972L72.2848 59.7661H72.9085L76.1705 69.6972L79.6724 59.8141H80.5359L76.5063 70.9925H75.8347L72.5727 61.3493L69.3106 70.9925H68.639L64.6095 59.8141ZM85.8606 59.7661H86.6762L91.857 70.9445H90.9456L89.5544 67.8261H83.0304L81.6392 70.9445H80.6798L85.8606 59.7661ZM89.1227 67.0585L86.1964 60.6297L83.2702 67.0585H89.1227ZM93.7279 59.8141H98.3811C99.7243 59.8141 100.828 60.2459 101.499 60.9175C102.027 61.4453 102.315 62.1649 102.315 62.9805V63.0285C102.315 64.8995 100.924 65.955 99.0527 66.1949L102.698 70.9445H101.643L98.0933 66.3388H94.4475V70.9445H93.632V59.8141H93.7279ZM98.2852 65.5712C100.156 65.5712 101.499 64.6597 101.499 63.0285V62.9805C101.499 61.4933 100.348 60.5337 98.3331 60.5337H94.5434V65.5232H98.2852V65.5712ZM104.809 59.8141H108.503C112.005 59.8141 114.403 62.2129 114.403 65.3313V65.3793C114.403 68.4978 112.005 70.9445 108.503 70.9445H104.809V59.8141ZM105.625 60.5817V70.1769H108.503C111.573 70.1769 113.54 68.066 113.54 65.4273V65.3793C113.54 62.7406 111.573 60.5817 108.503 60.5817H105.625ZM115.891 69.3133L116.418 68.6897C117.618 69.7931 118.769 70.3208 120.4 70.3208C122.079 70.3208 123.182 69.3613 123.182 68.1139V68.066C123.182 66.9145 122.559 66.1949 120.064 65.7151C117.426 65.1874 116.322 64.2759 116.322 62.5967V62.5487C116.322 60.9175 117.809 59.6222 119.872 59.6222C121.503 59.6222 122.559 60.054 123.662 60.9655L123.134 61.6372C122.079 60.7256 121.023 60.3898 119.824 60.3898C118.193 60.3898 117.09 61.3014 117.09 62.5008V62.5487C117.09 63.7001 117.713 64.4198 120.304 64.9955C122.894 65.5232 123.95 66.4348 123.95 68.066V68.1139C123.95 69.8891 122.415 71.1364 120.256 71.1364C118.577 71.0885 117.234 70.4648 115.891 69.3133Z" fill="black"/>
</svg>
