<?xml version="1.0" encoding="UTF-8"?>
<svg width="140px" height="96px" viewBox="0 0 140 96" version="1.1" xmlns="http://www.w3.org/2000/svg" xmlns:xlink="http://www.w3.org/1999/xlink">
    <!-- Generator: Sketch 50.2 (55047) - http://www.bohemiancoding.com/sketch -->
    <title>award_fwa</title>
    <desc>Created with Sketch.</desc>
    <defs></defs>
    <g id="Page-2" stroke="none" stroke-width="1" fill="none" fill-rule="evenodd">
        <g id="Desktop-HD" transform="translate(-772.000000, -1978.000000)">
            <g id="Group-11" transform="translate(772.000000, 1978.000000)">
                <g id="award_fwa">
                    <path d="M125.933333,40.8727273 C129.860606,40.8727273 133.060606,44.0727273 133.060606,48.0484848 C133.060606,51.9757576 129.860606,55.1757576 125.933333,55.1757576 L124.236364,55.1757576 L124.236364,56.8727273 C124.236364,60.8 121.036364,64 117.109091,64 L99.4121212,64 C96.4060606,64 93.8363636,62.1090909 92.769697,59.4909091 L92.4787879,60.0242424 C91.3151515,62.3515152 88.9393939,63.9515152 86.1272727,63.9515152 C83.3636364,63.9515152 80.9393939,62.3515152 79.7757576,60.0242424 L77.3030303,55.0787879 L74.830303,60.0242424 C73.6666667,62.3515152 71.2909091,63.9515152 68.4787879,63.9515152 C65.7151515,63.9515152 63.2909091,62.3515152 62.1272727,60.0242424 L59.1212121,53.9636364 C58.0060606,54.6909091 56.6484848,55.1272727 55.2424242,55.1272727 L49.0848485,55.1272727 L49.0848485,56.8242424 C49.0848485,60.7515152 45.8848485,63.9515152 41.9575758,63.9515152 C38.3212121,63.9515152 35.2666667,61.1878788 34.8787879,57.6484848 C34.2,57.9878788 33.4242424,58.1818182 32.6484848,58.1818182 C32.5030303,58.1818182 32.3575758,58.1818182 32.2121212,58.1818182 C29.6909091,61.6727273 25.569697,63.9030303 20.9636364,63.9030303 C13.2545455,63.9030303 7,57.6484848 7,49.9393939 C7,42.230303 13.2545455,35.9757576 20.9151515,36.1212121 C27.5090909,36.1212121 33.0363636,40.7272727 34.4909091,46.8848485 C34.5393939,46.8848485 34.5393939,46.8848485 34.5878788,46.8848485 C34.6848485,46.8363636 34.7333333,46.7878788 34.7818182,46.7393939 L34.7818182,40.969697 L34.7818182,39.2242424 C34.7818182,35.2969697 37.9818182,32.0969697 41.9090909,32.0969697 L59.6060606,32.0969697 C62.369697,32.0969697 64.7939394,33.6969697 65.9575758,36.0242424 L68.430303,40.969697 L70.9030303,36.0242424 C72.0666667,33.6969697 74.4909091,32.0484848 77.3030303,32.0484848 C80.0666667,32.0484848 82.4909091,33.6484848 83.6545455,35.9757576 L86.1272727,40.9212121 L88.6,35.9757576 C89.7636364,33.6484848 92.1878788,32 95,32 L117.109091,32 C121.036364,32 124.236364,35.2 124.236364,39.1272727 L124.236364,40.8727273 L125.933333,40.8727273 Z M27.169697,44.0242424 C27.4121212,44.169697 27.5575758,44.4121212 27.5090909,44.6545455 C27.5090909,44.8 27.4606061,44.9939394 27.4121212,45.2363636 L25.0848485,54.0121212 C24.9878788,54.3515152 24.7939394,54.5939394 24.5030303,54.7878788 C24.2121212,54.9818182 23.8727273,55.0787879 23.5333333,55.0787879 C23.1939394,55.0787879 22.9515152,55.030303 22.7575758,54.8848485 C22.5636364,54.7393939 22.4666667,54.5454545 22.4666667,54.3030303 C22.4666667,54.3030303 22.4666667,54.2545455 22.4666667,54.2060606 C22.5151515,54.1575758 22.5151515,54.1090909 22.5151515,54.0606061 L24.6484848,46.1575758 L24.6,46.1575758 L20.2848485,54.3515152 C20.1878788,54.4969697 20.0424242,54.6424242 19.8969697,54.7878788 C19.7515152,54.9333333 19.5090909,54.9818182 19.169697,54.9818182 C18.830303,54.9818182 18.6363636,54.9333333 18.5393939,54.7878788 C18.4424242,54.6909091 18.3939394,54.5454545 18.3939394,54.3515152 L18.4424242,46.1575758 L18.3939394,46.1575758 L16.3090909,54.0121212 C16.2121212,54.3515152 16.0181818,54.5939394 15.7272727,54.7878788 C15.4363636,54.9818182 15.0969697,55.0787879 14.7575758,55.0787879 C14.4181818,55.0787879 14.1757576,55.030303 13.9818182,54.8848485 C13.7878788,54.7393939 13.6909091,54.5454545 13.6909091,54.3030303 C13.6909091,54.3030303 13.6909091,54.2545455 13.6909091,54.2060606 C13.7393939,54.1575758 13.7393939,54.1090909 13.7393939,54.0606061 L16.0666667,45.2848485 C16.2121212,44.8 16.4545455,44.4121212 16.7939394,44.169697 C17.1333333,43.9272727 17.7636364,43.7818182 18.5878788,43.7818182 C19.2181818,43.7818182 19.7030303,43.8787879 19.9939394,44.1212121 C20.2848485,44.3151515 20.430303,44.7515152 20.430303,45.3333333 L20.430303,45.3818182 L20.3333333,50.6181818 L20.3818182,50.6181818 L23.0484848,45.3818182 C23.3878788,44.8 23.7272727,44.3636364 24.1636364,44.1212121 C24.5515152,43.8787879 25.0848485,43.7818182 25.7636364,43.7818182 C26.4424242,43.7818182 26.9272727,43.8787879 27.169697,44.0242424 Z M29.4484848,57.0666667 C28.2848485,56.1454545 27.5575758,54.6909091 27.5575758,53.1393939 C27.5575758,50.569697 29.4,48.4848485 31.8727273,48.0969697 C31,42.8606061 26.4424242,38.8848485 20.9636364,38.8848485 C14.8545455,38.8848485 9.90909091,43.830303 9.90909091,49.9393939 C9.90909091,56.0484848 14.8545455,60.9939394 20.9636364,60.9939394 C24.3575758,60.9939394 27.4121212,59.4909091 29.4484848,57.0666667 Z M32.6484848,55.0787879 C33.7151515,55.0787879 34.5878788,54.2060606 34.6363636,53.0909091 C34.6363636,51.9757576 33.7151515,51.1030303 32.6484848,51.1030303 C31.5333333,51.1030303 30.6606061,52.0242424 30.6606061,53.0909091 C30.6606061,54.2060606 31.5818182,55.0787879 32.6484848,55.0787879 Z M101.593939,50.230303 L114.878788,50.230303 L114.878788,54.6424242 L101.593939,54.6424242 L101.593939,50.230303 Z M125.933333,50.230303 C127.145455,50.230303 128.163636,49.2121212 128.163636,48 C128.163636,46.7393939 127.145455,45.769697 125.933333,45.769697 L119.290909,45.769697 L119.290909,39.1272727 C119.290909,37.8666667 118.272727,36.8969697 117.060606,36.8969697 L94.9515152,36.8969697 C94.0787879,36.8969697 93.3515152,37.430303 92.9636364,38.1575758 L86.1272727,51.8787879 L79.2424242,38.1090909 C78.8545455,37.3818182 78.1272727,36.8969697 77.2545455,36.8969697 C76.3818182,36.8969697 75.6545455,37.430303 75.2666667,38.1575758 L68.430303,51.8787879 L61.5939394,38.1575758 C61.2060606,37.430303 60.4787879,36.9454545 59.6060606,36.9454545 L41.9090909,36.9454545 C40.6484848,36.9454545 39.6787879,37.9636364 39.6787879,39.1757576 L39.6787879,45.8181818 L39.6787879,50.230303 L39.6787879,56.8727273 C39.6787879,58.1333333 40.6969697,59.1030303 41.9090909,59.1030303 C43.169697,59.1030303 44.1393939,58.0848485 44.1393939,56.8727273 L44.1393939,50.230303 L55.1939394,50.230303 C56.4545455,50.230303 57.4242424,49.2121212 57.4242424,48 C57.4242424,46.7393939 56.4060606,45.769697 55.1939394,45.769697 L44.1393939,45.769697 L44.1393939,41.3575758 L58.2,41.3575758 L66.4424242,57.8424242 C66.830303,58.569697 67.5575758,59.0545455 68.430303,59.0545455 C69.3030303,59.0545455 70.0787879,58.569697 70.4181818,57.8424242 L77.3030303,44.1212121 L84.0909091,57.8424242 C84.4787879,58.569697 85.2060606,59.0545455 86.0787879,59.0545455 C86.9515152,59.0545455 87.7272727,58.569697 88.0666667,57.8424242 L96.3090909,41.3575758 L114.830303,41.3575758 L114.830303,45.769697 L99.3636364,45.769697 C98.1030303,45.769697 97.1333333,46.7878788 97.1333333,48 L97.1333333,56.8727273 C97.1333333,58.1333333 98.1515152,59.1030303 99.3636364,59.1030303 L117.060606,59.1030303 C118.321212,59.1030303 119.290909,58.0848485 119.290909,56.8727273 L119.290909,50.230303 L125.933333,50.230303 Z" id="Combined-Shape" fill="#000000" fill-rule="nonzero"></path>
                </g>
            </g>
        </g>
    </g>
</svg>