<svg width="140" height="140" viewBox="0 0 140 140" fill="none" xmlns="http://www.w3.org/2000/svg">
<path d="M38 38V63.72L54.12 81.2L56.52 60.92L68.64 74.08L69.96 62.72L76.92 60.44L73.56 89.24L61.4 76.08L59.04 96.36L38 73.52V102H102V38H38ZM87.24 77.64C82.76 77.64 78.88 74.88 77.28 70.96L83.72 68.88C84.44 70.12 85.72 70.96 87.24 70.96C89.52 70.96 91.36 69.12 91.36 66.84C91.36 64.56 89.52 62.76 87.24 62.76C86.92 62.76 86.6 62.8 86.32 62.88L79.44 65.12L80.44 56.48L70.32 59.76L71.16 52.76L87.64 47.4L86.52 56.08H86.56C86.8 56.08 87.04 56.04 87.28 56.04C93.24 56.04 98.08 60.88 98.08 66.84C98.04 72.8 93.2 77.64 87.24 77.64Z" fill="black"/>
</svg>
