<svg width="140" height="140" viewBox="0 0 140 140" fill="none" xmlns="http://www.w3.org/2000/svg">
<path d="M62.2556 96.0777V86.4155H66.1509V96.0777H64.178V98H48.7489V96.0777H46.776V86.4155H50.6712V96.0777H54.5158V86.4155H58.411V96.0777H62.2556ZM42.9313 86.4155V88.3378H44.8537V98H41.009V94.1554H37.1644V98H33.2692V88.3378H35.1915V86.4155H42.9313ZM41.009 92.1825V88.3378H37.1644V92.1825H41.009ZM91.2421 86.4155H91.1915V88.3884H93.1138V92.2331H91.1915V94.1554H93.1138V98H89.2692V94.1554H85.4246V98H81.5799V86.4155H85.4246H91.2421ZM89.3198 92.1825V88.3378H85.4752V92.1825H89.3198ZM104.799 88.3378H106.722V96.0777H104.799V98H98.9819H95.1373V86.4155H98.9819H104.799V88.3378ZM98.9819 96.0777H102.827V88.3378H98.9819V96.0777ZM77.7353 86.4155V88.3378H79.6576V98H75.813V94.1554H71.9178V98H68.0732V88.3378H69.9955V86.4155H77.7353ZM75.813 92.1825V88.3378H71.9178V92.1825H75.813ZM103.838 67.9512C104.648 67.6983 105.406 67.3442 106.115 66.9395L110.212 70.9864C108.846 72.0994 107.177 73.0099 105.356 73.5158C99.9937 74.9322 94.4797 72.6558 91.6468 68.2042C89.421 71.6441 85.5763 73.9205 81.1752 73.9205C78.6965 73.9205 76.3695 73.2123 74.4471 71.9476V81.2051H68.6802V68.3559C66.4544 71.6947 62.6603 73.9205 58.3098 73.9205C53.2005 73.9205 48.7995 70.7841 46.8771 66.383C44.9548 70.8347 40.5537 73.9205 35.4444 73.9205C28.5646 73.9205 23 68.3559 23 61.4761C23 54.5962 28.5646 49.0316 35.4444 49.0316C37.9232 49.0316 40.2502 49.7398 42.1725 51.0045V42H47.9395V54.6468C50.1653 51.2575 54.0099 49.0316 58.3604 49.0316C63.4697 49.0316 67.8708 52.1174 69.7931 56.5185C71.7154 52.1174 76.1165 49.0316 81.2258 49.0316C85.6269 49.0316 89.4715 51.308 91.6974 54.748C93.3162 52.2186 95.7949 50.2963 98.9313 49.4363C104.597 47.9187 110.415 50.5998 113.096 55.5574C113.349 55.9621 113.5 56.4173 113.703 56.822V56.8726C113.855 57.3279 114.006 57.7832 114.158 58.2385C114.411 59.1996 114.512 60.1608 114.563 61.122L97.009 65.8266C98.6278 67.7489 101.258 68.6594 103.838 67.9512ZM35.4444 68.1536C39.1373 68.1536 42.1725 65.1689 42.1725 61.4255C42.1725 57.7326 39.1373 54.6974 35.4444 54.6974C31.7516 54.6974 28.7164 57.7326 28.7164 61.4255C28.7164 65.1689 31.7516 68.1536 35.4444 68.1536ZM58.3098 68.1536C62.0027 68.1536 65.0379 65.1689 65.0379 61.4255C65.0379 57.7326 62.0027 54.6974 58.3098 54.6974C54.5664 54.6974 51.5818 57.7326 51.5818 61.4255C51.5818 65.1689 54.617 68.1536 58.3098 68.1536ZM81.1752 68.1536C84.8681 68.1536 87.8527 65.1689 87.9033 61.4255C87.9033 57.7326 84.8681 54.6974 81.1752 54.6974C77.4318 54.6974 74.4471 57.7326 74.4471 61.4255C74.4471 65.1689 77.4824 68.1536 81.1752 68.1536ZM100.348 54.9503C97.7678 55.6585 95.9467 57.7832 95.4914 60.262L107.177 57.075C105.558 55.2033 102.928 54.2421 100.348 54.9503ZM114.259 66.6865C115.979 66.6865 117.396 68.1536 117.446 69.8735C117.446 71.6441 116.03 73.0605 114.259 73.0605C112.489 73.0605 111.072 71.6441 111.072 69.8735C111.072 68.103 112.489 66.6865 114.259 66.6865ZM114.259 72.2511C115.575 72.2511 116.637 71.1888 116.637 69.8735C116.637 68.5583 115.575 67.4959 114.259 67.4959C112.944 67.4959 111.882 68.5583 111.882 69.8735C111.882 71.1888 112.944 72.2511 114.259 72.2511ZM114.259 68.71C113.602 68.71 113.045 69.2159 113.045 69.8229C113.045 70.4806 113.602 71.037 114.259 71.037C114.664 71.037 115.069 70.7841 115.271 70.43H115.726C115.473 71.037 114.917 71.4417 114.259 71.4417C113.399 71.4417 112.691 70.7335 112.691 69.8735C112.691 69.0136 113.399 68.3053 114.259 68.3053C114.917 68.3053 115.473 68.71 115.726 69.3171H115.271C115.069 68.963 114.715 68.71 114.259 68.71Z" fill="white"/>
</svg>
