<svg width="140" height="140" viewBox="0 0 140 140" fill="none" xmlns="http://www.w3.org/2000/svg">
<path d="M125.933 62.8727C129.861 62.8727 133.061 66.0727 133.061 70.0485C133.061 73.9758 129.861 77.1758 125.933 77.1758H124.236V78.8727C124.236 82.8 121.036 86 117.109 86H99.4121C96.4061 86 93.8364 84.1091 92.7697 81.4909L92.4788 82.0242C91.3152 84.3515 88.9394 85.9515 86.1273 85.9515C83.3636 85.9515 80.9394 84.3515 79.7758 82.0242L77.303 77.0788L74.8303 82.0242C73.6667 84.3515 71.2909 85.9515 68.4788 85.9515C65.7152 85.9515 63.2909 84.3515 62.1273 82.0242L59.1212 75.9636C58.0061 76.6909 56.6485 77.1273 55.2424 77.1273H49.0849V78.8242C49.0849 82.7515 45.8848 85.9515 41.9576 85.9515C38.3212 85.9515 35.2667 83.1879 34.8788 79.6485C34.2 79.9879 33.4242 80.1818 32.6485 80.1818C32.503 80.1818 32.3576 80.1818 32.2121 80.1818C29.6909 83.6727 25.5697 85.903 20.9636 85.903C13.2545 85.903 7 79.6485 7 71.9394C7 64.2303 13.2545 57.9758 20.9152 58.1212C27.5091 58.1212 33.0364 62.7273 34.4909 68.8848C34.5394 68.8848 34.5394 68.8848 34.5879 68.8848C34.6848 68.8364 34.7333 68.7879 34.7818 68.7394V62.9697V61.2242C34.7818 57.297 37.9818 54.097 41.9091 54.097H59.6061C62.3697 54.097 64.7939 55.697 65.9576 58.0242L68.4303 62.9697L70.903 58.0242C72.0667 55.697 74.4909 54.0485 77.303 54.0485C80.0667 54.0485 82.4909 55.6485 83.6545 57.9758L86.1273 62.9212L88.6 57.9758C89.7636 55.6485 92.1879 54 95 54H117.109C121.036 54 124.236 57.2 124.236 61.1273V62.8727H125.933ZM27.1697 66.0242C27.4121 66.1697 27.5576 66.4121 27.5091 66.6545C27.5091 66.8 27.4606 66.9939 27.4121 67.2364L25.0848 76.0121C24.9879 76.3515 24.7939 76.5939 24.503 76.7879C24.2121 76.9818 23.8727 77.0788 23.5333 77.0788C23.1939 77.0788 22.9515 77.0303 22.7576 76.8848C22.5636 76.7394 22.4667 76.5455 22.4667 76.303C22.4667 76.303 22.4667 76.2545 22.4667 76.2061C22.5152 76.1576 22.5152 76.1091 22.5152 76.0606L24.6485 68.1576H24.6L20.2848 76.3515C20.1879 76.497 20.0424 76.6424 19.897 76.7879C19.7515 76.9333 19.5091 76.9818 19.1697 76.9818C18.8303 76.9818 18.6364 76.9333 18.5394 76.7879C18.4424 76.6909 18.3939 76.5455 18.3939 76.3515L18.4424 68.1576H18.3939L16.3091 76.0121C16.2121 76.3515 16.0182 76.5939 15.7273 76.7879C15.4364 76.9818 15.097 77.0788 14.7576 77.0788C14.4182 77.0788 14.1758 77.0303 13.9818 76.8848C13.7879 76.7394 13.6909 76.5455 13.6909 76.303C13.6909 76.303 13.6909 76.2545 13.6909 76.2061C13.7394 76.1576 13.7394 76.1091 13.7394 76.0606L16.0667 67.2848C16.2121 66.8 16.4545 66.4121 16.7939 66.1697C17.1333 65.9273 17.7636 65.7818 18.5879 65.7818C19.2182 65.7818 19.703 65.8788 19.9939 66.1212C20.2848 66.3152 20.4303 66.7515 20.4303 67.3333V67.3818L20.3333 72.6182H20.3818L23.0485 67.3818C23.3879 66.8 23.7273 66.3636 24.1636 66.1212C24.5515 65.8788 25.0848 65.7818 25.7636 65.7818C26.4424 65.7818 26.9273 65.8788 27.1697 66.0242ZM29.4485 79.0667C28.2848 78.1455 27.5576 76.6909 27.5576 75.1394C27.5576 72.5697 29.4 70.4848 31.8727 70.097C31 64.8606 26.4424 60.8848 20.9636 60.8848C14.8545 60.8848 9.90909 65.8303 9.90909 71.9394C9.90909 78.0485 14.8545 82.9939 20.9636 82.9939C24.3576 82.9939 27.4121 81.4909 29.4485 79.0667ZM32.6485 77.0788C33.7151 77.0788 34.5879 76.2061 34.6364 75.0909C34.6364 73.9758 33.7151 73.103 32.6485 73.103C31.5333 73.103 30.6606 74.0242 30.6606 75.0909C30.6606 76.2061 31.5818 77.0788 32.6485 77.0788ZM101.594 72.2303H114.879V76.6424H101.594V72.2303ZM125.933 72.2303C127.145 72.2303 128.164 71.2121 128.164 70C128.164 68.7394 127.145 67.7697 125.933 67.7697H119.291V61.1273C119.291 59.8667 118.273 58.897 117.061 58.897H94.9515C94.0788 58.897 93.3515 59.4303 92.9636 60.1576L86.1273 73.8788L79.2424 60.1091C78.8545 59.3818 78.1273 58.897 77.2545 58.897C76.3818 58.897 75.6545 59.4303 75.2667 60.1576L68.4303 73.8788L61.5939 60.1576C61.2061 59.4303 60.4788 58.9455 59.6061 58.9455H41.9091C40.6485 58.9455 39.6788 59.9636 39.6788 61.1758V67.8182V72.2303V78.8727C39.6788 80.1333 40.697 81.103 41.9091 81.103C43.1697 81.103 44.1394 80.0848 44.1394 78.8727V72.2303H55.1939C56.4545 72.2303 57.4242 71.2121 57.4242 70C57.4242 68.7394 56.4061 67.7697 55.1939 67.7697H44.1394V63.3576H58.2L66.4424 79.8424C66.8303 80.5697 67.5576 81.0545 68.4303 81.0545C69.303 81.0545 70.0788 80.5697 70.4182 79.8424L77.303 66.1212L84.0909 79.8424C84.4788 80.5697 85.2061 81.0545 86.0788 81.0545C86.9515 81.0545 87.7273 80.5697 88.0667 79.8424L96.3091 63.3576H114.83V67.7697H99.3636C98.103 67.7697 97.1333 68.7879 97.1333 70V78.8727C97.1333 80.1333 98.1515 81.103 99.3636 81.103H117.061C118.321 81.103 119.291 80.0848 119.291 78.8727V72.2303H125.933Z" fill="white"/>
</svg>
