<svg width="140" height="80" viewBox="0 0 140 80" fill="none" xmlns="http://www.w3.org/2000/svg">
<path d="M70 4C89.89 4 106 20.11 106 40C106 59.89 89.89 76 70 76C50.11 76 34 59.89 34 40C34 20.11 50.11 4 70 4ZM70 12.37C85.255 12.37 97.63 24.745 97.63 40C97.63 55.255 85.255 67.63 70 67.63C54.745 67.63 42.37 55.255 42.37 40C42.37 24.745 54.745 12.37 70 12.37ZM63.835 38.065C64.6 38.065 65.23 38.695 65.23 39.46C65.23 40.225 64.6 40.855 63.835 40.855C63.07 40.855 62.44 40.225 62.44 39.46C62.44 38.695 63.07 38.065 63.835 38.065ZM63.835 41.17C64.6 41.17 65.23 41.8 65.23 42.565C65.23 43.33 64.6 43.96 63.835 43.96C63.07 43.96 62.44 43.33 62.44 42.565C62.44 41.8 63.07 41.17 63.835 41.17ZM63.835 25.69C64.6 25.69 65.23 26.32 65.23 27.085C65.23 27.85 64.6 28.48 63.835 28.48C63.07 28.48 62.44 27.85 62.44 27.085C62.44 26.32 63.07 25.69 63.835 25.69ZM63.835 22.585C64.6 22.585 65.23 23.215 65.23 23.98C65.23 24.745 64.6 25.375 63.835 25.375C63.07 25.375 62.44 24.745 62.44 23.98C62.44 23.215 63.07 22.585 63.835 22.585ZM63.835 28.795C64.6 28.795 65.23 29.38 65.23 30.19C65.23 30.955 64.6 31.585 63.835 31.585C63.07 31.585 62.44 30.955 62.44 30.19C62.44 29.425 63.07 28.795 63.835 28.795ZM63.835 44.275C64.6 44.275 65.23 44.905 65.23 45.67C65.23 46.435 64.6 47.065 63.835 47.065C63.07 47.065 62.44 46.435 62.44 45.67C62.44 44.905 63.07 44.275 63.835 44.275ZM60.775 19.48C61.54 19.48 62.125 20.11 62.17 20.875C62.17 21.64 61.54 22.27 60.775 22.27C60.01 22.27 59.38 21.64 59.38 20.875C59.38 20.11 60.01 19.48 60.775 19.48ZM63.835 53.59C64.6 53.59 65.23 54.22 65.23 54.985C65.23 55.75 64.6 56.38 63.835 56.38C63.07 56.38 62.44 55.75 62.44 54.985C62.44 54.22 63.07 53.59 63.835 53.59ZM63.835 19.48C64.6 19.48 65.23 20.11 65.23 20.875C65.23 21.64 64.6 22.27 63.835 22.27C63.07 22.27 62.44 21.64 62.44 20.875C62.44 20.11 63.07 19.48 63.835 19.48ZM63.835 47.38C64.6 47.38 65.23 48.01 65.23 48.775C65.23 49.54 64.6 50.17 63.835 50.17C63.07 50.17 62.44 49.54 62.44 48.775C62.44 48.01 63.07 47.38 63.835 47.38ZM70 28.795C70.765 28.795 71.395 29.38 71.395 30.19C71.395 30.955 70.765 31.585 70 31.585C69.235 31.585 68.605 30.955 68.605 30.19C68.605 29.425 69.235 28.795 70 28.795ZM66.94 41.17C67.66 41.17 68.29 41.8 68.335 42.565C68.335 43.33 67.705 43.96 66.94 43.96C66.175 43.96 65.545 43.33 65.545 42.565C65.545 41.8 66.175 41.17 66.94 41.17ZM70 44.275C70.765 44.275 71.395 44.905 71.395 45.67C71.395 46.435 70.765 47.065 70 47.065C69.235 47.065 68.605 46.435 68.605 45.67C68.605 44.905 69.235 44.275 70 44.275ZM70 41.17C70.765 41.17 71.395 41.8 71.395 42.565C71.395 43.33 70.765 43.96 70 43.96C69.235 43.96 68.605 43.33 68.605 42.565C68.605 41.8 69.235 41.17 70 41.17ZM70 38.065C70.765 38.065 71.395 38.695 71.395 39.46C71.395 40.225 70.765 40.855 70 40.855C69.235 40.855 68.605 40.225 68.605 39.46C68.605 38.695 69.235 38.065 70 38.065ZM70 34.96C70.765 34.96 71.395 35.59 71.395 36.355C71.395 37.12 70.765 37.75 70 37.75C69.235 37.75 68.605 37.12 68.605 36.355C68.605 35.59 69.235 34.96 70 34.96ZM70 31.9C70.765 31.9 71.395 32.485 71.395 33.295C71.395 34.06 70.765 34.69 70 34.69C69.235 34.69 68.605 34.06 68.605 33.295C68.605 32.53 69.235 31.9 70 31.9ZM66.94 44.275C67.66 44.275 68.29 44.905 68.335 45.67C68.335 46.435 67.705 47.065 66.94 47.065C66.175 47.065 65.545 46.435 65.545 45.67C65.545 44.905 66.175 44.275 66.94 44.275ZM60.775 25.69C61.54 25.69 62.125 26.32 62.17 27.085C62.17 27.85 61.54 28.48 60.775 28.48C60.01 28.48 59.38 27.85 59.38 27.085C59.38 26.32 60.01 25.69 60.775 25.69ZM66.94 25.69C67.66 25.69 68.29 26.32 68.335 27.085C68.335 27.85 67.705 28.48 66.94 28.48C66.175 28.48 65.545 27.85 65.545 27.085C65.545 26.32 66.175 25.69 66.94 25.69ZM66.94 47.38C67.66 47.38 68.29 48.01 68.335 48.775C68.335 49.54 67.705 50.17 66.94 50.17C66.175 50.17 65.545 49.54 65.545 48.775C65.545 48.01 66.175 47.38 66.94 47.38ZM66.94 28.795C67.66 28.795 68.29 29.38 68.335 30.19C68.335 30.955 67.705 31.585 66.94 31.585C66.175 31.585 65.545 30.955 65.545 30.19C65.545 29.425 66.175 28.795 66.94 28.795ZM66.94 38.065C67.66 38.065 68.29 38.695 68.335 39.46C68.335 40.225 67.705 40.855 66.94 40.855C66.175 40.855 65.545 40.225 65.545 39.46C65.545 38.695 66.175 38.065 66.94 38.065ZM63.835 50.485C64.6 50.485 65.23 51.115 65.23 51.88C65.23 52.645 64.6 53.275 63.835 53.275C63.07 53.275 62.44 52.645 62.44 51.88C62.44 51.115 63.07 50.485 63.835 50.485ZM54.61 38.065C55.375 38.065 55.96 38.695 56.005 39.46C56.005 40.225 55.375 40.855 54.61 40.855C53.845 40.855 53.215 40.225 53.215 39.46C53.215 38.695 53.845 38.065 54.61 38.065ZM54.61 43.96C53.8396 43.96 53.215 43.3354 53.215 42.565C53.215 41.7946 53.8396 41.17 54.61 41.17C55.3804 41.17 56.005 41.7946 56.005 42.565C56.005 43.3354 55.3804 43.96 54.61 43.96ZM54.61 34.96C55.375 34.96 55.96 35.59 56.005 36.355C56.005 37.12 55.375 37.75 54.61 37.75C53.845 37.75 53.215 37.12 53.215 36.355C53.215 35.59 53.845 34.96 54.61 34.96ZM54.61 34.645C53.8396 34.645 53.215 34.0204 53.215 33.25C53.215 32.4796 53.8396 31.855 54.61 31.855C55.3804 31.855 56.005 32.4796 56.005 33.25C56.005 34.0204 55.3804 34.645 54.61 34.645ZM57.67 53.59C58.435 53.59 59.065 54.22 59.065 54.985C59.065 55.75 58.435 56.38 57.67 56.38C56.905 56.38 56.275 55.75 56.275 54.985C56.275 54.22 56.905 53.59 57.67 53.59ZM51.505 41.17C52.27 41.17 52.9 41.8 52.9 42.565C52.9 43.33 52.27 43.96 51.505 43.96C50.74 43.96 50.11 43.33 50.11 42.565C50.11 41.8 50.74 41.17 51.505 41.17ZM48.445 38.065C49.21 38.065 49.84 38.695 49.84 39.46C49.84 40.225 49.21 40.855 48.445 40.855C47.68 40.855 47.05 40.225 47.05 39.46C47.05 38.695 47.68 38.065 48.445 38.065ZM57.67 50.485C58.435 50.485 59.065 51.115 59.065 51.88C59.065 52.645 58.435 53.275 57.67 53.275C56.905 53.275 56.275 52.645 56.275 51.88C56.275 51.115 56.905 50.485 57.67 50.485ZM54.61 53.275C53.8396 53.275 53.215 52.6504 53.215 51.88C53.215 51.1096 53.8396 50.485 54.61 50.485C55.3804 50.485 56.005 51.1096 56.005 51.88C56.005 52.6504 55.3804 53.275 54.61 53.275ZM51.505 38.065C52.27 38.065 52.9 38.695 52.9 39.46C52.9 40.225 52.27 40.855 51.505 40.855C50.74 40.855 50.11 40.225 50.11 39.46C50.11 38.695 50.74 38.065 51.505 38.065ZM54.61 56.335C53.8396 56.335 53.215 55.7104 53.215 54.94C53.215 54.1696 53.8396 53.545 54.61 53.545C55.3804 53.545 56.005 54.1696 56.005 54.94C56.005 55.7104 55.3804 56.335 54.61 56.335ZM60.775 38.065C61.54 38.065 62.125 38.695 62.17 39.46C62.17 40.225 61.54 40.855 60.775 40.855C60.01 40.855 59.38 40.225 59.38 39.46C59.38 38.695 60.01 38.065 60.775 38.065ZM60.775 50.485C61.54 50.485 62.125 51.115 62.17 51.88C62.17 52.645 61.54 53.275 60.775 53.275C60.01 53.275 59.38 52.645 59.38 51.88C59.38 51.115 60.01 50.485 60.775 50.485ZM60.775 53.59C61.54 53.59 62.125 54.22 62.17 54.985C62.17 55.75 61.54 56.38 60.775 56.38C60.01 56.38 59.38 55.75 59.38 54.985C59.38 54.22 60.01 53.59 60.775 53.59ZM60.775 47.38C61.54 47.38 62.125 48.01 62.17 48.775C62.17 49.54 61.54 50.17 60.775 50.17C60.01 50.17 59.38 49.54 59.38 48.775C59.38 48.01 60.01 47.38 60.775 47.38ZM60.775 41.17C61.54 41.17 62.125 41.8 62.17 42.565C62.17 43.33 61.54 43.96 60.775 43.96C60.01 43.96 59.38 43.33 59.38 42.565C59.38 41.8 60.01 41.17 60.775 41.17ZM60.775 28.795C61.54 28.795 62.125 29.38 62.17 30.19C62.17 30.955 61.54 31.585 60.775 31.585C60.01 31.585 59.38 30.955 59.38 30.19C59.38 29.425 60.01 28.795 60.775 28.795ZM57.67 38.065C58.435 38.065 59.065 38.695 59.065 39.46C59.065 40.225 58.435 40.855 57.67 40.855C56.905 40.855 56.275 40.225 56.275 39.46C56.275 38.695 56.905 38.065 57.67 38.065ZM57.67 34.96C58.435 34.96 59.065 35.59 59.065 36.355C59.065 37.12 58.435 37.75 57.67 37.75C56.905 37.75 56.275 37.12 56.275 36.355C56.275 35.59 56.905 34.96 57.67 34.96ZM57.67 47.38C58.435 47.38 59.065 48.01 59.065 48.775C59.065 49.54 58.435 50.17 57.67 50.17C56.905 50.17 56.275 49.54 56.275 48.775C56.275 48.01 56.905 47.38 57.67 47.38ZM57.67 31.9C58.435 31.9 59.065 32.485 59.065 33.295C59.065 34.06 58.435 34.69 57.67 34.69C56.905 34.69 56.275 34.06 56.275 33.295C56.275 32.53 56.905 31.9 57.67 31.9ZM57.67 28.795C58.435 28.795 59.065 29.38 59.065 30.19C59.065 30.955 58.435 31.585 57.67 31.585C56.905 31.585 56.275 30.955 56.275 30.19C56.275 29.425 56.905 28.795 57.67 28.795ZM88.495 43.96C87.7246 43.96 87.1 43.3354 87.1 42.565C87.1 41.7946 87.7246 41.17 88.495 41.17C89.2654 41.17 89.89 41.7946 89.89 42.565C89.89 43.3354 89.2654 43.96 88.495 43.96ZM82.33 38.065C83.095 38.065 83.725 38.695 83.725 39.46C83.725 40.225 83.095 40.855 82.33 40.855C81.565 40.855 80.935 40.225 80.935 39.46C80.935 38.695 81.565 38.065 82.33 38.065ZM82.33 28.795C83.095 28.795 83.725 29.38 83.725 30.19C83.725 30.955 83.095 31.585 82.33 31.585C81.565 31.585 80.935 30.955 80.935 30.19C80.935 29.425 81.565 28.795 82.33 28.795ZM82.33 47.38C83.095 47.38 83.725 48.01 83.725 48.775C83.725 49.54 83.095 50.17 82.33 50.17C81.565 50.17 80.935 49.54 80.935 48.775C80.935 48.01 81.565 47.38 82.33 47.38ZM82.33 34.645C81.5596 34.645 80.935 34.0204 80.935 33.25C80.935 32.4796 81.5596 31.855 82.33 31.855C83.1004 31.855 83.725 32.4796 83.725 33.25C83.725 34.0204 83.1004 34.645 82.33 34.645ZM82.33 34.96C83.095 34.96 83.725 35.59 83.725 36.355C83.725 37.12 83.095 37.75 82.33 37.75C81.565 37.75 80.935 37.12 80.935 36.355C80.935 35.59 81.565 34.96 82.33 34.96ZM82.33 53.275C81.5596 53.275 80.935 52.6504 80.935 51.88C80.935 51.1096 81.5596 50.485 82.33 50.485C83.1004 50.485 83.725 51.1096 83.725 51.88C83.725 52.6504 83.1004 53.275 82.33 53.275ZM82.33 56.335C81.5596 56.335 80.935 55.7104 80.935 54.94C80.935 54.1696 81.5596 53.545 82.33 53.545C83.1004 53.545 83.725 54.1696 83.725 54.94C83.725 55.7104 83.1004 56.335 82.33 56.335ZM79.225 25.69C79.99 25.69 80.62 26.32 80.62 27.085C80.62 27.85 79.99 28.48 79.225 28.48C78.46 28.48 77.83 27.85 77.83 27.085C77.83 26.32 78.46 25.69 79.225 25.69ZM79.225 28.795C79.99 28.795 80.62 29.38 80.62 30.19C80.62 30.955 79.99 31.585 79.225 31.585C78.46 31.585 77.83 30.955 77.83 30.19C77.83 29.425 78.46 28.795 79.225 28.795ZM79.225 22.27C78.4546 22.27 77.83 21.6454 77.83 20.875C77.83 20.1046 78.4546 19.48 79.225 19.48C79.9954 19.48 80.62 20.1046 80.62 20.875C80.62 21.6454 79.9954 22.27 79.225 22.27ZM91.555 38.065C92.32 38.065 92.95 38.695 92.95 39.46C92.95 40.225 92.32 40.855 91.555 40.855C90.79 40.855 90.16 40.225 90.16 39.46C90.16 38.695 90.79 38.065 91.555 38.065ZM88.495 38.065C89.26 38.065 89.845 38.695 89.89 39.46C89.89 40.225 89.26 40.855 88.495 40.855C87.73 40.855 87.1 40.225 87.1 39.46C87.1 38.695 87.73 38.065 88.495 38.065ZM79.225 38.065C79.99 38.065 80.62 38.695 80.62 39.46C80.62 40.225 79.99 40.855 79.225 40.855C78.46 40.855 77.83 40.225 77.83 39.46C77.83 38.695 78.46 38.065 79.225 38.065ZM85.39 34.645C84.6196 34.645 83.995 34.0204 83.995 33.25C83.995 32.4796 84.6196 31.855 85.39 31.855C86.1604 31.855 86.785 32.4796 86.785 33.25C86.785 34.0204 86.1604 34.645 85.39 34.645ZM70 65.56C84.13 65.56 95.56 54.13 95.56 40C95.56 25.87 84.13 14.44 70 14.44C55.87 14.44 44.44 25.87 44.44 40C44.44 54.085 55.87 65.56 70 65.56ZM70 71.905C87.64 71.905 101.905 57.64 101.905 40C101.905 22.36 87.64 8.095 70 8.095C52.36 8.095 38.095 22.36 38.095 40C38.095 57.64 52.36 71.905 70 71.905ZM85.39 34.96C86.155 34.96 86.785 35.59 86.785 36.355C86.785 37.12 86.155 37.75 85.39 37.75C84.625 37.75 83.995 37.12 83.995 36.355C83.995 35.59 84.625 34.96 85.39 34.96ZM85.39 53.275C84.6196 53.275 83.995 52.6504 83.995 51.88C83.995 51.1096 84.6196 50.485 85.39 50.485C86.1604 50.485 86.785 51.1096 86.785 51.88C86.785 52.6504 86.1604 53.275 85.39 53.275ZM85.39 43.96C84.6196 43.96 83.995 43.3354 83.995 42.565C83.995 41.7946 84.6196 41.17 85.39 41.17C86.1604 41.17 86.785 41.7946 86.785 42.565C86.785 43.3354 86.1604 43.96 85.39 43.96ZM85.39 56.335C84.6196 56.335 83.995 55.7104 83.995 54.94C83.995 54.1696 84.6196 53.545 85.39 53.545C86.1604 53.545 86.785 54.1696 86.785 54.94C86.785 55.7104 86.1604 56.335 85.39 56.335ZM85.39 38.065C86.155 38.065 86.785 38.695 86.785 39.46C86.785 40.225 86.155 40.855 85.39 40.855C84.625 40.855 83.995 40.225 83.995 39.46C83.995 38.695 84.625 38.065 85.39 38.065ZM73.06 47.38C73.825 47.38 74.455 48.01 74.455 48.775C74.455 49.54 73.825 50.17 73.06 50.17C72.295 50.17 71.665 49.54 71.665 48.775C71.665 48.01 72.295 47.38 73.06 47.38ZM73.06 38.065C73.825 38.065 74.455 38.695 74.455 39.46C74.455 40.225 73.825 40.855 73.06 40.855C72.295 40.855 71.665 40.225 71.665 39.46C71.665 38.695 72.295 38.065 73.06 38.065ZM73.06 28.795C73.825 28.795 74.455 29.38 74.455 30.19C74.455 30.955 73.825 31.585 73.06 31.585C72.295 31.585 71.665 30.955 71.665 30.19C71.665 29.425 72.295 28.795 73.06 28.795ZM73.06 25.69C73.825 25.69 74.455 26.32 74.455 27.085C74.455 27.85 73.825 28.48 73.06 28.48C72.295 28.48 71.665 27.85 71.665 27.085C71.665 26.32 72.295 25.69 73.06 25.69ZM76.165 53.59C76.93 53.59 77.56 54.22 77.56 54.985C77.56 55.75 76.93 56.38 76.165 56.38C75.4 56.38 74.77 55.75 74.77 54.985C74.77 54.22 75.4 53.59 76.165 53.59ZM76.165 47.38C76.93 47.38 77.56 48.01 77.56 48.775C77.56 49.54 76.93 50.17 76.165 50.17C75.4 50.17 74.77 49.54 74.77 48.775C74.77 48.01 75.4 47.38 76.165 47.38ZM76.165 50.485C76.93 50.485 77.56 51.115 77.56 51.88C77.56 52.645 76.93 53.275 76.165 53.275C75.4 53.275 74.77 52.645 74.77 51.88C74.77 51.115 75.4 50.485 76.165 50.485ZM79.225 43.96C78.4546 43.96 77.83 43.3354 77.83 42.565C77.83 41.7946 78.4546 41.17 79.225 41.17C79.9954 41.17 80.62 41.7946 80.62 42.565C80.62 43.3354 79.9954 43.96 79.225 43.96ZM73.06 41.17C73.825 41.17 74.455 41.8 74.455 42.565C74.455 43.33 73.825 43.96 73.06 43.96C72.295 43.96 71.665 43.33 71.665 42.565C71.665 41.8 72.295 41.17 73.06 41.17ZM70 25.69C70.765 25.69 71.395 26.32 71.395 27.085C71.395 27.85 70.765 28.48 70 28.48C69.235 28.48 68.605 27.85 68.605 27.085C68.605 26.32 69.235 25.69 70 25.69ZM73.06 44.275C73.825 44.275 74.455 44.905 74.455 45.67C74.455 46.435 73.825 47.065 73.06 47.065C72.295 47.065 71.665 46.435 71.665 45.67C71.665 44.905 72.295 44.275 73.06 44.275ZM70 22.585C70.765 22.585 71.395 23.215 71.395 23.98C71.395 24.745 70.765 25.375 70 25.375C69.235 25.375 68.605 24.745 68.605 23.98C68.605 23.215 69.235 22.585 70 22.585ZM79.225 56.335C78.4546 56.335 77.83 55.7104 77.83 54.94C77.83 54.1696 78.4546 53.545 79.225 53.545C79.9954 53.545 80.62 54.1696 80.62 54.94C80.62 55.7104 79.9954 56.335 79.225 56.335ZM76.165 19.48C76.93 19.48 77.56 20.11 77.56 20.875C77.56 21.64 76.93 22.27 76.165 22.27C75.4 22.27 74.77 21.64 74.77 20.875C74.77 20.11 75.4 19.48 76.165 19.48ZM76.165 22.585C76.93 22.585 77.56 23.215 77.56 23.98C77.56 24.745 76.93 25.375 76.165 25.375C75.4 25.375 74.77 24.745 74.77 23.98C74.77 23.215 75.4 22.585 76.165 22.585ZM79.225 53.275C78.4546 53.275 77.83 52.6504 77.83 51.88C77.83 51.1096 78.4546 50.485 79.225 50.485C79.9954 50.485 80.62 51.1096 80.62 51.88C80.62 52.6504 79.9954 53.275 79.225 53.275ZM79.225 47.38C79.99 47.38 80.62 48.01 80.62 48.775C80.62 49.54 79.99 50.17 79.225 50.17C78.46 50.17 77.83 49.54 77.83 48.775C77.83 48.01 78.46 47.38 79.225 47.38ZM76.165 44.275C76.93 44.275 77.56 44.905 77.56 45.67C77.56 46.435 76.93 47.065 76.165 47.065C75.4 47.065 74.77 46.435 74.77 45.67C74.77 44.905 75.4 44.275 76.165 44.275ZM76.165 25.69C76.93 25.69 77.56 26.32 77.56 27.085C77.56 27.85 76.93 28.48 76.165 28.48C75.4 28.48 74.77 27.85 74.77 27.085C74.77 26.32 75.4 25.69 76.165 25.69ZM76.165 38.065C76.93 38.065 77.56 38.695 77.56 39.46C77.56 40.225 76.93 40.855 76.165 40.855C75.4 40.855 74.77 40.225 74.77 39.46C74.77 38.695 75.4 38.065 76.165 38.065ZM76.165 41.17C76.93 41.17 77.56 41.8 77.56 42.565C77.56 43.33 76.93 43.96 76.165 43.96C75.4 43.96 74.77 43.33 74.77 42.565C74.77 41.8 75.4 41.17 76.165 41.17ZM76.165 28.795C76.93 28.795 77.56 29.38 77.56 30.19C77.56 30.955 76.93 31.585 76.165 31.585C75.4 31.585 74.77 30.955 74.77 30.19C74.77 29.425 75.4 28.795 76.165 28.795Z" fill="black"/>
</svg>
