<?xml version="1.0" encoding="UTF-8"?>
<svg width="140px" height="96px" viewBox="0 0 140 96" version="1.1" xmlns="http://www.w3.org/2000/svg" xmlns:xlink="http://www.w3.org/1999/xlink">
    <!-- Generator: Sketch 50.2 (55047) - http://www.bohemiancoding.com/sketch -->
    <title>award_w3</title>
    <desc>Created with Sketch.</desc>
    <defs></defs>
    <g id="Page-2" stroke="none" stroke-width="1" fill="none" fill-rule="evenodd">
        <g id="Desktop-HD" transform="translate(-772.000000, -2104.000000)">
            <g id="Group-11" transform="translate(772.000000, 1978.000000)">
                <g id="award_w3" transform="translate(0.000000, 126.000000)">
                    <path d="M34,12 L34,40.935 L52.135,60.6 L54.835,37.785 L68.47,52.59 L69.955,39.81 L77.785,37.245 L74.005,69.645 L60.325,54.84 L57.67,77.655 L34,51.96 L34,84 L106,84 L106,12 L34,12 Z M89.395,56.595 C84.355,56.595 79.99,53.49 78.19,49.08 L85.435,46.74 C86.245,48.135 87.685,49.08 89.395,49.08 C91.96,49.08 94.03,47.01 94.03,44.445 C94.03,41.88 91.96,39.855 89.395,39.855 C89.035,39.855 88.675,39.9 88.36,39.99 L80.62,42.51 L81.745,32.79 L70.36,36.48 L71.305,28.605 L89.845,22.575 L88.585,32.34 L88.63,32.34 C88.9,32.34 89.17,32.295 89.44,32.295 C96.145,32.295 101.59,37.74 101.59,44.445 C101.545,51.15 96.1,56.595 89.395,56.595 Z" id="Shape" fill="#000000" fill-rule="nonzero"></path>
                </g>
            </g>
        </g>
    </g>
</svg>