<svg width="140" height="140" viewBox="0 0 140 140" fill="none" xmlns="http://www.w3.org/2000/svg">
<path d="M57.8294 35L69.0049 40.919L57.8294 46.8822V35ZM92.6368 53.508C92.6368 53.508 95.1546 54.9656 95.1546 56.9092C95.1546 58.5436 95.1546 73.3411 95.1546 74.9313C95.1546 76.8748 92.6368 78.3325 92.6368 78.3325L57.8294 96.8405V83.589L52.3963 80.7178L80.2245 65.9202L71.611 61.3264L89.5006 51.8294L92.6368 53.508ZM82.7423 96.8405L71.5669 90.9215L82.7423 84.9583V96.8405ZM60.3914 65.9202L68.9607 70.5141L51.0712 80.011L47.935 78.3325C47.935 78.3325 45.4172 76.8748 45.4172 74.9313C45.4172 73.2969 45.4172 58.4994 45.4172 56.9092C45.4172 54.9656 47.935 53.508 47.935 53.508L82.7865 35V48.2515L88.2196 51.1227L60.3914 65.9202ZM41.265 105.145C41.5742 105.321 42.016 105.454 42.4577 105.454C42.9436 105.454 43.2086 105.233 43.2086 104.924C43.2086 104.615 42.9877 104.438 42.4135 104.261C41.6184 103.996 41.0883 103.555 41.0883 102.848C41.0883 102.053 41.7509 101.434 42.8994 101.434C43.4294 101.434 43.827 101.567 44.1362 101.655L43.9153 102.539C43.7386 102.45 43.3853 102.318 42.8994 102.318C42.4135 102.318 42.1926 102.539 42.1926 102.76C42.1926 103.069 42.4577 103.201 43.0761 103.422C43.9153 103.731 44.3129 104.173 44.3129 104.836C44.3129 105.631 43.6945 106.293 42.3693 106.293C41.8393 106.293 41.3092 106.161 41 105.984L41.265 105.145ZM45.108 101.567C45.4613 101.523 45.9031 101.479 46.5656 101.479C47.2282 101.479 47.7141 101.611 48.0233 101.876C48.3325 102.097 48.5534 102.494 48.5534 102.98C48.5534 103.466 48.3767 103.864 48.1117 104.129C47.7583 104.482 47.184 104.615 46.5656 104.615C46.4331 104.615 46.3006 104.615 46.2123 104.615V106.337H45.108V101.567ZM46.1681 103.731C46.2564 103.731 46.389 103.775 46.5215 103.775C47.0957 103.775 47.4491 103.466 47.4491 102.98C47.4491 102.539 47.1399 102.274 46.6098 102.274C46.389 102.274 46.2564 102.274 46.1681 102.318V103.731ZM52.1313 104.261H50.3644V105.41H52.308V106.293H49.2601V101.523H52.2196V102.406H50.3644V103.378H52.1313V104.261ZM56.6368 106.161C56.4601 106.249 55.9742 106.382 55.4 106.382C53.7656 106.382 52.8822 105.366 52.8822 103.996C52.8822 102.362 54.0307 101.479 55.4883 101.479C56.0626 101.479 56.4601 101.611 56.681 101.699L56.4601 102.539C56.2393 102.45 55.9301 102.362 55.5767 102.362C54.7374 102.362 54.0748 102.892 54.0748 103.952C54.0748 104.924 54.6491 105.498 55.6209 105.498C55.9301 105.498 56.3276 105.41 56.5043 105.321L56.6368 106.161ZM58.492 101.523V106.293H57.4319V101.523H58.492ZM60.6123 105.056L60.2589 106.293H59.1546L60.6123 101.523H62.0258L63.4834 106.293H62.335L61.9816 105.056H60.6123ZM61.8049 104.261L61.4957 103.245C61.4074 102.98 61.319 102.627 61.2748 102.318C61.1865 102.583 61.1423 102.98 61.054 103.245L60.789 104.261H61.8049ZM64.1902 101.523H65.2503V105.366H67.1497V106.249H64.1902V101.523ZM73.4221 104.438C73.4221 103.864 73.3779 103.157 73.3779 102.494C73.2454 103.113 73.0245 103.775 72.8479 104.35L72.2736 106.205H71.4344L70.9043 104.35C70.7276 103.775 70.5951 103.113 70.4626 102.494C70.4184 103.157 70.4184 103.864 70.3742 104.482L70.2859 106.293H69.2699L69.5791 101.523H70.9926L71.4785 103.113C71.611 103.643 71.7877 104.261 71.8761 104.836C72.0086 104.306 72.1853 103.643 72.3178 103.113L72.8479 101.523H74.2614L74.5264 106.293H73.4663L73.4221 104.438ZM78.281 104.261H76.5141V105.41H78.4577V106.293H75.4098V101.523H78.3693V102.406H76.5141V103.378H78.281V104.261ZM79.2969 106.293V101.523H80.5337L81.5055 103.29C81.7706 103.775 82.0798 104.394 82.3006 104.924C82.2123 104.306 82.2123 103.643 82.2123 102.936V101.523H83.1841V106.293H82.0356L81.0196 104.438C80.7546 103.908 80.4454 103.334 80.1804 102.76C80.2245 103.378 80.2245 104.04 80.2245 104.836V106.249H79.2969V106.293ZM85.1276 102.406H83.8466V101.523H87.5129V102.406H86.2319V106.249H85.1718V102.406H85.1276ZM89.2356 101.523V106.293H88.1755V101.523H89.2356ZM94.6245 103.864C94.6245 105.41 93.6969 106.382 92.2834 106.382C90.8699 106.382 90.0307 105.321 90.0307 103.952C90.0307 102.539 90.9583 101.434 92.3276 101.434C93.8294 101.434 94.6245 102.539 94.6245 103.864ZM91.1791 103.908C91.1791 104.836 91.6209 105.498 92.3276 105.498C93.0344 105.498 93.4761 104.791 93.4761 103.864C93.4761 103.025 93.0785 102.274 92.3276 102.274C91.6209 102.274 91.1791 102.98 91.1791 103.908ZM95.3755 106.293V101.523H96.6123L97.584 103.29C97.8491 103.775 98.1583 104.394 98.3791 104.924C98.2908 104.306 98.2908 103.643 98.2908 102.936V101.523H99.2626V106.293H98.1141L97.0982 104.438C96.8331 103.908 96.5239 103.334 96.2589 102.76C96.3031 103.378 96.3031 104.04 96.3031 104.836V106.249H95.3755V106.293Z" fill="white"/>
</svg>
