<?xml version="1.0" encoding="UTF-8"?>
<svg width="140px" height="96px" viewBox="0 0 140 96" version="1.1" xmlns="http://www.w3.org/2000/svg" xmlns:xlink="http://www.w3.org/1999/xlink">
    <!-- Generator: Sketch 50.2 (55047) - http://www.bohemiancoding.com/sketch -->
    <title>award_dope</title>
    <desc>Created with Sketch.</desc>
    <defs></defs>
    <g id="Page-2" stroke="none" stroke-width="1" fill="none" fill-rule="evenodd">
        <g id="Desktop-HD" transform="translate(-1112.000000, -2104.000000)">
            <g id="Group-11" transform="translate(772.000000, 1978.000000)">
                <g id="award_dope" transform="translate(340.000000, 126.000000)">
                    <path d="M60.4715447,81.5284553 L60.4715447,69.1056911 L65.4796748,69.1056911 L65.4796748,81.5284553 L62.9430894,81.5284553 L62.9430894,84 L43.1056911,84 L43.1056911,81.5284553 L40.5691057,81.5284553 L40.5691057,69.1056911 L45.5772358,69.1056911 L45.5772358,81.5284553 L50.5203252,81.5284553 L50.5203252,69.1056911 L55.5284553,69.1056911 L55.5284553,81.5284553 L60.4715447,81.5284553 Z M35.6260163,69.1056911 L35.6260163,71.5772358 L38.097561,71.5772358 L38.097561,84 L33.1544715,84 L33.1544715,79.0569106 L28.2113821,79.0569106 L28.2113821,84 L23.203252,84 L23.203252,71.5772358 L25.6747967,71.5772358 L25.6747967,69.1056911 L35.6260163,69.1056911 Z M33.1544715,76.5203252 L33.1544715,71.5772358 L28.2113821,71.5772358 L28.2113821,76.5203252 L33.1544715,76.5203252 Z M97.7398374,69.1056911 L97.6747967,69.1056911 L97.6747967,71.6422764 L100.146341,71.6422764 L100.146341,76.5853659 L97.6747967,76.5853659 L97.6747967,79.0569106 L100.146341,79.0569106 L100.146341,84 L95.203252,84 L95.203252,79.0569106 L90.2601626,79.0569106 L90.2601626,84 L85.3170732,84 L85.3170732,69.1056911 L90.2601626,69.1056911 L97.7398374,69.1056911 Z M95.2682927,76.5203252 L95.2682927,71.5772358 L90.3252033,71.5772358 L90.3252033,76.5203252 L95.2682927,76.5203252 Z M115.170732,71.5772358 L117.642276,71.5772358 L117.642276,81.5284553 L115.170732,81.5284553 L115.170732,84 L107.691057,84 L102.747967,84 L102.747967,69.1056911 L107.691057,69.1056911 L115.170732,69.1056911 L115.170732,71.5772358 Z M107.691057,81.5284553 L112.634146,81.5284553 L112.634146,71.5772358 L107.691057,71.5772358 L107.691057,81.5284553 Z M80.3739837,69.1056911 L80.3739837,71.5772358 L82.8455285,71.5772358 L82.8455285,84 L77.902439,84 L77.902439,79.0569106 L72.8943089,79.0569106 L72.8943089,84 L67.9512195,84 L67.9512195,71.5772358 L70.4227642,71.5772358 L70.4227642,69.1056911 L80.3739837,69.1056911 Z M77.902439,76.5203252 L77.902439,71.5772358 L72.8943089,71.5772358 L72.8943089,76.5203252 L77.902439,76.5203252 Z M113.934959,45.3658537 C114.97561,45.0406504 115.95122,44.5853659 116.861789,44.0650407 L122.130081,49.2682927 C120.373984,50.699187 118.227642,51.8699187 115.886179,52.5203252 C108.99187,54.3414634 101.902439,51.4146341 98.2601626,45.6910569 C95.398374,50.1138211 90.4552846,53.0406504 84.796748,53.0406504 C81.6097561,53.0406504 78.6178862,52.1300813 76.1463415,50.504065 L76.1463415,62.4065041 L68.7317073,62.4065041 L68.7317073,45.8861789 C65.8699187,50.1788618 60.9918699,53.0406504 55.398374,53.0406504 C48.8292683,53.0406504 43.1707317,49.0081301 40.699187,43.3495935 C38.2276423,49.0731707 32.5691057,53.0406504 26,53.0406504 C17.1544715,53.0406504 10,45.8861789 10,37.0406504 C10,28.195122 17.1544715,21.0406504 26,21.0406504 C29.1869919,21.0406504 32.1788618,21.9512195 34.6504065,23.5772358 L34.6504065,12 L42.0650407,12 L42.0650407,28.2601626 C44.9268293,23.902439 49.8699187,21.0406504 55.4634146,21.0406504 C62.0325203,21.0406504 67.6910569,25.0081301 70.1626016,30.6666667 C72.6341463,25.0081301 78.2926829,21.0406504 84.8617886,21.0406504 C90.5203252,21.0406504 95.4634146,23.9674797 98.3252033,28.3902439 C100.406504,25.1382114 103.593496,22.6666667 107.626016,21.5609756 C114.910569,19.6097561 122.390244,23.0569106 125.837398,29.4308943 C126.162602,29.9512195 126.357724,30.5365854 126.617886,31.0569106 C126.617886,31.0569106 126.617886,31.1219512 126.617886,31.1219512 C126.813008,31.7073171 127.00813,32.2926829 127.203252,32.8780488 C127.528455,34.1138211 127.658537,35.3495935 127.723577,36.5853659 L105.154472,42.6341463 C107.235772,45.1056911 110.617886,46.2764228 113.934959,45.3658537 Z M26,45.6260163 C30.7479675,45.6260163 34.6504065,41.7886179 34.6504065,36.9756098 C34.6504065,32.2276423 30.7479675,28.3252033 26,28.3252033 C21.2520325,28.3252033 17.3495935,32.2276423 17.3495935,36.9756098 C17.3495935,41.7886179 21.2520325,45.6260163 26,45.6260163 Z M55.398374,45.6260163 C60.1463415,45.6260163 64.0487805,41.7886179 64.0487805,36.9756098 C64.0487805,32.2276423 60.1463415,28.3252033 55.398374,28.3252033 C50.5853659,28.3252033 46.7479675,32.2276423 46.7479675,36.9756098 C46.7479675,41.7886179 50.6504065,45.6260163 55.398374,45.6260163 Z M84.796748,45.6260163 C89.5447154,45.6260163 93.3821138,41.7886179 93.4471545,36.9756098 C93.4471545,32.2276423 89.5447154,28.3252033 84.796748,28.3252033 C79.9837398,28.3252033 76.1463415,32.2276423 76.1463415,36.9756098 C76.1463415,41.7886179 80.0487805,45.6260163 84.796748,45.6260163 Z M109.447154,28.6504065 C106.130081,29.5609756 103.788618,32.2926829 103.203252,35.4796748 L118.227642,31.3821138 C116.146341,28.9756098 112.764228,27.7398374 109.447154,28.6504065 Z M127.333333,43.7398374 C129.544715,43.7398374 131.365854,45.6260163 131.430894,47.8373984 C131.430894,50.1138211 129.609756,51.9349593 127.333333,51.9349593 C125.056911,51.9349593 123.235772,50.1138211 123.235772,47.8373984 C123.235772,45.5609756 125.056911,43.7398374 127.333333,43.7398374 Z M127.333333,50.8943089 C129.02439,50.8943089 130.390244,49.5284553 130.390244,47.8373984 C130.390244,46.1463415 129.02439,44.7804878 127.333333,44.7804878 C125.642276,44.7804878 124.276423,46.1463415 124.276423,47.8373984 C124.276423,49.5284553 125.642276,50.8943089 127.333333,50.8943089 Z M127.333333,46.3414634 C126.487805,46.3414634 125.772358,46.9918699 125.772358,47.7723577 C125.772358,48.6178862 126.487805,49.3333333 127.333333,49.3333333 C127.853659,49.3333333 128.373984,49.0081301 128.634146,48.5528455 L129.219512,48.5528455 C128.894309,49.3333333 128.178862,49.8536585 127.333333,49.8536585 C126.227642,49.8536585 125.317073,48.9430894 125.317073,47.8373984 C125.317073,46.7317073 126.227642,45.8211382 127.333333,45.8211382 C128.178862,45.8211382 128.894309,46.3414634 129.219512,47.1219512 L128.634146,47.1219512 C128.373984,46.6666667 127.918699,46.3414634 127.333333,46.3414634 Z" id="Combined-Shape" fill="#000000" fill-rule="nonzero"></path>
                </g>
            </g>
        </g>
    </g>
</svg>