<svg width="140" height="80" viewBox="0 0 140 80" fill="none" xmlns="http://www.w3.org/2000/svg">
<path d="M38 8V33.72L54.12 51.2L56.52 30.92L68.64 44.08L69.96 32.72L76.92 30.44L73.56 59.24L61.4 46.08L59.04 66.36L38 43.52V72H102V8H38ZM87.24 47.64C82.76 47.64 78.88 44.88 77.28 40.96L83.72 38.88C84.44 40.12 85.72 40.96 87.24 40.96C89.52 40.96 91.36 39.12 91.36 36.84C91.36 34.56 89.52 32.76 87.24 32.76C86.92 32.76 86.6 32.8 86.32 32.88L79.44 35.12L80.44 26.48L70.32 29.76L71.16 22.76L87.64 17.4L86.52 26.08H86.56C86.8 26.08 87.04 26.04 87.28 26.04C93.24 26.04 98.08 30.88 98.08 36.84C98.04 42.8 93.2 47.64 87.24 47.64Z" fill="black"/>
</svg>
