<svg width="140" height="80" viewBox="0 0 140 80" fill="none" xmlns="http://www.w3.org/2000/svg">
<path d="M57.8294 5L69.0049 10.919L57.8294 16.8822V5ZM92.6368 23.508C92.6368 23.508 95.1546 24.9656 95.1546 26.9092C95.1546 28.5436 95.1546 43.3411 95.1546 44.9313C95.1546 46.8748 92.6368 48.3325 92.6368 48.3325L57.8294 66.8405V53.589L52.3963 50.7178L80.2245 35.9202L71.611 31.3264L89.5006 21.8294L92.6368 23.508ZM82.7423 66.8405L71.5669 60.9215L82.7423 54.9583V66.8405ZM60.3914 35.9202L68.9607 40.5141L51.0712 50.011L47.935 48.3325C47.935 48.3325 45.4172 46.8748 45.4172 44.9313C45.4172 43.2969 45.4172 28.4994 45.4172 26.9092C45.4172 24.9656 47.935 23.508 47.935 23.508L82.7865 5V18.2515L88.2196 21.1227L60.3914 35.9202ZM41.265 75.1448C41.5742 75.3215 42.016 75.454 42.4577 75.454C42.9436 75.454 43.2086 75.2331 43.2086 74.9239C43.2086 74.6147 42.9877 74.438 42.4135 74.2614C41.6184 73.9963 41.0883 73.5546 41.0883 72.8479C41.0883 72.0528 41.7509 71.4344 42.8994 71.4344C43.4294 71.4344 43.827 71.5669 44.1362 71.6552L43.9153 72.5387C43.7386 72.4503 43.3853 72.3178 42.8994 72.3178C42.4135 72.3178 42.1926 72.5387 42.1926 72.7595C42.1926 73.0687 42.4577 73.2012 43.0761 73.4221C43.9153 73.7313 44.3129 74.173 44.3129 74.8356C44.3129 75.6307 43.6945 76.2933 42.3693 76.2933C41.8393 76.2933 41.3092 76.1607 41 75.984L41.265 75.1448ZM45.108 71.5669C45.4613 71.5227 45.9031 71.4785 46.5656 71.4785C47.2282 71.4785 47.7141 71.611 48.0233 71.8761C48.3325 72.0969 48.5534 72.4945 48.5534 72.9804C48.5534 73.4663 48.3767 73.8638 48.1117 74.1288C47.7583 74.4822 47.184 74.6147 46.5656 74.6147C46.4331 74.6147 46.3006 74.6147 46.2123 74.6147V76.3374H45.108V71.5669ZM46.1681 73.7313C46.2564 73.7313 46.389 73.7755 46.5215 73.7755C47.0957 73.7755 47.4491 73.4663 47.4491 72.9804C47.4491 72.5387 47.1399 72.2736 46.6098 72.2736C46.389 72.2736 46.2564 72.2736 46.1681 72.3178V73.7313ZM52.1313 74.2614H50.3644V75.4098H52.308V76.2933H49.2601V71.5227H52.2196V72.4061H50.3644V73.3779H52.1313V74.2614ZM56.6368 76.1607C56.4601 76.2491 55.9742 76.3816 55.4 76.3816C53.7656 76.3816 52.8822 75.3656 52.8822 73.9963C52.8822 72.362 54.0307 71.4785 55.4883 71.4785C56.0626 71.4785 56.4601 71.611 56.681 71.6994L56.4601 72.5387C56.2393 72.4503 55.9301 72.362 55.5767 72.362C54.7374 72.362 54.0748 72.892 54.0748 73.9521C54.0748 74.9239 54.6491 75.4982 55.6209 75.4982C55.9301 75.4982 56.3276 75.4098 56.5043 75.3215L56.6368 76.1607ZM58.492 71.5227V76.2933H57.4319V71.5227H58.492ZM60.6123 75.0564L60.2589 76.2933H59.1546L60.6123 71.5227H62.0258L63.4834 76.2933H62.335L61.9816 75.0564H60.6123ZM61.8049 74.2614L61.4957 73.2454C61.4074 72.9804 61.319 72.627 61.2748 72.3178C61.1865 72.5828 61.1423 72.9804 61.054 73.2454L60.789 74.2614H61.8049ZM64.1902 71.5227H65.2503V75.3656H67.1497V76.2491H64.1902V71.5227ZM73.4221 74.438C73.4221 73.8638 73.3779 73.1571 73.3779 72.4945C73.2454 73.1129 73.0245 73.7755 72.8479 74.3497L72.2736 76.2049H71.4344L70.9043 74.3497C70.7276 73.7755 70.5951 73.1129 70.4626 72.4945C70.4184 73.1571 70.4184 73.8638 70.3742 74.4822L70.2859 76.2933H69.2699L69.5791 71.5227H70.9926L71.4785 73.1129C71.611 73.6429 71.7877 74.2614 71.8761 74.8356C72.0086 74.3055 72.1853 73.6429 72.3178 73.1129L72.8479 71.5227H74.2614L74.5264 76.2933H73.4663L73.4221 74.438ZM78.281 74.2614H76.5141V75.4098H78.4577V76.2933H75.4098V71.5227H78.3693V72.4061H76.5141V73.3779H78.281V74.2614ZM79.2969 76.2933V71.5227H80.5337L81.5055 73.2896C81.7706 73.7755 82.0798 74.3939 82.3006 74.9239C82.2123 74.3055 82.2123 73.6429 82.2123 72.9362V71.5227H83.1841V76.2933H82.0356L81.0196 74.438C80.7546 73.908 80.4454 73.3337 80.1804 72.7595C80.2245 73.3779 80.2245 74.0405 80.2245 74.8356V76.2491H79.2969V76.2933ZM85.1276 72.4061H83.8466V71.5227H87.5129V72.4061H86.2319V76.2491H85.1718V72.4061H85.1276ZM89.2356 71.5227V76.2933H88.1755V71.5227H89.2356ZM94.6245 73.8638C94.6245 75.4098 93.6969 76.3816 92.2834 76.3816C90.8699 76.3816 90.0307 75.3215 90.0307 73.9521C90.0307 72.5387 90.9583 71.4344 92.3276 71.4344C93.8294 71.4344 94.6245 72.5387 94.6245 73.8638ZM91.1791 73.908C91.1791 74.8356 91.6209 75.4982 92.3276 75.4982C93.0344 75.4982 93.4761 74.7914 93.4761 73.8638C93.4761 73.0245 93.0785 72.2736 92.3276 72.2736C91.6209 72.2736 91.1791 72.9804 91.1791 73.908ZM95.3755 76.2933V71.5227H96.6123L97.584 73.2896C97.8491 73.7755 98.1583 74.3939 98.3791 74.9239C98.2908 74.3055 98.2908 73.6429 98.2908 72.9362V71.5227H99.2626V76.2933H98.1141L97.0982 74.438C96.8331 73.908 96.5239 73.3337 96.2589 72.7595C96.3031 73.3779 96.3031 74.0405 96.3031 74.8356V76.2491H95.3755V76.2933Z" fill="black"/>
</svg>
