<svg viewBox="0 0 24 24" fill="none" xmlns="http://www.w3.org/2000/svg">
<path fill-rule="evenodd" clip-rule="evenodd" d="M12 24C18.6274 24 24 18.6274 24 12C24 5.37258 18.6274 0 12 0C5.37258 0 0 5.37258 0 12C0 18.6274 5.37258 24 12 24ZM12 20C16.4183 20 20 16.4183 20 12C20 7.58172 16.4183 4 12 4C7.58172 4 4 7.58172 4 12C4 16.4183 7.58172 20 12 20Z" fill="black"/>
<path d="M6 5C6 1 2 0 0 0C1.5 0.5 5 1 5 5C5 10 8 13 12 13V11C9 11 6 10 6 5Z" fill="black"/>
<ellipse cx="12" cy="12" rx="3" ry="2" fill="black"/>
</svg>
