<svg viewBox="0 0 30 30" version="1.1" xmlns="http://www.w3.org/2000/svg" xmlns:xlink="http://www.w3.org/1999/xlink">
    <g id="Page-1" stroke="none" stroke-width="1" fill="none" fill-rule="evenodd">
        <g id="Artboard" transform="translate(0.000000, 0.000000)">
            <g id="behance">
                <path d="M27.0921516,8.64154616 L19.5752569,8.64154616 L19.5752569,6.77440623 L27.0927794,6.77440623 L27.0927794,8.64154616 L27.0921516,8.64154616 L27.0921516,8.64154616 Z M14.5710847,16.2980753 C15.0561087,17.0493254 15.2984811,17.9614829 15.2984811,19.0323857 C15.2984811,20.1398361 15.0252105,21.1333191 14.4692534,22.0108819 C14.115564,22.5915994 13.6764338,23.0821334 13.1487942,23.4770436 C12.5545457,23.93375 11.8510029,24.2469162 11.0422112,24.4142404 C10.2308388,24.5818436 9.35264831,24.666517 8.40666329,24.666517 L0,24.666517 L0,6 L9.01486128,6 C11.2871643,6.03696616 12.8981218,6.69531259 13.8494076,7.98822155 C14.4202209,8.78118061 14.7030469,9.73267568 14.7030469,10.8386614 C14.7030469,11.9798696 14.4168033,12.8930036 13.8404102,13.5867817 C13.519781,13.9757634 13.0461259,14.3295923 12.4190961,14.648966 C13.3688475,14.9966572 14.0894784,15.5441749 14.5710847,16.2980753 Z M4.30495372,13.3592654 L8.25489278,13.3592654 C9.06661391,13.3592654 9.72279816,13.204984 10.2281884,12.8965607 C10.7332298,12.5886256 10.9852275,12.0412474 10.9852275,11.2553328 C10.9852275,10.3870465 10.6515556,9.8107231 9.98260751,9.53333739 C9.40760932,9.34062511 8.67191294,9.24137446 7.779215,9.24137446 L4.30495372,9.24137446 L4.30495372,13.3592654 Z M11.3655605,18.7657411 C11.3655605,17.7961116 10.9692553,17.1257686 10.1782492,16.7660809 C9.73591069,16.5616511 9.11181027,16.4571693 8.31159748,16.4497064 L4.30495372,16.4497064 L4.30495372,21.4242358 L8.24959197,21.4242358 C9.0599879,21.4242358 9.68722695,21.3181499 10.1398881,21.0968412 C10.9562125,20.6899344 11.3655605,19.9155282 11.3655605,18.7657411 Z M29.881144,15.7290057 C29.9719552,16.3397146 30.0130364,17.2257865 29.9963668,18.3839434 L20.2611536,18.3839434 C20.3148591,19.7276982 20.7787496,20.667406 21.6585442,21.205159 C22.1891133,21.5423881 22.8323943,21.7070619 23.585667,21.7070619 C24.3799513,21.7070619 25.0273473,21.5062589 25.5256931,21.0934933 C25.79722,20.8746955 26.0367328,20.5658537 26.2438131,20.1761745 L29.8120939,20.1761745 C29.7186323,20.969831 29.2889879,21.7747867 28.5168833,22.5927851 C27.3206444,23.8929478 25.6429386,24.5448774 23.4882995,24.5448774 C21.7083439,24.5448774 20.1396535,23.9950581 18.7780432,22.899395 C17.4209666,21.7998958 16.7393943,20.0167318 16.7393943,17.5431375 C16.7393943,15.2235457 17.3512889,13.4481237 18.5791932,12.2123379 C19.8116311,10.9742505 21.4021525,10.3580315 23.3626843,10.3580315 C24.524747,10.3580315 25.5722844,10.5657395 26.5068308,10.9833177 C27.4384478,11.4013143 28.2083902,12.0591725 28.8147748,12.963309 C29.3635479,13.7595462 29.7164702,14.6802129 29.881144,15.7290057 Z M26.3688703,16.0773246 C26.3034472,15.1481487 25.9932104,14.4448849 25.4346029,13.964255 C24.8805987,13.4823 24.1884944,13.240346 23.3626843,13.240346 C22.4639184,13.240346 21.769931,13.4989696 21.2768163,14.0072892 C20.7803538,14.5145626 20.4714422,15.2042257 20.3448505,16.0773943 L26.3688703,16.0773943 L26.3688703,16.0773246 Z" id="Behance" fill="#000000" fill-rule="nonzero"></path>
            </g>
        </g>
    </g>
</svg>
