<svg version="1.1" id="Layer_1" xmlns="http://www.w3.org/2000/svg" xmlns:xlink="http://www.w3.org/1999/xlink" x="0px" y="0px"
	 viewBox="0 0 30 30" style="enable-background:new 0 0 30 30;" xml:space="preserve">
<g>
	<path class="st0" d="M15,30C6.7,30,0,23.3,0,15S6.7,0,15,0s15,6.7,15,15S23.3,30,15,30z M15.4,12.8c-6.6,2-12.9,1.8-13.1,1.8
		c0,0.1,0,0.3,0,0.4c0,3.3,1.2,6.3,3.3,8.6c3.5-6.2,10.4-8.5,10.4-8.5c0.2-0.1,0.4-0.1,0.5-0.2C16.1,14.2,15.7,13.5,15.4,12.8z
		 M9.5,3.4c-3.6,1.7-6.2,5-7.1,8.9c0.3,0,5.7,0.1,11.8-1.6C12.1,6.9,9.7,3.7,9.5,3.4z M17.3,17.1C17.2,17.1,17.2,17.1,17.3,17.1
		c-0.1,0-7.7,2.7-10.1,8C7,25,6.8,24.9,6.8,24.9c2.2,1.8,5.1,2.9,8.2,2.9c1.8,0,3.5-0.4,5-1C19.8,25.7,19.1,21.8,17.3,17.1z
		 M11.9,2.6C11.9,2.6,11.9,2.6,11.9,2.6C11.9,2.6,11.9,2.6,11.9,2.6z M15,2.2c-1,0-2.1,0.1-3,0.4c0.2,0.3,2.6,3.4,4.8,7.5
		c4.8-1.8,6.6-4.6,6.7-4.6C21.2,3.4,18.2,2.2,15,2.2z M24.9,6.9c0,0-2.1,3-7.1,5.1c0.3,0.6,0.6,1.2,0.9,1.9c0.1,0.2,0.2,0.4,0.3,0.7
		c4.4-0.6,8.8,0.4,8.9,0.4C27.8,11.8,26.7,9,24.9,6.9z M19.7,16.5c1.7,4.6,2.4,8.4,2.5,9.2c2.9-1.9,4.9-5,5.5-8.6
		C27.4,17,23.8,15.8,19.7,16.5z"/>
</g>
</svg>
