<svg version="1.1" id="linkedin-svg" xmlns="http://www.w3.org/2000/svg" xmlns:xlink="http://www.w3.org/1999/xlink" x="0px"
	 y="0px" viewBox="825 510 30 30" enable-background="new 825 510 30 30" xml:space="preserve">
<g>
	<g>
		<circle fill="#000000" cx="828.5" cy="513.9" r="3.3"/>
		<path fill="#000000" d="M831.8,539c0,0.3-0.1,0.4-0.4,0.4h-6c-0.3,0-0.4-0.1-0.4-0.4v-19.4c0-0.3,0.1-0.4,0.4-0.4h6
			c0.3,0,0.4,0.1,0.4,0.4V539z"/>
		<path fill="#000000" d="M855,525.3v13.5c0,0.3-0.1,0.4-0.4,0.4h-6c-0.3,0-0.4-0.1-0.4-0.4V528c0-2.1-0.1-3.8-3.1-3.8
			c-2,0-3.2,1.7-3.2,2.9v11.8c0,0.3-0.1,0.4-0.4,0.4h-6c-0.3,0-0.4-0.1-0.4-0.4v-19.2c0-0.3,0.1-0.4,0.4-0.4h6
			c0.3,0,0.4,0.1,0.4,0.4v1.9c1.1-1.2,3.1-2.5,6-2.5c4.8,0,6.5,3.5,6.9,5C855,524.1,855,524,855,525.3z"/>
	</g>
</g>
</svg>
