<svg version="1.1" id="twitter-svg" xmlns="http://www.w3.org/2000/svg" xmlns:xlink="http://www.w3.org/1999/xlink" x="0px"
	 y="0px" viewBox="-30 1020 30 30" enable-background="new -30 1020 30 30" xml:space="preserve">
<g>
	<path fill="#000000" d="M0,1025.6c-1.1,0.5-2.3,0.8-3.5,1c1.3-0.7,2.3-1.9,2.8-3.4c-1.2,0.7-2.5,1.2-4,1.4
		c-1.1-1.2-2.8-1.9-4.4-1.9c-3.4,0-6.1,2.8-6.1,6.1c0,0.5,0,1,0.1,1.4c-5.2-0.2-9.6-2.8-12.7-6.5c-0.5,1-0.8,1.9-0.8,3.1
		c0,2.2,1.1,4,2.8,5.2c-1,0-1.9-0.4-2.8-0.7c0,0,0,0,0,0.1c0,3,2.2,5.5,4.9,6c-0.5,0.1-1.1,0.2-1.7,0.2c-0.4,0-0.8,0-1.2-0.1
		c0.8,2.4,3,4.2,5.8,4.3c-2.2,1.7-4.8,2.6-7.7,2.6c-0.5,0-1,0-1.4-0.1c2.8,1.8,6,2.8,9.5,2.8c11.3,0,17.5-9.4,17.5-17.5
		c0-0.2,0-0.5,0-0.8C-1.9,1028-0.8,1027,0,1025.6z"/>
</g>
</svg>