<?xml version="1.0" encoding="UTF-8"?>
<svg width="204px" height="48px" viewBox="0 0 204 48" version="1.1" xmlns="http://www.w3.org/2000/svg" xmlns:xlink="http://www.w3.org/1999/xlink">
    <!-- Generator: Sketch 50.2 (55047) - http://www.bohemiancoding.com/sketch -->
    <title>logo_zapper</title>
    <desc>Created with Sketch.</desc>
    <defs></defs>
    <g id="Page-2" stroke="none" stroke-width="1" fill="none" fill-rule="evenodd">
        <g id="Desktop-HD" transform="translate(-188.000000, -1691.000000)" fill="#000000" fill-rule="nonzero">
            <g id="Group-12" transform="translate(0.000000, 1520.000000)">
                <g id="Group-6" transform="translate(188.000000, 171.000000)">
                    <path d="M28.8846154,24.8146219 C31.1410256,24.8146219 32.9871795,26.6670354 32.9871795,28.8796403 C32.9871795,31.1437012 31.1410256,32.9961147 28.8846154,32.9961147 L4.11538462,32.9961147 C3.03846154,33.0475706 1.96153846,32.5844672 1.19230769,31.8126283 C-0.397435897,30.2174945 -0.397435897,27.5932421 1.19230769,25.9981083 L26.0128205,1.19635036 C27.6025641,-0.398783452 30.2179487,-0.398783452 31.8076923,1.19635036 C33.3974359,2.79148417 33.3974359,5.41573656 31.8076923,7.01087037 L14.0641026,24.8146219 L28.8846154,24.8146219 Z M4.17910448,8 C1.88059701,8 0,6.16149068 0,3.97515528 C0,1.78881988 1.88059701,0 4.17910448,0 L21,0 L12.5895522,8 L4.17910448,8 Z M48.2047372,0 C48.2047372,0 39.280295,0.101951973 37.2404225,4.84271873 C37.2404225,4.84271873 36.6284607,7.85030195 36.8834448,9.78738944 C39.8412599,7.74834997 43.36004,6.57590228 46.9808137,6.42297432 C54.1713643,6.27004636 53.5084057,12.3871648 53.5084057,12.3871648 C53.5084057,12.3871648 33.3136679,10.0422694 33.3136679,24.3665216 C33.3136679,24.3665216 33.3136679,33.6951272 44.3289794,33.6951272 C44.3289794,33.6951272 50.448597,33.1853673 53.3554153,28.1897206 L53.3554153,32.8795114 C53.3554153,32.8795114 62.4328479,33.7970792 62.4328479,25.9977532 L62.4328479,9.37958155 C62.4838448,9.37958155 62.0248734,0 48.2047372,0 Z M46.9298169,27.0682489 C42.2381101,27.2211769 42.1361165,22.3274822 42.1361165,22.3274822 C42.1361165,22.3274822 41.4731579,18.7591631 47.7967627,18.1474513 C47.7967627,18.1474513 53.5594025,17.4337874 53.5594025,18.6572111 C53.6613962,18.6572111 54.4263484,26.864345 46.9298169,27.0682489 Z M85.3814137,0.30585592 C85.3814137,0.30585592 76.8649459,0.45878388 75.0290607,5.96419044 L75.0290607,0.30585592 C75.0290607,0.30585592 65.2886695,-0.662687827 65.2886695,7.18761412 C65.2886695,15.0379161 65.3906631,47.9684034 65.3906631,47.9684034 C65.3906631,47.9684034 75.0800575,48.8859712 75.0800575,40.8317653 L75.0800575,28.9543604 C75.0800575,28.9543604 78.2928567,34.0519591 84.4124742,34.0519591 C91.4500344,34.0519591 98.7935754,29.2602163 98.7935754,15.9045078 C98.7935754,0.101951973 85.3814137,0.30585592 85.3814137,0.30585592 Z M80.7917005,26.2526331 C77.9868758,26.2526331 74.6210862,22.6333381 74.6210862,16.3123157 C74.6210862,9.99129339 77.935879,7.23859011 81.7096431,7.23859011 C81.7096431,7.23859011 89.0531842,7.54444603 89.0531842,16.1084118 C89.0531842,24.6723775 83.9535029,26.2526331 80.7917005,26.2526331 Z M120.416224,0.30585592 C120.416224,0.30585592 111.899756,0.45878388 110.063871,5.96419044 L110.063871,0.30585592 C110.063871,0.30585592 100.32348,-0.662687827 100.32348,7.18761412 C100.32348,15.0379161 100.425473,47.9684034 100.425473,47.9684034 C100.425473,47.9684034 110.114868,48.8859712 110.114868,40.8317653 L110.114868,28.9543604 C110.114868,28.9543604 113.327667,34.0519591 119.447285,34.0519591 C126.484845,34.0519591 133.828386,29.2602163 133.828386,15.9045078 C133.777389,0.101951973 120.416224,0.30585592 120.416224,0.30585592 Z M115.877508,26.2526331 C113.072683,26.2526331 109.706893,22.6333381 109.706893,16.3123157 C109.706893,9.99129339 113.021686,7.23859011 116.79545,7.23859011 C116.79545,7.23859011 124.138991,7.54444603 124.138991,16.1084118 C124.138991,24.6723775 119.03931,26.2526331 115.877508,26.2526331 Z M158.663834,2.49782335 C156.419974,1.32537565 153.870133,0.713663813 151.320292,0.713663813 C142.293857,0.713663813 135.052309,8.15615787 135.052309,17.3318355 C135.052309,26.5075131 142.344853,33.9500071 151.320292,33.9500071 C151.830261,33.9500071 152.238235,33.8990311 152.697206,33.8480551 C154.788076,33.5421992 156.827948,32.9814634 158.71483,32.0638956 C160.091744,31.3502318 161.417661,30.3816881 162.539591,29.2602163 C163.712518,27.9348407 164.528467,26.3545851 164.936441,24.6214016 L163.559528,24.6214016 C163.559528,24.6214016 161.009687,27.2211769 153.156178,27.2211769 C145.302669,27.2211769 144.231736,19.3708749 144.231736,19.3708749 L165.5994,19.3708749 C165.803387,16.9750036 166.211362,6.72883024 158.663834,2.49782335 L158.663834,2.49782335 Z M156.878945,14.0693723 L144.231736,14.0693723 C144.231736,14.0693723 144.537716,6.77980623 150.861321,6.77980623 C157.184926,6.77980623 156.878945,14.0693723 156.878945,14.0693723 L156.878945,14.0693723 Z M177.685645,17.9435473 C177.685645,11.622525 180.592463,8.86982168 184.366227,8.86982168 C185.590151,8.97177365 186.763077,9.37958155 187.83401,9.99129339 L187.83401,0.30585592 C186.661084,0.356831907 179.368539,0.91756776 177.685645,5.91321445 L177.685645,0.30585592 C177.685645,0.30585592 167.945253,-0.662687827 167.945253,7.18761412 C167.945253,15.0379161 167.99625,33.1343913 167.99625,33.1343913 C167.99625,33.1343913 177.736641,33.7970792 177.736641,25.7428733 C177.685645,18.7591631 177.685645,18.0964753 177.685645,17.9435473 L177.685645,17.9435473 Z M192.219736,0.866591773 L189.720892,0.866591773 L189.720892,8.8817842e-16 L195.738516,8.8817842e-16 L195.738516,0.866591773 L193.290669,0.866591773 L193.290669,8.20713385 L192.270733,8.20713385 L192.219736,0.866591773 L192.219736,0.866591773 Z M197.217424,9.05515426e-16 L198.441347,9.05515426e-16 L200.022249,4.38393485 L200.583214,6.06614241 L200.63421,6.06614241 L201.195175,4.38393485 L202.776076,0 L204,0 L204,8.20713385 L203.031061,8.20713385 L203.031061,3.67027104 C203.031061,2.95660723 203.133054,1.98806348 203.133054,1.27439967 L203.082057,1.27439967 L202.470096,3.0585592 L200.889194,7.34054208 L200.277233,7.34054208 L198.747328,3.0585592 L198.08437,1.27439967 L198.033373,1.27439967 C198.08437,1.98806348 198.135367,2.95660723 198.135367,3.67027104 L198.135367,8.15615787 L197.166427,8.15615787 L197.217424,9.05515426e-16 Z" id="logo_zapper"></path>
                </g>
            </g>
        </g>
    </g>
</svg>