<?xml version="1.0" encoding="UTF-8"?>
<svg width="214px" height="48px" viewBox="0 0 214 48" version="1.1" xmlns="http://www.w3.org/2000/svg" xmlns:xlink="http://www.w3.org/1999/xlink">
    <!-- Generator: Sketch 50.2 (55047) - http://www.bohemiancoding.com/sketch -->
    <title>logo_pexcil</title>
    <desc>Created with Sketch.</desc>
    <defs></defs>
    <g id="Page-2" stroke="none" stroke-width="1" fill="none" fill-rule="evenodd">
        <g id="Desktop-HD" transform="translate(-772.000000, -1640.000000)" fill="#000000" fill-rule="nonzero">
            <g id="Group-8" transform="translate(772.000000, 1640.000000)">
                <path d="M0,48 L48,48 L48,0 L0,0 L0,48 Z M43,19 L29,19 L29,5 L29,0 L48,0 L48,19 L43,19 Z M43,24 L43,43 L24,43 L5,24 L5,5 L24,5 L24,24 L29,24 L43,24 Z M200.70509,7.04 C198.758865,7.04 197.181138,5.46404232 197.181138,3.52 C197.181138,1.57595768 198.758865,0 200.70509,0 C202.651315,0 204.229042,1.57595768 204.229042,3.52 C204.229042,5.46404232 202.651315,7.04 200.70509,7.04 Z M74.6437126,7.2 C83.7739521,7.2 91.4625749,14.72 91.3023952,24 C91.3023952,33.28 83.7739521,40.8 74.4835329,40.8 C69.8383234,40.8 65.5134731,38.72 62.4700599,35.68 L62.4700599,48 L57.6646707,48 L57.6646707,24 C57.6646707,14.72 65.3532934,7.2 74.6437126,7.2 Z M74.6437126,36 C81.2110778,36 86.6571856,30.56 86.6571856,24 C86.6571856,17.44 81.2110778,12 74.6437126,12 C68.0763473,12 62.6302395,17.44 62.6302395,24 C62.6302395,30.56 68.0763473,36 74.6437126,36 Z M209.194611,0 L214,0 L214,40.8 L209.194611,40.8 L209.194611,0 Z M198.302395,12 L203.107784,12 L203.107784,40.8 L198.302395,40.8 L198.302395,12 Z M163.383234,7.2 L149.607784,24 L163.383234,40.8 L157.456587,40.8 L146.724551,27.68 L135.832335,40.8 L129.745509,40.8 L143.681138,24 L129.745509,7.2 L135.832335,7.2 L146.724551,20.32 L157.456587,7.2 L163.383234,7.2 Z M188.691617,32.48 L192.055389,35.84 C189.011976,38.88 184.847305,40.8 180.202096,40.8 C170.911677,40.8 163.383234,33.28 163.383234,24 C163.383234,14.72 170.911677,7.2 180.202096,7.2 C184.847305,7.2 189.011976,9.12 192.055389,12.16 L188.691617,15.52 C186.609281,13.44 183.565868,12 180.202096,12 C173.634731,12 168.188623,17.44 168.188623,24 C168.188623,30.56 173.634731,36 180.202096,36 C183.565868,36 186.449102,34.72 188.691617,32.48 Z M121.576347,32.48 L124.77994,35.84 C121.736527,38.88 117.571856,40.8 112.926647,40.8 C103.636228,40.8 96.1077844,33.28 96.1077844,24 C96.1077844,14.72 103.796407,7.2 113.086826,7.2 C122.377246,7.2 129.905689,14.72 129.905689,24 C129.905689,24.8 129.905689,25.6 129.745509,26.4 L101.393713,26.4 C102.35479,31.84 107.320359,36 113.086826,36 C116.450599,36 119.333832,34.72 121.576347,32.48 Z M112.926647,12 C107.16018,12 102.35479,16.16 101.233533,21.6 L124.61976,21.6 C123.658683,16.16 118.693114,12 112.926647,12 Z" id="logo_pexcil"></path>
            </g>
        </g>
    </g>
</svg>