<?xml version="1.0" encoding="UTF-8"?>
<svg viewBox="0 0 30 30" version="1.1" xmlns="http://www.w3.org/2000/svg" xmlns:xlink="http://www.w3.org/1999/xlink">
    <!-- Generator: Sketch 50.2 (55047) - http://www.bohemiancoding.com/sketch -->
    <title>ic_medium</title>
    <desc>Created with Sketch.</desc>
    <defs></defs>
    <g id="Page-2" stroke="none" stroke-width="1" fill="none" fill-rule="evenodd">
        <g id="ic_medium">
            <!-- <rect id="Rectangle-6" fill="#D8D8D8" x="0" y="0" width="30" height="30"></rect> -->
            <path d="M4.3984294,8.5703016 C4.3984294,8.21873994 4.26171127,7.90624098 3.98827413,7.63280384 L1.35156166,4.46874888 L1.35156166,4 L9.61326071,4 L15.9413706,17.9452793 L21.5077636,4 L29.3593074,4 L29.3593074,4.46874888 L27.0741566,6.63671246 C26.8788448,6.79296239 26.8007194,7.00780503 26.8397821,7.28124218 L26.8397821,23.2187042 C26.8007194,23.4921413 26.8788448,23.706984 27.0741566,23.8632339 L29.3007138,26.0311975 L29.3007138,26.4999464 L18.1679278,26.4999464 L18.1679278,26.0311975 L20.4530786,23.8046403 C20.5702658,23.6874531 20.6386254,23.5995626 20.6581563,23.540969 C20.6776872,23.4823754 20.6874531,23.3554223 20.6874531,23.1601106 L20.6874531,10.2695163 L14.3593431,26.4413527 L13.480439,26.4413527 L6.03905049,10.2695163 L6.03905049,21.1093342 C5.99998778,21.5780831 6.1367068,21.9882384 6.44920576,22.3398 L9.43747988,25.9726039 L9.43747988,26.4413527 L1,26.4413527 L1,25.9726039 L3.98827413,22.3398 C4.33983579,21.9882384 4.47655391,21.5780831 4.3984294,21.1093342 L4.3984294,8.5703016 Z" fill="#ffffff"></path>
        </g>
    </g>
</svg>